<svg width="808" height="1048" viewBox="0 0 808 1048" fill="none" xmlns="http://www.w3.org/2000/svg">
<g opacity="0.2">
<mask id="mask0_502_19551" style="mask-type:alpha" maskUnits="userSpaceOnUse" x="0" y="0" width="808" height="1048">
<rect width="808" height="1048" rx="404" fill="url(#paint0_radial_502_19551)"/>
</mask>
<g mask="url(#mask0_502_19551)">
<g clip-path="url(#clip0_502_19551)">
<path d="M669.786 190.998L681.325 172.56L682.318 149.155L662.871 128.777L629.494 112.767L625.957 88" stroke="#0000FF" stroke-opacity="0.2" stroke-width="0.475422" stroke-miterlimit="10" stroke-linecap="round" stroke-linejoin="round"/>
<path d="M411.009 726.625L404.658 736.561L401.262 745.727L401.074 751.564L401.482 760.171L402.988 767.099L405.861 774.062L411.088 783.164L423.631 800.4L458.094 843.428L487.076 864.955" stroke="#0000FF" stroke-opacity="0.2" stroke-width="0.475422" stroke-miterlimit="10" stroke-linecap="round" stroke-linejoin="round"/>
<path d="M450.111 771.891L451.573 788.933L452.107 793.757L452.853 802.715L457.927 816.288L473.122 847.699L487.077 864.956L516.213 900.974" stroke="#0000FF" stroke-opacity="0.2" stroke-width="0.475422" stroke-miterlimit="10" stroke-linecap="round" stroke-linejoin="round"/>
<path d="M458.095 843.43L443.113 848.452L425.683 854.423L407.575 860.364L385.306 868.931L371.29 878.419L356.711 893.351L344.044 915.175L338.104 936.592L333.155 967.089L327.263 990.733L321.981 1014.49L316.699 1038.25L311.5 1061.66" stroke="#0000FF" stroke-opacity="0.2" stroke-width="0.475422" stroke-miterlimit="10" stroke-linecap="round" stroke-linejoin="round"/>
<path d="M789.527 197.062L669.786 190.994L631.267 188.73L597.386 192.102L566.854 198.349L529.845 213.476L465.181 241.805L409.989 275.6L362.159 300.009L334.432 315.611L322.324 327.935L317.877 348L317.986 376.928L323.274 410.942L335.763 467.354L361.238 564.729L380.535 639.917L393.329 686.716L411.008 726.623L428.423 753.137L450.111 771.888L460.616 780.974L485.593 797.233L497.791 809.141L503.176 823.914L505.423 839.969L507.409 874.565L516.212 900.971L531.259 931.689L555.241 963.05L593.81 1007.07L626.311 1036.12L657.726 1050.88L692.581 1054.74L720.872 1061.66" stroke="#0000FF" stroke-opacity="0.2" stroke-width="0.475422" stroke-miterlimit="10" stroke-linecap="round" stroke-linejoin="round"/>
<path fill-rule="evenodd" clip-rule="evenodd" d="M305.225 318.448L305.243 328.589L307.56 336.91L310.773 349.549L311.502 359.025L310.094 370.666L306.503 380.513L306.325 384.044L306.033 389.602L308.968 405.68L315.042 431.133L335.83 497.426L346.567 538.657L356.679 588.469L364 623.577L368.738 658.439L371.935 676.929L375.72 687.693L377.068 690.156L387.936 709.912L393.337 724.183L394.788 732.646L394.658 747.411L395.372 762.73L399.851 773.524L409.511 789.3L427.916 817.204L468.43 875.722L519.717 940.913L552.251 981.005L596.632 1031.91L619.99 1055.86L630.506 1061.67H651.013L648.298 1059.86L647.52 1057.25L648.907 1054.29L652.717 1053.72L684.351 1058.77L692.695 1061.67H768.396L764.267 1060.31L751.025 1054.05L737.267 1047.77L722.216 1044.18L682.223 1038.64L675.376 1037.7L653.139 1032.52L633.743 1024.68L615.113 1009.14L602.39 996.097L581.826 974.517L562.79 953.334L543.925 929.009L531.989 903.546L528.181 887.78L522.873 849.298L518.684 818.751L518.432 813.175L518.282 809.804L515.893 803.714L510.183 799.063L477.291 776.869L447.365 753.402L430.351 735.844L418.719 717.262L415.792 709.301L409.523 692.218L400.521 666.849L388.667 628.157L375.65 571.898L364.716 520.683L350.222 467.824L331.588 393.515L325.652 369.102L323.695 354.95L324.629 350.844L326.103 344.377L332.703 337.378L357.72 320.305L382.175 305.974L452.203 264.935L491.166 242.814L532.685 226.974L580.934 216.157L625.176 212.074L678.192 213.775L779.76 216.692L789.526 216.742V180.018L768.118 182.126L737.074 183.025L716.118 180.977L700.165 178.572L681.323 172.561L669.197 171.905L643.527 171.77L622.8 173.168L592.584 175.29L564.189 179.534L547.089 186.196L530.994 193.764L509.931 205.793L488.778 215.076L469.301 220.642L445.019 225.243L430.64 228.156L416.831 234.252L395.645 244.731L368.002 257.754L344.084 272.791L327.074 287.362L313.778 304.301L305.225 318.448ZM399.885 750.849L402.004 743.876L405.352 741.742L408.779 742.37L412.39 747.981L420.106 759.915L434.786 774.994L441.497 785.86L445.838 800.947L457.717 828.302L456.918 831.715L455.147 833.204L451.021 832.902L441.189 822.276L427.701 802.428L414.464 785.339L405.415 771.987L401.931 762.423L399.885 750.849ZM455.061 798.321L457.382 795.822L461.863 795.788L470.527 799.684L478.953 805.619L488.713 818.299L492.192 828.041L492.161 839.718L491.324 844.336L489.87 846.523L487.804 846.627L485.782 845.186L483.892 839.63L478.265 832.401L466.417 820.164L460.506 811.218L455.284 802.108L455.061 798.321ZM385.517 270.351L386.227 267.024L392.554 263.189L399.936 261.362L403.653 260.964L405.771 262.067L406.036 264.569L401.843 271.556L396.59 274.316L391.398 275.007L387.328 272.983L385.517 270.351Z" fill="white" fill-opacity="0.2"/>
<path opacity="0.12" fill-rule="evenodd" clip-rule="evenodd" d="M530.101 88H19.002V516.736L73.4345 477.136L132.618 468.683L267.482 308.161L305.227 318.447L313.781 304.301L327.076 287.361L344.087 272.79L368.004 257.753L395.648 244.73L416.834 234.251L430.642 228.155L445.021 225.243L469.303 220.641L488.781 215.075L509.934 205.792L530.997 193.763L547.092 186.195L564.192 179.533L541.012 103.687L530.101 88Z" fill="#A89474"/>
<path opacity="0.12" fill-rule="evenodd" clip-rule="evenodd" d="M328.109 1061.66H382.018L336.978 1041.07L328.109 1061.66Z" fill="#A89474"/>
<path opacity="0.12" fill-rule="evenodd" clip-rule="evenodd" d="M521.277 1061.66H630.508L619.992 1055.86L596.633 1031.91L552.253 981.002L519.719 940.91L521.277 1061.66Z" fill="#A89474"/>
<path opacity="0.12" fill-rule="evenodd" clip-rule="evenodd" d="M751.529 912.835L760.986 941.236L760.654 947.894L789.527 939.074V880.379L751.529 912.835Z" fill="#A89474"/>
<path opacity="0.12" fill-rule="evenodd" clip-rule="evenodd" d="M753.811 911.276L760.436 931.073L771.807 927.293L765.171 907.496L753.811 911.276Z" fill="#A89474"/>
<path opacity="0.12" fill-rule="evenodd" clip-rule="evenodd" d="M720.904 750.008L746.028 772.631L761.85 773.648L789.527 783.151V750.875L720.904 750.008Z" fill="#A89474"/>
<path opacity="0.12" fill-rule="evenodd" clip-rule="evenodd" d="M789.528 880.378V803.083L787.063 804.436L783.245 816.17L781.654 822.642L772.319 823.727L767.451 814.288L759.654 810.081L755.627 806.69L753.07 800.425L748.926 795.477L744.855 793.453L739.819 805.245L734.68 852.496L737.204 881.274L751.53 912.834L789.528 880.378Z" fill="#A89474"/>
<path opacity="0.12" fill-rule="evenodd" clip-rule="evenodd" d="M557.492 733.052L565.126 735.466L623.773 740.115L672.507 732.801L723.348 721.401L772.024 715.856L789.529 717.897V707.3L777.733 704.588L760.032 701.059L752.732 693.921L743.071 686.7L731.191 686.716L723.413 688.441L715.477 695.292L708.208 699.794L692.978 699.305L687.477 692.023L686.083 679.742L677.64 677.699L668.423 681.151L667.205 688.217L659.923 693.122L647.249 699.425L641.087 706.527L639.164 716.929L632.285 727.755L623.087 730.616L602.428 726.797L564.391 721.628L559.707 725.629L557.492 733.052Z" fill="#A89474"/>
<path opacity="0.12" fill-rule="evenodd" clip-rule="evenodd" d="M401.287 496.687L401.678 508.992L403.86 530.419L407.559 537.304L410.86 548.351L407.779 554.759L409.494 574.609L418.021 601.703L424.584 617.015L434.569 631.401L437.53 628.89L425.06 602.188L415.723 575.853L414.458 566.433L416.901 563.647L432.46 575.347L441.354 590.993L449.941 600.122L446.947 612.004L443.035 628.023L446.938 644.828L452.602 655.417L457.734 658.447L460.493 653.85L457.863 646.207L461.866 635.41L467.912 626.224L463.77 616.72L467.082 611.347L472.78 612.833L481.659 612.859L489.098 608.939L489.324 601.905L484.306 595.496L474.78 591.281L459.793 586.122L453.49 579.146L454.196 573.439L460.963 574.175L475.156 579.583L494.283 585.66L531.196 607.684L557.344 614.771L576.105 616.15L582.988 613.247L599.45 621.334L632.282 631.767L654.175 641.582L682.056 651.589L723.839 668.03L749.28 681.09L762.803 691.154L768.525 694.59L772.296 695.051L777.676 693.856L782.139 689.014L779.665 680.34L772.983 673.603L762.697 666.742L757.124 657.799L743.558 640.013L502.437 560.802L431.546 530.702L418.61 521.667L410.79 508.306L404.851 494.713L403.988 484.035L402.885 484.323L401.287 496.687Z" fill="#A89474"/>
<path opacity="0.12" fill-rule="evenodd" clip-rule="evenodd" d="M669.133 739.264L669.885 746.03L756.834 738.645L777.242 738.555L789.529 739.559V725.721L773.067 724.469L739.159 725.421L711.254 730.418L683.989 736.795L669.133 739.264Z" fill="#A89474"/>
<path opacity="0.12" fill-rule="evenodd" clip-rule="evenodd" d="M582.202 925.968L582.082 931.208L590.147 947.224L599.981 964.696L623.233 993.451L650.812 1017.65L651.593 1020.68L649.466 1025.85L673.295 1033.81L685.035 1032.14L695.808 1028.38L705.033 1024.05L712.109 1016.67L713.697 1009.97L704.3 1005.41L661.621 987.763L657.739 984.539L625.347 957.603L587.815 924.238L582.202 925.968Z" fill="#A89474"/>
<path opacity="0.12" fill-rule="evenodd" clip-rule="evenodd" d="M415.793 709.297L418.72 717.257L430.353 735.84L447.366 753.397L477.293 776.865L510.184 799.059L515.894 803.71L518.283 809.799L518.434 813.171L530.048 820.091L536.656 838.56L543.513 858.81L547.558 882.28L553.35 898.319L562.032 908.172L570.273 941.042L578.234 964.338L581.828 974.513L602.392 996.093L612.867 997.764L632.767 1013.36L649.465 1025.85L651.591 1020.68L650.811 1017.65L623.232 993.451L599.979 964.696L590.146 947.224L582.081 931.208L582.201 925.968L587.814 924.238L625.346 957.603L657.737 984.539L661.379 980.99L663.361 980.964L737.71 922.919L736.745 920.598L733.779 916.537L728.973 910.548L728.794 905.379L733.047 901.744L736.305 896.864L733.353 886.807L732.634 876.983L731.039 851.335L736.455 800.823L740.51 787.203L740.675 782.061L735.663 771.591L708.558 751.817L611.845 764.213L558.233 759.231L553.105 768.681L551.226 784.264L549.736 798.645L542.073 800.981L529.049 793.336L514.769 781.88L502.192 765.849L483.058 749.769L473.221 739.482L472.219 733.275L475.518 732.346L476.289 729.967L438.845 709.859L415.793 709.297Z" fill="#A89474"/>
<path opacity="0.12" fill-rule="evenodd" clip-rule="evenodd" d="M19.002 837.434V1061.67H179.324L164.638 1052.99L129.621 1047.28L120.488 1021.81L115.388 990.363L105.934 998.451L88.2107 1002.46L84.9008 986.33L93.2571 964.473L103.097 944.194L100.748 921.992L76.506 914.349L60.6242 908.497L54.1116 896.835L52.3841 879.234L35.5583 855.037L19.002 837.434Z" fill="#A89474"/>
<path opacity="0.12" fill-rule="evenodd" clip-rule="evenodd" d="M273.725 499.46L275.381 503.05L289.997 509.363L298.185 522.68L312.21 542.036L319.124 568.204L323.268 578.639L319.033 587.09L310.988 590.78L297.549 590.696L292.807 593.474L289.01 599.017L271.547 574.055L272.487 582.332L298.231 620.095L301.739 665.253L299.732 675.232L298.087 684.016L300.281 689.987L327.547 690.628L336.291 683.998L348.485 682.925L357.717 685.706L364.646 689.449L377.068 690.156L375.721 687.693L371.936 676.929L368.739 658.44L364 623.577L356.679 588.47L346.568 538.657L335.83 497.427L315.043 431.133L308.969 405.68L306.034 389.602L306.326 384.044L299.162 378.561L294.8 374.383L292.066 375.339L289.501 399.187L290.603 411.645L299.642 430.46L301.698 440.392L299.33 464.796L296.426 467.511L289.584 473.15L274.321 492.973L273.725 499.46Z" fill="#A89474"/>
<path opacity="0.12" fill-rule="evenodd" clip-rule="evenodd" d="M323.697 354.949L325.655 369.101L331.59 393.514L350.224 467.823L364.718 520.682L375.652 571.897L388.669 628.156L400.523 666.848L409.525 692.217L431.778 693.361L437.169 689.148L427.854 678.708L407.799 643.192L395.388 616.499L385.222 578.897L381.166 565.705L378.955 559.281L382.602 558.54L375.707 515.71L369.086 480.447L367.079 467.838L364.69 440.278L356.731 430.57L349.376 412.804L346.485 395.53L344.194 381.027L344.845 373.344L347.145 367.267L345.923 361.579L345.204 354.79L341.874 355.031L341.216 343.17L374.737 329.745L376.329 322.27L386.472 315.612L382.178 305.973L357.723 320.304L332.705 337.377L326.105 344.376L324.632 350.843L323.697 354.949Z" fill="#A89474"/>
<path opacity="0.12" fill-rule="evenodd" clip-rule="evenodd" d="M344.193 381.026L346.484 395.529L349.375 412.803L356.731 430.569L364.69 440.277L374.622 439.212L378.421 434.778L404.795 375.317L379.473 376.729L360.025 378.338L353.094 374.166L347.145 367.266L344.844 373.342L344.193 381.026Z" fill="#A89474"/>
<path opacity="0.12" fill-rule="evenodd" clip-rule="evenodd" d="M411.801 484.061L415.026 494.629L422.177 507.2L434.045 516.791L464.907 529.501L521.717 551.209L695.929 613.117L653.533 595.296L542.632 553.547L468.373 526.051L440.842 514.08L425.92 501.671L419.722 492.271L418.137 482.792L420.99 465.726L429.336 447.786L442.672 424.575L456.901 406.402L478.115 386.163L504.238 370.048L615.611 313.363L548.982 342.819L508.269 362.23L485.022 373.833L465.708 387.019L446.376 407.318L430.049 432.125L418.826 454.78L412.531 474.244L411.801 484.061Z" fill="#A89474"/>
<path opacity="0.12" fill-rule="evenodd" clip-rule="evenodd" d="M440.521 486.696L479.472 514.314L531.952 538.028L654.115 579.863L732.056 615.041L744.798 575.544L775.655 516.864L789.529 521.099V216.737L779.763 216.688L671.689 303.101L577.386 352.436L511.375 389.316L464.492 417.058L463.243 419.568L445.91 454.385L440.521 486.696Z" fill="#A89474"/>
<path d="M789.527 647.061L770.036 641.235L729.465 626.176" stroke="black" stroke-width="0.0950845" stroke-miterlimit="10" stroke-linecap="round" stroke-linejoin="round"/>
<path d="M773.291 588.188L789.527 589.458" stroke="black" stroke-width="0.0950845" stroke-miterlimit="10" stroke-linecap="round" stroke-linejoin="round"/>
<path d="M789.528 653.533L781.067 650.701L707.706 626.153L653.045 609.144L557.58 577.164L502.342 558.726L449.622 536.931L432.115 529.321L421.879 522.571L419.797 521.201L411.777 508.054L406.153 495.331L405.059 481.209L408.036 468.936L415.617 447.523L427.18 425.562L440.05 405.7L452.447 389.955L467.023 375.988L476.453 369.021L480.272 365.928L500.623 354.561L531.919 340.456L599.837 307.404L650.511 280.171L678.839 267.253L689.238 261.485L707.154 249.517L716.659 237.966L732.94 218.656" stroke="black" stroke-width="0.0950845" stroke-miterlimit="10" stroke-linecap="round" stroke-linejoin="round"/>
<path d="M789.527 993.741L779.945 985.992L756.832 961.789L757.043 954.786L758.663 941.949L749.994 914.743L735.305 881.309L732.802 851.955L738.42 802.382L745.446 780.198L745.278 776.832L745.146 774.125L733.244 764.02L716.027 747.547L712.154 744.285" stroke="black" stroke-width="0.0950845" stroke-miterlimit="10" stroke-linecap="round" stroke-linejoin="round"/>
<path d="M789.527 785.129L782.818 782.854L761.63 775.416L751.985 774.663L745.146 774.125" stroke="black" stroke-width="0.0950845" stroke-miterlimit="10" stroke-linecap="round" stroke-linejoin="round"/>
<path d="M789.528 656.397L788.347 655.699L781.067 650.706L770.037 641.238" stroke="black" stroke-width="0.0950845" stroke-miterlimit="10" stroke-linecap="round" stroke-linejoin="round"/>
<path d="M779.046 932.855L760.987 941.227L758.664 941.944" stroke="black" stroke-width="0.0950845" stroke-miterlimit="10" stroke-linecap="round" stroke-linejoin="round"/>
<path d="M626.555 1011.77L628.445 1009.14L631.843 1005.96L638.692 1004.15L660.155 983.028L661.675 981.898L663.028 982.598" stroke="black" stroke-width="0.0950845" stroke-miterlimit="10" stroke-linecap="round" stroke-linejoin="round"/>
<path d="M663.027 982.6L749.995 914.742" stroke="black" stroke-width="0.0950845" stroke-miterlimit="10" stroke-linecap="round" stroke-linejoin="round"/>
<path d="M469.45 988.872L434.96 947.252L395.719 907.757L388.104 903.38L380.418 901.25L373.673 902.8L360.933 912.963L349.304 932.962L347.545 940.687L346.683 946.54L343.573 950.949L338.959 953.562" stroke="black" stroke-width="0.0950845" stroke-miterlimit="10" stroke-linecap="round" stroke-linejoin="round"/>
<path d="M255.104 941.77L263.289 960.754L274.516 980.869L288.503 1001.08L291.208 1006.07L292.165 1011.7L287.875 1032.4L276.165 1057.88L273.282 1061.66" stroke="black" stroke-width="0.0950845" stroke-miterlimit="10" stroke-linecap="round" stroke-linejoin="round"/>
<path d="M338.957 953.561L329.826 952.785" stroke="black" stroke-width="0.0950845" stroke-miterlimit="10" stroke-linecap="round" stroke-linejoin="round"/>
<path d="M264.971 987.176L239.844 948.559" stroke="black" stroke-width="0.0950845" stroke-miterlimit="10" stroke-linecap="round" stroke-linejoin="round"/>
<path d="M203.361 920.07L220.22 937.49L227.215 944.715L239.846 948.558L255.266 938.578" stroke="black" stroke-width="0.0950845" stroke-miterlimit="10" stroke-linecap="round" stroke-linejoin="round"/>
<path d="M199.008 953.668L220.217 937.492" stroke="black" stroke-width="0.0950845" stroke-miterlimit="10" stroke-linecap="round" stroke-linejoin="round"/>
<path d="M395.134 370.583L380.438 337.129" stroke="black" stroke-width="0.0950845" stroke-miterlimit="10" stroke-linecap="round" stroke-linejoin="round"/>
<path d="M347.879 354.92L347.525 350.544L348.89 348.85L350.834 347.947L380.438 337.129" stroke="black" stroke-width="0.0950845" stroke-miterlimit="10" stroke-linecap="round" stroke-linejoin="round"/>
<path d="M339.556 350.097L338.402 353.603L336.912 356.577L335.122 358.905L334.864 359.138L334.388 359.171L334.014 358.821L332.795 356.957L331.319 353.501L330.242 349.836" stroke="black" stroke-width="0.0950845" stroke-miterlimit="10" stroke-linecap="round" stroke-linejoin="round"/>
<path d="M347.526 350.543L344.137 349.45L341.21 349.355L339.555 350.094" stroke="black" stroke-width="0.0950845" stroke-miterlimit="10" stroke-linecap="round" stroke-linejoin="round"/>
<path d="M349.491 365.594L348.651 361.753L348.119 357.507L347.881 354.922" stroke="black" stroke-width="0.0950845" stroke-miterlimit="10" stroke-linecap="round" stroke-linejoin="round"/>
<path d="M383.045 436.301L396.067 404.916L397.279 402" stroke="black" stroke-width="0.0950845" stroke-miterlimit="10" stroke-linecap="round" stroke-linejoin="round"/>
<path d="M377.527 451.32L391.651 453.454L389.483 467.732L375.82 465.661" stroke="black" stroke-width="0.0950845" stroke-miterlimit="10" stroke-linecap="round" stroke-linejoin="round"/>
<path d="M350.932 578.784L332.742 513.877L303.977 454.79L292.639 414.192L292.137 385.259L298.205 371.164" stroke="black" stroke-width="0.0950845" stroke-miterlimit="10" stroke-linecap="round" stroke-linejoin="round"/>
<path d="M291.752 693.556L250.247 693.399L216.457 675.464L212.332 661.303L219.019 641.956L253.405 575.399L251.669 562.279L253.749 540.149L259.076 504.558L260.173 497.216L261.675 488.449L271.363 457.285" stroke="black" stroke-width="0.0950845" stroke-miterlimit="10" stroke-linecap="round" stroke-linejoin="round"/>
<path d="M271.269 494.367L267.744 550.437L269.509 581.873" stroke="black" stroke-width="0.0950845" stroke-miterlimit="10" stroke-linecap="round" stroke-linejoin="round"/>
<path d="M291.752 693.555L298.669 666.048L295.578 621.303L269.509 581.873L251.668 562.278L150.469 509.125" stroke="black" stroke-width="0.0950845" stroke-miterlimit="10" stroke-linecap="round" stroke-linejoin="round"/>
<path d="M219.018 641.956L199.301 627.564L172.954 621.56L168.003 614.874L174.656 588.005L125.979 560.602" stroke="black" stroke-width="0.0950845" stroke-miterlimit="10" stroke-linecap="round" stroke-linejoin="round"/>
<path d="M244.048 549.686L188.236 517.371" stroke="black" stroke-width="0.0950845" stroke-miterlimit="10" stroke-linecap="round" stroke-linejoin="round"/>
<path d="M209.242 442.562L199.375 455.511L183.25 462.475L167.246 465.697L156.904 479.422L190.797 503.096L187.54 511.073L188.236 517.371" stroke="black" stroke-width="0.0950845" stroke-miterlimit="10" stroke-linecap="round" stroke-linejoin="round"/>
<path d="M188.236 517.367L181.478 512.969L161.513 499.311L144.375 481.854L144.567 475.883L173.849 433.001L186.718 424.59" stroke="black" stroke-width="0.0950845" stroke-miterlimit="10" stroke-linecap="round" stroke-linejoin="round"/>
<path d="M215.419 447.488L209.243 442.559L186.719 424.59" stroke="black" stroke-width="0.0950845" stroke-miterlimit="10" stroke-linecap="round" stroke-linejoin="round"/>
<path d="M264.512 381.668L260.256 392.75L252.018 393.229L243.258 404.524L237.966 421.25L215.42 447.492L246.365 474.894L261.676 488.45" stroke="black" stroke-width="0.0950845" stroke-miterlimit="10" stroke-linecap="round" stroke-linejoin="round"/>
<path d="M246.363 474.894L250.831 461.839L263.888 442.968L268.949 425.635L269.778 413.844L269.14 396.328L260.254 392.75" stroke="black" stroke-width="0.0950845" stroke-miterlimit="10" stroke-linecap="round" stroke-linejoin="round"/>
<path d="M259.076 504.556L262.999 502.423L271.27 494.366L283.041 477.337L290.094 451.996L292.639 414.191" stroke="black" stroke-width="0.0950845" stroke-miterlimit="10" stroke-linecap="round" stroke-linejoin="round"/>
<path d="M271.363 457.284L286.133 345.383" stroke="black" stroke-width="0.0950845" stroke-miterlimit="10" stroke-linecap="round" stroke-linejoin="round"/>
<path d="M298.203 371.164L298.491 353.621L297.752 345.844" stroke="black" stroke-width="0.0950845" stroke-miterlimit="10" stroke-linecap="round" stroke-linejoin="round"/>
<path d="M301.847 348.572L297.752 345.843L286.133 345.383" stroke="black" stroke-width="0.0950845" stroke-miterlimit="10" stroke-linecap="round" stroke-linejoin="round"/>
<path d="M330.241 349.835L301.848 348.574" stroke="black" stroke-width="0.0950845" stroke-miterlimit="10" stroke-linecap="round" stroke-linejoin="round"/>
<path d="M179.097 802.299L160.983 786.809L110.44 748.811L44.5247 710.579L19.002 685.754" stroke="black" stroke-width="0.0950845" stroke-miterlimit="10" stroke-linecap="round" stroke-linejoin="round"/>
<path d="M149.765 854.683L136.073 846.306L111.177 828.502L85.7167 814.078L63.4252 828.548L57.6816 823.149" stroke="black" stroke-width="0.0950845" stroke-miterlimit="10" stroke-linecap="round" stroke-linejoin="round"/>
<path d="M143.46 862.539L134.754 875.738L132.777 893.43L142.351 918.378" stroke="black" stroke-width="0.0950845" stroke-miterlimit="10" stroke-linecap="round" stroke-linejoin="round"/>
<path d="M240.65 876.518L223.996 873.539L201.252 876.931L189.467 876.165L170.975 863.598L155.67 855.835L149.764 854.68L143.459 862.539L146.318 865.151L185.102 906.217L190.342 900.901" stroke="black" stroke-width="0.0950845" stroke-miterlimit="10" stroke-linecap="round" stroke-linejoin="round"/>
<path d="M333.125 843.128L306.411 852.716L269.494 844.491L228.208 833.074L196.066 816.814L179.096 802.297" stroke="black" stroke-width="0.0950845" stroke-miterlimit="10" stroke-linecap="round" stroke-linejoin="round"/>
<path d="M291.752 693.555L295.671 707.729L333.126 843.13L334.221 857.04L327.807 868.68L305.479 880.302L250.286 875.38L240.65 876.518L236.127 889.108L240.029 899.429L252.839 922.068L255.394 935.918L255.264 938.579L255.103 941.769" stroke="black" stroke-width="0.0950845" stroke-miterlimit="10" stroke-linecap="round" stroke-linejoin="round"/>
<path d="M387.324 797.67L376.118 774.9L371.172 759.486L369.239 746.042L371.009 716.554L367.869 709.096L356.707 701.766L342.111 694.133" stroke="black" stroke-width="0.0950845" stroke-miterlimit="10" stroke-linecap="round" stroke-linejoin="round"/>
<path d="M365.943 691.43L361.664 688.223" stroke="black" stroke-width="0.0950845" stroke-miterlimit="10" stroke-linecap="round" stroke-linejoin="round"/>
<path d="M365.585 701.548L364.334 701.488L356.705 701.764" stroke="black" stroke-width="0.0950845" stroke-miterlimit="10" stroke-linecap="round" stroke-linejoin="round"/>
<path d="M365.774 696.484L365.139 696.444L346.272 694.177L342.11 694.131L291.752 693.555" stroke="black" stroke-width="0.0950845" stroke-miterlimit="10" stroke-linecap="round" stroke-linejoin="round"/>
<path d="M342.111 694.133L341.598 709.091" stroke="black" stroke-width="0.0950845" stroke-miterlimit="10" stroke-linecap="round" stroke-linejoin="round"/>
<path d="M341.598 709.087L305.325 708.018L295.672 707.727" stroke="black" stroke-width="0.0950845" stroke-miterlimit="10" stroke-linecap="round" stroke-linejoin="round"/>
<path d="M318.129 732.192L305.324 708.02" stroke="black" stroke-width="0.0950845" stroke-miterlimit="10" stroke-linecap="round" stroke-linejoin="round"/>
<path d="M346.271 694.179L351.58 689.918L361.664 688.224L361.619 647.246L361.577 629.962L350.931 578.785" stroke="black" stroke-width="0.0950845" stroke-miterlimit="10" stroke-linecap="round" stroke-linejoin="round"/>
<path d="M329.827 952.783L325.399 949.001L323.303 944.058L323.548 938.63L326.623 914.716L329.762 893.006L334.221 857.039" stroke="black" stroke-width="0.0950845" stroke-miterlimit="10" stroke-linecap="round" stroke-linejoin="round"/>
<path d="M516.107 657.672L526.004 671.391L537.46 684.986L548.835 706.313L557.327 721.184L556.5 730.513" stroke="black" stroke-width="0.0950845" stroke-miterlimit="10" stroke-linecap="round" stroke-linejoin="round"/>
<path d="M553.763 738.516L552.054 745.123L551.838 749.847" stroke="black" stroke-width="0.0950845" stroke-miterlimit="10" stroke-linecap="round" stroke-linejoin="round"/>
<path d="M556.501 730.512L553.764 738.515" stroke="black" stroke-width="0.0950845" stroke-miterlimit="10" stroke-linecap="round" stroke-linejoin="round"/>
<path d="M438.43 704.973L486.121 730.372L551.802 753.789L612.379 760.29L672.641 753.369L716.028 747.548L789.528 748.702" stroke="black" stroke-width="0.0950845" stroke-miterlimit="10" stroke-linecap="round" stroke-linejoin="round"/>
<path d="M789.527 741.836L756.428 740.876L712.155 744.284L670.778 748.924L612.244 755.63L551.837 749.849L488.381 724.581L449.333 699.923L435.217 699.75" stroke="black" stroke-width="0.0950845" stroke-miterlimit="10" stroke-linecap="round" stroke-linejoin="round"/>
<path d="M718.82 801.894L732.198 782.829L742.422 778.146L745.278 776.828" stroke="black" stroke-width="0.0950845" stroke-miterlimit="10" stroke-linecap="round" stroke-linejoin="round"/>
<path d="M435.217 699.748L365.773 696.484" stroke="black" stroke-width="0.0950845" stroke-miterlimit="10" stroke-linecap="round" stroke-linejoin="round"/>
<path d="M365.943 691.43L431.999 694.537" stroke="black" stroke-width="0.0950845" stroke-miterlimit="10" stroke-linecap="round" stroke-linejoin="round"/>
<path d="M407.828 828.161L398.706 819.71L392.953 811.192L387.322 797.668" stroke="black" stroke-width="0.0950845" stroke-miterlimit="10" stroke-linecap="round" stroke-linejoin="round"/>
<path d="M432 694.539L440.685 687.973" stroke="black" stroke-width="0.0950845" stroke-miterlimit="10" stroke-linecap="round" stroke-linejoin="round"/>
<path d="M438.429 704.968L365.586 701.547" stroke="black" stroke-width="0.0950845" stroke-miterlimit="10" stroke-linecap="round" stroke-linejoin="round"/>
<path d="M427.285 305.246L439.872 322.199L439.242 336.614L429.523 355.979L412.369 379.198" stroke="black" stroke-width="0.0950845" stroke-miterlimit="10" stroke-linecap="round" stroke-linejoin="round"/>
<path d="M729.466 626.176L675.71 610.366L643.51 599.156" stroke="black" stroke-width="0.0950845" stroke-miterlimit="10" stroke-linecap="round" stroke-linejoin="round"/>
<path d="M643.51 599.157L537.205 564.019L436.214 523.527L420.172 511.116L412.329 496.681L409.361 481.263L414.125 460.165L418.552 448.75" stroke="black" stroke-width="0.0950845" stroke-miterlimit="10" stroke-linecap="round" stroke-linejoin="round"/>
<path d="M679.783 273.457L647.41 299.347L507.58 372.766L486.762 386.069L477.823 392.56L459.854 408.56L443.995 431.658L428.867 463.208L426.463 479.66L428.604 492.001L434.474 502.472L446.678 512.152L460.508 519.017L677.311 602.511L729.465 626.178" stroke="black" stroke-width="0.0950845" stroke-miterlimit="10" stroke-linecap="round" stroke-linejoin="round"/>
<path d="M418.553 448.751L431.283 424.259L451.502 395.402L479.037 372.979L502.397 360.338L654.567 286.542L679.784 273.457" stroke="black" stroke-width="0.0950845" stroke-miterlimit="10" stroke-linecap="round" stroke-linejoin="round"/>
<path d="M507.581 372.766L505.816 369.707" stroke="black" stroke-width="0.0950845" stroke-miterlimit="10" stroke-linecap="round" stroke-linejoin="round"/>
<path d="M505.817 369.708L503.48 363.84" stroke="black" stroke-width="0.0950845" stroke-miterlimit="10" stroke-linecap="round" stroke-linejoin="round"/>
<path d="M507.58 372.766L505.899 379.702L492.404 386.819L486.762 386.068" stroke="black" stroke-width="0.0950845" stroke-miterlimit="10" stroke-linecap="round" stroke-linejoin="round"/>
<path d="M503.48 363.84L502.397 360.339L500.623 354.566" stroke="black" stroke-width="0.0950845" stroke-miterlimit="10" stroke-linecap="round" stroke-linejoin="round"/>
<path d="M380.436 337.13L377.588 330.01L427.285 305.248L477.781 275.211" stroke="black" stroke-width="0.0950845" stroke-miterlimit="10" stroke-linecap="round" stroke-linejoin="round"/>
<path d="M476.453 369.02L473.105 365.669L470.428 364.801L469.185 364.5L467.751 364.724L464.463 366.511L456.476 372.559L440.129 385.658" stroke="black" stroke-width="0.0950845" stroke-miterlimit="10" stroke-linecap="round" stroke-linejoin="round"/>
<path d="M397.279 402.001L408.263 374.055" stroke="black" stroke-width="0.0950845" stroke-miterlimit="10" stroke-linecap="round" stroke-linejoin="round"/>
<path d="M440.127 385.659L412.369 379.197L408.263 374.054L406.436 372.325L401.427 370.252L395.134 370.581L376.047 371.184L359.379 372.473L356.489 372.255L354.918 371.751L351.023 368.024L349.488 365.59" stroke="black" stroke-width="0.0950845" stroke-miterlimit="10" stroke-linecap="round" stroke-linejoin="round"/>
<path d="M399.404 451.227L391.648 453.459" stroke="black" stroke-width="0.0950845" stroke-miterlimit="10" stroke-linecap="round" stroke-linejoin="round"/>
<path d="M394.84 443.102L392.225 448.724" stroke="black" stroke-width="0.0950845" stroke-miterlimit="10" stroke-linecap="round" stroke-linejoin="round"/>
<path d="M391.193 439.887L392.226 448.725L391.65 453.457" stroke="black" stroke-width="0.0950845" stroke-miterlimit="10" stroke-linecap="round" stroke-linejoin="round"/>
<path d="M409.349 411.871L394.842 443.103" stroke="black" stroke-width="0.0950845" stroke-miterlimit="10" stroke-linecap="round" stroke-linejoin="round"/>
<path d="M396.069 404.914L405.013 408.88L391.193 439.883" stroke="black" stroke-width="0.0950845" stroke-miterlimit="10" stroke-linecap="round" stroke-linejoin="round"/>
<path d="M409.349 411.87L409.825 410.843L405.012 408.883" stroke="black" stroke-width="0.0950845" stroke-miterlimit="10" stroke-linecap="round" stroke-linejoin="round"/>
<path d="M440.128 385.66L438.274 392.755L424.277 415.507L414.166 435.284L410.554 440.314L404.536 445.277L399.404 451.223" stroke="black" stroke-width="0.0950845" stroke-miterlimit="10" stroke-linecap="round" stroke-linejoin="round"/>
<path d="M403.655 542.314L391.867 541.887" stroke="black" stroke-width="0.0950845" stroke-miterlimit="10" stroke-linecap="round" stroke-linejoin="round"/>
<path d="M421.879 522.57L422.678 527.887L432.965 533.856L434.365 541.876L429.49 547.629" stroke="black" stroke-width="0.0950845" stroke-miterlimit="10" stroke-linecap="round" stroke-linejoin="round"/>
<path d="M449.333 699.921L440.683 687.97L418.219 653.465L398.199 609.287L387.325 571.62L382.805 542.316L375.33 477.251L375.818 465.662L377.525 451.321L380.996 441.874L383.045 436.301" stroke="black" stroke-width="0.0950845" stroke-miterlimit="10" stroke-linecap="round" stroke-linejoin="round"/>
<path d="M429.49 547.632L419.472 543.506L412.321 542.716L403.654 542.312" stroke="black" stroke-width="0.0950845" stroke-miterlimit="10" stroke-linecap="round" stroke-linejoin="round"/>
<path d="M391.866 541.887L382.807 542.32" stroke="black" stroke-width="0.0950845" stroke-miterlimit="10" stroke-linecap="round" stroke-linejoin="round"/>
<path d="M591.239 224.801L524.548 236.061L475.645 271.953L477.782 275.208L500.809 279.944L536.066 281.318L579.365 262.49L602.566 260.386" stroke="black" stroke-width="0.0950845" stroke-miterlimit="10" stroke-linecap="round" stroke-linejoin="round"/>
<path d="M679.783 273.456L692.803 266.323L704.88 257.316L713.479 248.371L720.889 239.282L735.81 220.711" stroke="black" stroke-width="0.0950845" stroke-miterlimit="10" stroke-linecap="round" stroke-linejoin="round"/>
<path d="M732.939 218.658L769.243 169.75" stroke="black" stroke-width="0.0950845" stroke-miterlimit="10" stroke-linecap="round" stroke-linejoin="round"/>
<path d="M649.076 235.164L695.033 168.695" stroke="black" stroke-width="0.0950845" stroke-miterlimit="10" stroke-linecap="round" stroke-linejoin="round"/>
<path d="M674.527 249.469L689.239 261.488" stroke="black" stroke-width="0.0950845" stroke-miterlimit="10" stroke-linecap="round" stroke-linejoin="round"/>
<path d="M675.57 159.465L650.295 158.548L632.69 155.251L603.042 151.461L579.453 154.865" stroke="black" stroke-width="0.0950845" stroke-miterlimit="10" stroke-linecap="round" stroke-linejoin="round"/>
<path d="M690.923 159.478L675.57 159.469" stroke="black" stroke-width="0.0950845" stroke-miterlimit="10" stroke-linecap="round" stroke-linejoin="round"/>
<path d="M789.526 132.122L779.174 131.871L736.715 144.172L727.745 146.037L710.243 153.335L690.922 159.474" stroke="black" stroke-width="0.0950845" stroke-miterlimit="10" stroke-linecap="round" stroke-linejoin="round"/>
<path d="M695.035 168.695L708.19 152.934L720.086 136.12L739.056 115.902" stroke="black" stroke-width="0.0950845" stroke-miterlimit="10" stroke-linecap="round" stroke-linejoin="round"/>
<path d="M723.819 88L731.177 99.3532L735.557 112.19L730.295 120.441L719.106 127.603L717.23 133.8L727.746 146.042" stroke="black" stroke-width="0.0950845" stroke-miterlimit="10" stroke-linecap="round" stroke-linejoin="round"/>
<path d="M739.055 115.904L749.966 103.567L745.624 88" stroke="black" stroke-width="0.0950845" stroke-miterlimit="10" stroke-linecap="round" stroke-linejoin="round"/>
<path d="M353.674 262.928L371.954 251.832L392.208 232.893L422.33 217.717L440.537 208.676L459.816 209.295L492 194.524L507.976 179.917L525.106 172.221L546.187 170.494L555.113 160.816L570.131 154.434L579.452 154.868" stroke="black" stroke-width="0.0950845" stroke-miterlimit="10" stroke-linecap="round" stroke-linejoin="round"/>
<path d="M19.002 141.108L59.4821 121.381L155.336 97.625L191.518 97.7562L260.193 105.469L256.356 117.714L189.506 138.929L126.655 164.394L46.8809 201.683L19.002 218.077" stroke="black" stroke-width="0.0950845" stroke-miterlimit="10" stroke-linecap="round" stroke-linejoin="round"/>
<path d="M781.129 150.879L789.528 133.633" stroke="black" stroke-width="0.0950845" stroke-miterlimit="10" stroke-linecap="round" stroke-linejoin="round"/>
<path d="M769.244 169.75L781.13 150.879" stroke="black" stroke-width="0.0950845" stroke-miterlimit="10" stroke-linecap="round" stroke-linejoin="round"/>
<path d="M789.527 149.656L786.96 152.535L772.094 171.794" stroke="black" stroke-width="0.0950845" stroke-miterlimit="10" stroke-linecap="round" stroke-linejoin="round"/>
<path d="M789.528 375.965L789.226 376.097L784.579 378.777L753.767 386.623L701.583 396.816L696.108 401.642L576.947 429.353L528.212 441.74L522.2 430.492L509.334 430.407L487.604 437.086L470.98 445.435L462.566 427.148L463.247 419.571L475.931 412.679L477.824 392.561" stroke="black" stroke-width="0.0950845" stroke-miterlimit="10" stroke-linecap="round" stroke-linejoin="round"/>
<path d="M735.811 220.711L772.095 171.793" stroke="black" stroke-width="0.0950845" stroke-miterlimit="10" stroke-linecap="round" stroke-linejoin="round"/>
<path fill-rule="evenodd" clip-rule="evenodd" d="M271.645 1061.67H274.92L277.201 1058.68L277.282 1058.56L277.349 1058.43L289.059 1032.95L289.113 1032.81L289.151 1032.67L293.44 1011.96L293.459 1011.84L293.467 1011.72L293.464 1011.6L293.449 1011.48L292.492 1005.86L292.461 1005.72L292.414 1005.59L292.353 1005.46L289.648 1000.47L289.574 1000.34L275.623 980.183L264.459 960.18L256.42 941.535L256.565 938.646L256.565 938.645L256.696 935.984L256.694 935.834L256.676 935.684L254.12 921.834L254.086 921.694L254.037 921.558L253.973 921.429L241.213 898.878L237.516 889.099L241.604 877.719L250.306 876.691L305.365 881.601L305.488 881.606L305.611 881.6L305.734 881.581L305.853 881.552L305.97 881.511L306.082 881.459L328.409 869.838L328.519 869.773L328.623 869.699L328.718 869.614L328.805 869.521L328.882 869.419L328.949 869.311L332.098 863.595L328.473 892.836L325.336 914.533L325.333 914.553L322.258 938.467L322.249 938.574L322.004 944.002L322.004 944.118L322.014 944.234L322.035 944.348L322.065 944.46L322.106 944.569L324.202 949.512L324.254 949.621L324.316 949.724L324.387 949.821L324.467 949.911L324.555 949.994L328.982 953.776L328.999 953.789L329.016 953.803L329.05 953.828L329.083 953.854L329.102 953.866L329.119 953.878L329.156 953.899L329.192 953.922L329.211 953.931L329.23 953.942L329.268 953.96L329.306 953.979L329.326 953.986L329.346 953.995L329.386 954.009L329.426 954.024L329.446 954.03L329.467 954.037L329.508 954.047L329.549 954.058L329.57 954.061L329.591 954.066L329.633 954.072L329.675 954.079L329.696 954.08L329.718 954.083L338.849 954.859L338.856 954.86L338.863 954.861L338.92 954.862L338.976 954.864L338.983 954.864L338.991 954.864L339.047 954.86L339.104 954.856L339.111 954.855L339.118 954.854L339.174 954.845L339.23 954.836L339.237 954.834L339.244 954.833L339.298 954.817L339.353 954.803L339.36 954.8L339.367 954.798L339.42 954.778L339.473 954.758L339.479 954.755L339.486 954.753L339.537 954.727L339.588 954.702L339.594 954.698L339.6 954.695L344.214 952.082L344.335 952.004L344.446 951.914L344.547 951.812L344.636 951.7L347.746 947.291L347.812 947.188L347.867 947.08L347.913 946.966L347.947 946.85L347.97 946.73L348.826 940.928L350.529 933.445L361.935 913.829L374.253 904.003L380.388 902.593L387.598 904.591L394.918 908.799L433.995 948.128L468.447 989.703L468.534 989.797L468.629 989.883L468.732 989.958L468.842 990.024L468.957 990.078L469.078 990.12L469.202 990.151L469.328 990.169L469.456 990.174L469.584 990.167L469.71 990.148L469.834 990.117L469.954 990.073L470.069 990.018L470.178 989.952L470.28 989.875L470.375 989.789L470.46 989.694L470.536 989.591L470.601 989.481L470.655 989.365L470.697 989.245L470.728 989.121L470.746 988.994L470.752 988.866L470.745 988.739L470.725 988.613L470.694 988.489L470.65 988.369L470.595 988.254L470.529 988.144L470.452 988.042L435.962 946.421L435.883 946.335L396.642 906.84L396.557 906.761L396.465 906.691L396.367 906.629L388.753 902.252L388.656 902.201L388.555 902.159L388.452 902.126L380.765 899.996L380.639 899.968L380.511 899.952L380.382 899.949L380.253 899.959L380.126 899.982L373.381 901.532L373.269 901.563L373.16 901.604L373.055 901.655L372.955 901.715L372.861 901.783L360.121 911.946L360.03 912.026L359.947 912.113L359.873 912.208L359.808 912.309L348.178 932.308L348.118 932.425L348.07 932.547L348.034 932.674L346.276 940.399L346.257 940.498L345.44 946.043L342.677 949.96L338.668 952.231L330.355 951.525L326.479 948.213L324.618 943.824L324.847 938.745L327.914 914.895L331.052 893.195L331.056 893.169L335.514 857.202L335.514 857.197L335.515 857.192L335.519 857.129L335.523 857.075L335.523 857.07L335.524 857.066L335.522 857.001L335.52 856.947L335.52 856.944L335.52 856.94L334.425 843.03L334.419 842.983L334.415 842.94L334.411 842.924L334.409 842.907L334.398 842.859L334.39 842.815L334.385 842.801L334.382 842.785L297.398 709.086L304.53 709.301L316.981 732.805L317.046 732.915L317.122 733.017L317.207 733.112L317.302 733.199L317.404 733.275L317.513 733.341L317.629 733.396L317.749 733.44L317.872 733.471L317.999 733.49L318.126 733.497L318.254 733.491L318.38 733.473L318.504 733.443L318.625 733.4L318.741 733.346L318.85 733.28L318.953 733.205L319.048 733.119L319.134 733.025L319.211 732.923L319.277 732.813L319.332 732.698L319.375 732.578L319.407 732.454L319.426 732.328L319.433 732.2L319.427 732.073L319.409 731.946L319.378 731.822L319.336 731.702L319.281 731.586L307.523 709.39L341.56 710.393L341.621 710.392L341.681 710.391L341.685 710.391L341.688 710.39L341.748 710.383L341.808 710.376L341.811 710.376L341.815 710.375L341.874 710.362L341.933 710.35L341.936 710.349L341.939 710.348L341.997 710.329L342.055 710.311L342.058 710.31L342.061 710.309L342.116 710.284L342.172 710.26L342.175 710.259L342.178 710.257L342.231 710.228L342.284 710.198L342.287 710.197L342.289 710.195L342.339 710.16L342.389 710.126L342.392 710.124L342.394 710.122L342.44 710.082L342.487 710.043L342.489 710.041L342.491 710.039L342.533 709.995L342.576 709.952L342.578 709.949L342.58 709.947L342.617 709.899L342.655 709.852L342.657 709.849L342.659 709.847L342.692 709.795L342.725 709.744L342.726 709.742L342.728 709.739L342.755 709.685L342.783 709.631L342.784 709.628L342.786 709.625L342.808 709.569L342.83 709.512L342.831 709.509L342.832 709.506L342.849 709.448L342.866 709.389L342.866 709.386L342.867 709.383L342.878 709.323L342.889 709.264L342.889 709.261L342.889 709.258L342.894 709.197L342.899 709.136L343.341 696.245L356.047 702.89L366.823 709.967L369.691 716.779L367.94 745.964L367.938 746.096L367.951 746.227L369.883 759.671L369.903 759.779L369.932 759.884L374.879 775.298L374.95 775.475L386.138 798.208L391.753 811.695L391.809 811.812L391.876 811.923L397.629 820.44L397.719 820.559L397.823 820.666L406.945 829.118L407.042 829.2L407.148 829.272L407.26 829.334L407.377 829.384L407.499 829.422L407.624 829.449L407.751 829.462L407.879 829.464L408.006 829.453L408.132 829.429L408.254 829.393L408.373 829.346L408.486 829.287L408.593 829.217L408.693 829.137L408.784 829.048L408.866 828.95L408.938 828.845L409 828.733L409.05 828.615L409.088 828.493L409.115 828.368L409.129 828.241L409.13 828.113L409.119 827.986L409.095 827.861L409.06 827.738L409.012 827.619L408.953 827.506L408.883 827.399L408.803 827.3L408.714 827.208L399.702 818.858L394.106 810.574L388.526 797.17L388.508 797.133L388.492 797.095L377.328 774.411L372.444 759.193L370.546 745.988L372.308 716.632L372.31 716.513L372.301 716.394L372.281 716.276L372.25 716.161L372.209 716.049L369.069 708.591L369.013 708.475L368.947 708.366L368.87 708.263L368.783 708.169L368.687 708.084L368.584 708.008L360.208 702.508L364.331 702.359L365.545 702.416H365.546L365.546 702.416L438.195 705.829L485.714 731.136L485.83 731.188L551.511 754.605L551.609 754.634L551.71 754.65L612.287 761.152L612.383 761.156L612.478 761.151L672.74 754.23L672.757 754.228L715.18 748.536L732.346 764.961L732.403 765.012L743.875 774.751L743.937 776.018L741.88 776.967L731.657 781.65L731.535 781.714L731.421 781.79L731.315 781.878L731.219 781.977L731.134 782.086L717.756 801.15L717.688 801.258L717.631 801.373L717.585 801.492L717.551 801.615L717.53 801.741L717.52 801.868L717.524 801.996L717.54 802.123L717.568 802.247L717.608 802.369L717.66 802.485L717.723 802.596L717.797 802.701L717.881 802.797L717.973 802.885L718.074 802.964L718.182 803.032L718.296 803.089L718.416 803.135L718.539 803.169L718.665 803.19L718.792 803.2L718.92 803.196L719.047 803.18L719.171 803.152L719.293 803.112L719.409 803.06L719.52 802.997L719.625 802.923L719.721 802.839L719.809 802.747L719.887 802.646L733.062 783.87L742.966 779.334L742.969 779.332L744.076 778.821L744.136 780.028L737.181 801.989L737.148 802.11L737.128 802.235L731.51 851.808L731.502 851.936L731.507 852.065L734.01 881.419L734.03 881.561L734.065 881.699L734.115 881.832L748.397 914.339L662.509 981.355L662.075 981.13L661.994 981.093L661.911 981.065L661.825 981.046L661.738 981.035L661.65 981.033L661.562 981.04L661.476 981.056L661.391 981.081L661.309 981.114L661.232 981.155L661.158 981.204L659.638 982.333L659.547 982.411L638.248 1003.37L631.622 1005.12L631.54 1005.15L631.461 1005.18L631.386 1005.22L631.315 1005.27L631.25 1005.33L627.852 1008.51L627.793 1008.57L627.74 1008.64L625.85 1011.27L625.804 1011.34L625.765 1011.42L625.734 1011.5L625.71 1011.58L625.695 1011.66L625.688 1011.75L625.689 1011.83L625.699 1011.92L625.717 1012L625.743 1012.08L625.776 1012.16L625.818 1012.23L625.866 1012.3L625.921 1012.37L625.982 1012.43L626.049 1012.48L626.121 1012.53L626.196 1012.57L626.276 1012.6L626.357 1012.62L626.441 1012.64L626.526 1012.64L626.611 1012.64L626.696 1012.63L626.779 1012.62L626.86 1012.59L626.938 1012.56L627.013 1012.51L627.083 1012.47L627.148 1012.41L627.207 1012.35L627.26 1012.28L629.1 1009.72L632.277 1006.74L638.914 1004.99L639 1004.96L639.082 1004.93L639.161 1004.88L639.234 1004.83L639.301 1004.77L660.721 983.69L661.758 982.92L661.769 982.926L661.774 982.947L661.814 983.069L661.866 983.186L661.928 983.297L662.002 983.401L662.085 983.498L662.178 983.586L662.279 983.665L662.387 983.733L662.501 983.79L662.62 983.836L662.743 983.87L662.869 983.892L662.996 983.902L663.124 983.899L663.251 983.883L663.375 983.855L663.497 983.815L663.613 983.763L663.725 983.7L663.829 983.627L749.323 916.918L757.337 942.07L755.754 954.623L755.744 954.747L755.533 961.749L755.535 961.878L755.55 962.006L755.578 962.132L755.618 962.255L755.67 962.373L755.734 962.485L755.808 962.59L755.892 962.688L779.005 986.89L779.128 987.003L789.529 995.414V992.066L780.83 985.032L758.151 961.284L758.345 954.887L759.851 942.944L761.372 942.475L761.535 942.412L779.595 934.04L779.708 933.981L779.814 933.911L779.914 933.831L780.005 933.741L780.087 933.643L780.158 933.537L780.22 933.425L780.269 933.307L780.307 933.185L780.333 933.06L780.347 932.933L780.348 932.806L780.336 932.678L780.312 932.553L780.276 932.43L780.228 932.312L780.169 932.199L780.099 932.092L780.018 931.993L779.929 931.902L779.831 931.82L779.725 931.748L779.613 931.687L779.495 931.637L779.373 931.599L779.248 931.573L779.121 931.56L778.993 931.559L778.866 931.57L778.741 931.594L778.618 931.63L778.5 931.678L760.52 940.013L759.513 940.324L751.236 914.347L751.223 914.314L751.21 914.274L751.197 914.245L751.187 914.219L736.585 880.983L734.112 851.972L739.701 802.654L746.689 780.59L746.719 780.478L746.739 780.364L746.749 780.248L746.748 780.132L746.58 776.768L746.52 775.538L751.885 775.96L761.361 776.7L782.389 784.081L782.402 784.086L789.529 786.503V783.753L783.245 781.623L762.063 774.187L761.955 774.154L761.845 774.131L761.733 774.118L752.088 773.364L745.67 772.86L734.118 763.053L718.865 748.459L789.529 749.568V747.833L717.021 746.694L716.928 746.606L716.867 746.551L715.428 745.338L756.461 742.18L789.529 743.139V740.535L756.467 739.575L756.33 739.579L712.056 742.987L712.048 742.988L712.045 742.988L712.042 742.988L712.011 742.991L670.634 747.631L670.631 747.631L612.234 754.322L552.764 748.63L552.918 745.255L554.596 738.768L557.008 731.714L557.011 731.713L557.126 731.657L557.235 731.59L557.337 731.513L557.43 731.426L557.515 731.331L557.59 731.228L557.655 731.117L557.708 731.001L557.75 730.881L557.78 730.756L557.798 730.63L558.624 721.301L558.629 721.169L558.62 721.038L558.599 720.908L558.564 720.781L558.517 720.658L558.458 720.54L549.975 705.685L538.609 684.376L538.539 684.258L538.456 684.149L527.032 670.592L517.164 656.912L517.084 656.812L516.995 656.721L516.897 656.639L516.792 656.566L516.68 656.505L516.563 656.454L516.441 656.415L516.316 656.389L516.189 656.375L516.061 656.373L515.934 656.384L515.808 656.407L515.686 656.443L515.567 656.49L515.453 656.549L515.346 656.618L515.247 656.698L515.155 656.787L515.073 656.885L515 656.99L514.939 657.102L514.888 657.219L514.85 657.341L514.823 657.466L514.809 657.593L514.807 657.721L514.818 657.848L514.841 657.974L514.877 658.096L514.924 658.215L514.983 658.328L515.052 658.435L524.949 672.155L525.009 672.232L536.377 685.722L547.687 706.927L547.705 706.96L555.994 721.477L555.204 730.4L555.199 730.528L555.207 730.655L555.227 730.782L555.259 730.905L555.303 731.025L555.359 731.14L555.366 731.152L552.943 738.237L552.934 738.269L552.924 738.301L551.215 744.908L551.197 744.996L551.188 745.086L551.049 748.134L488.976 723.417L450.242 698.958L441.759 687.236L419.366 652.841L399.426 608.839L388.6 571.343L384.314 543.551L391.875 543.19L403.601 543.614L412.22 544.016L419.147 544.781L428.995 548.837L429.116 548.88L429.24 548.911L429.366 548.929L429.494 548.935L429.621 548.929L429.748 548.91L429.871 548.878L429.992 548.835L430.107 548.78L430.216 548.714L430.319 548.638L430.413 548.552L430.499 548.457L430.575 548.354L430.64 548.245L430.695 548.129L430.737 548.009L430.768 547.885L430.787 547.758L430.793 547.631L430.786 547.503L430.779 547.456L435.028 542.442L435.079 542.375L435.124 542.303L435.161 542.228L435.191 542.149L435.213 542.067L435.227 541.984L435.233 541.9L435.231 541.816L435.221 541.732L433.821 533.712L433.802 533.63L433.776 533.55L433.742 533.473L433.701 533.4L433.653 533.331L433.598 533.267L433.538 533.208L433.472 533.156L433.401 533.11L423.475 527.35L423.027 524.371L431.638 530.049L431.702 530.088L431.77 530.12L449.276 537.731L449.291 537.737L502.011 559.532L502.068 559.553L557.305 577.991L652.77 609.971L652.788 609.977L707.441 626.982L779.539 651.109L780.219 651.693L780.331 651.779L787.611 656.772L787.685 656.819L789.529 657.908V654.885L789.047 654.6L788.166 653.996L789.529 654.452V652.622L782.956 650.422L781.862 649.672L778.77 647.018L789.529 650.234V643.893L771.002 638.356L730.624 623.368L678.568 599.746L678.404 599.677L461.733 516.234L448.316 509.574L436.832 500.465L431.509 490.969L429.54 479.619L431.807 464.105L446.634 433.183L462.15 410.584L476.455 397.846L475.111 412.137L462.833 418.808L462.76 418.852L462.692 418.903L462.629 418.961L462.572 419.025L462.522 419.094L462.478 419.167L462.443 419.245L462.415 419.325L462.394 419.408L462.383 419.493L461.702 427.069L461.699 427.16L461.705 427.25L461.72 427.339L461.745 427.426L461.778 427.51L470.192 445.796L470.232 445.874L470.28 445.946L470.335 446.014L470.396 446.076L470.463 446.131L470.536 446.179L470.613 446.22L470.693 446.253L470.777 446.277L470.862 446.294L470.949 446.301L471.036 446.3L471.122 446.29L471.207 446.271L471.29 446.244L471.37 446.209L487.929 437.893L509.462 431.275L521.678 431.355L527.447 442.148L527.489 442.219L527.538 442.285L527.592 442.347L527.653 442.403L527.718 442.453L527.788 442.496L527.862 442.533L527.939 442.563L528.018 442.585L528.099 442.599L528.181 442.606L528.263 442.605L528.345 442.597L528.426 442.58L577.152 430.195L696.305 402.486L696.388 402.463L696.468 402.431L696.544 402.392L696.616 402.345L696.683 402.292L701.98 397.622L753.933 387.474L753.981 387.463L784.793 379.616L784.869 379.593L784.942 379.564L785.013 379.527L789.529 376.923V375.017L788.88 375.3L788.793 375.344L784.249 377.964L753.577 385.775L701.417 395.963L701.327 395.986L701.241 396.017L701.159 396.058L701.081 396.107L701.009 396.164L695.699 400.845L576.75 428.506L576.733 428.511L528.657 440.731L522.965 430.082L522.922 430.009L522.872 429.941L522.815 429.878L522.752 429.821L522.684 429.771L522.612 429.727L522.536 429.691L522.456 429.662L522.374 429.641L522.29 429.628L522.206 429.623L509.34 429.538L509.252 429.542L509.165 429.555L509.08 429.577L487.35 436.255L487.282 436.28L487.215 436.309L471.393 444.255L463.452 426.994L464.07 420.111L476.346 413.441L476.419 413.397L476.486 413.346L476.549 413.288L476.606 413.225L476.656 413.156L476.699 413.083L476.735 413.006L476.763 412.926L476.784 412.844L476.796 412.76L478.358 396.152L479.731 394.929L488.475 388.58L489.731 387.777L492.234 388.11L492.367 388.121L492.501 388.118L492.634 388.101L492.765 388.071L492.891 388.028L493.013 387.971L506.508 380.854L506.613 380.792L506.712 380.72L506.804 380.639L506.889 380.55L506.964 380.453L507.03 380.35L507.086 380.241L507.131 380.127L507.165 380.009L508.133 376.019L509.108 375.396L648.823 302.036L649.073 301.889L649.308 301.719L681.475 275.994L694.263 268.988L694.62 268.759L706.697 259.752L706.89 259.595L707.07 259.423L715.67 250.478L715.835 250.292L723.244 241.202L723.258 241.186L738.179 222.615L738.214 222.567L738.251 222.522L774.518 173.627L789.3 154.477L789.529 154.22V145.094L784.694 150.514L784.557 150.68L772.201 166.687L781.864 151.344L781.866 151.34L781.869 151.336L781.887 151.303L781.906 151.27L781.908 151.265L781.91 151.261L789.529 135.617V130.824L779.207 130.574L779.075 130.578L778.943 130.595L778.814 130.625L736.403 142.912L727.749 144.712L720.804 136.626L739.689 116.497L739.697 116.488L739.706 116.479L750.618 104.142L750.672 104.074L750.719 104.002L750.758 103.925L750.79 103.844L750.814 103.761L750.829 103.676L750.835 103.59L750.833 103.504L750.823 103.418L750.804 103.334L746.527 88H744.725L749.005 103.345L738.415 115.319L719.666 135.302L718.2 133.595L719.845 128.161L730.764 121.172L730.84 121.117L730.91 121.054L730.973 120.984L731.028 120.907L736.29 112.657L736.333 112.582L736.368 112.503L736.395 112.421L736.414 112.336L736.424 112.251L736.426 112.164L736.419 112.078L736.404 111.993L736.38 111.91L731.999 99.0729L731.974 99.0066L731.943 98.9425L731.906 98.8812L724.854 88H722.786L730.391 99.7351L734.603 112.075L729.667 119.813L718.639 126.872L718.568 126.923L718.502 126.981L718.442 127.045L718.39 127.115L718.344 127.19L718.306 127.269L718.277 127.352L716.401 133.548L716.38 133.633L716.368 133.719L716.364 133.806L716.369 133.893L716.383 133.979L716.405 134.063L716.436 134.144L716.474 134.223L716.52 134.296L716.574 134.365L718.598 136.722L707.501 152.406L707.002 153.004L690.723 158.177L675.595 158.167L650.44 157.254L632.931 153.975L632.856 153.963L603.209 150.173L603.092 150.164L602.974 150.165L602.858 150.176L579.268 153.581L579.143 153.605L579.021 153.642L578.902 153.69L578.79 153.75L578.683 153.82L578.584 153.901L578.527 153.957L570.175 153.568L570.097 153.568L570.019 153.574L569.943 153.588L569.868 153.609L569.795 153.636L554.776 160.019L554.693 160.059L554.616 160.108L554.543 160.165L554.477 160.229L545.782 169.658L525.038 171.357L524.94 171.371L524.845 171.395L524.753 171.431L507.623 179.126L507.542 179.168L507.465 179.219L507.393 179.277L491.517 193.793L459.642 208.423L440.568 207.81L440.482 207.811L440.397 207.821L440.314 207.839L440.232 207.866L440.154 207.9L421.947 216.941L421.942 216.943L391.82 232.119L391.748 232.16L391.68 232.207L391.618 232.26L371.43 251.138L353.226 262.187L353.156 262.235L353.09 262.289L353.03 262.35L352.977 262.416L352.93 262.487L352.89 262.562L352.858 262.641L352.833 262.723L352.817 262.806L352.809 262.891L352.81 262.976L352.819 263.061L352.836 263.144L352.861 263.226L352.894 263.304L352.935 263.379L352.982 263.45L353.037 263.515L353.097 263.575L353.163 263.629L353.234 263.676L353.31 263.715L353.389 263.747L353.47 263.772L353.554 263.788L353.639 263.796L353.724 263.795L353.809 263.786L353.892 263.769L353.973 263.744L354.052 263.711L354.127 263.671L372.407 252.575L372.481 252.525L372.549 252.467L392.712 233.613L422.721 218.495L440.73 209.552L459.79 210.164L459.871 210.163L459.95 210.154L460.029 210.138L460.106 210.115L460.18 210.085L492.364 195.313L492.444 195.272L492.518 195.222L492.588 195.165L508.462 180.652L525.328 173.075L546.261 171.36L546.341 171.35L546.42 171.332L546.496 171.307L546.57 171.275L546.641 171.236L546.708 171.191L546.771 171.14L546.828 171.083L555.627 161.543L570.291 155.311L578.447 155.691L578.486 155.739L578.576 155.83L578.675 155.911L578.781 155.983L578.893 156.043L579.011 156.093L579.133 156.13L579.258 156.156L579.385 156.169L579.513 156.169L579.64 156.157L603.054 152.778L632.488 156.541L650.057 159.831L650.152 159.846L650.249 159.853L675.524 160.77L675.547 160.769L675.57 160.771L690.923 160.78L690.932 160.78L690.941 160.78L690.996 160.777L691.051 160.774L691.06 160.773L691.069 160.772L691.123 160.763L691.177 160.755L691.186 160.753L691.195 160.752L691.248 160.738L691.301 160.724L691.31 160.721L691.318 160.719L703.899 156.722L694.369 168.14L694.346 168.171L694.322 168.202L648.364 234.671L648.319 234.744L648.282 234.82L648.252 234.9L648.23 234.982L648.216 235.066L648.21 235.151L648.213 235.236L648.224 235.321L648.244 235.404L648.271 235.484L648.306 235.562L648.349 235.635L648.399 235.705L648.455 235.769L648.517 235.827L648.585 235.879L648.657 235.924L648.733 235.961L648.813 235.991L648.895 236.013L648.979 236.027L649.064 236.033L649.149 236.03L649.234 236.019L649.317 235.999L649.397 235.972L649.475 235.937L649.549 235.894L649.618 235.844L649.682 235.788L649.74 235.726L649.792 235.658L695.727 169.222L706.976 155.744L710.64 154.58L710.746 154.541L728.134 147.291L736.982 145.451L737.079 145.426L779.345 133.182L788.674 133.407L780.37 150.459L768.528 169.262L732.261 218.121L715.997 237.41L715.99 237.418L706.566 248.871L689.291 260.411L675.077 248.797L675.008 248.747L674.935 248.703L674.858 248.667L674.778 248.638L674.695 248.618L674.611 248.606L674.526 248.602L674.441 248.606L674.357 248.619L674.274 248.64L674.194 248.668L674.117 248.705L674.044 248.749L673.976 248.8L673.913 248.857L673.856 248.92L673.805 248.989L673.762 249.062L673.725 249.139L673.697 249.219L673.676 249.302L673.664 249.386L673.66 249.471L673.664 249.556L673.677 249.641L673.698 249.723L673.727 249.803L673.763 249.88L673.807 249.953L673.858 250.022L673.916 250.084L673.979 250.142L687.699 261.351L678.449 266.482L650.152 279.385L650.101 279.41L599.442 306.635L531.551 339.674L500.267 353.774L500.231 353.792L500.212 353.801L500.207 353.804L500.2 353.808L479.849 365.175L479.786 365.214L479.726 365.258L476.515 367.858L473.719 365.06L473.658 365.005L473.593 364.955L473.523 364.913L473.449 364.877L473.373 364.848L470.696 363.98L470.632 363.962L469.389 363.661L469.305 363.645L469.221 363.637L469.135 363.638L469.051 363.647L467.617 363.871L467.521 363.892L467.427 363.924L467.337 363.966L464.048 365.753L463.992 365.786L463.939 365.824L455.952 371.872L455.933 371.887L439.915 384.721L413.854 378.654L430.223 356.495L430.265 356.434L430.301 356.369L440.02 337.004L440.056 336.92L440.084 336.833L440.102 336.744L440.111 336.653L440.741 322.238L440.741 322.154L440.732 322.07L440.715 321.987L440.69 321.906L440.658 321.828L440.618 321.753L440.571 321.683L428.557 305.502L477.938 276.128L500.635 280.797L500.705 280.808L500.776 280.814L536.033 282.187L536.111 282.187L536.188 282.179L536.265 282.165L536.34 282.144L536.413 282.116L579.584 263.344L602.646 261.253L602.73 261.241L602.813 261.221L602.893 261.193L602.97 261.157L603.044 261.114L603.113 261.063L603.176 261.007L603.234 260.944L603.285 260.876L603.329 260.803L603.367 260.727L603.396 260.647L603.417 260.564L603.43 260.48L603.435 260.395L603.432 260.31L603.42 260.226L603.4 260.143L603.372 260.062L603.336 259.985L603.293 259.912L603.242 259.843L603.186 259.779L603.123 259.722L603.055 259.67L602.982 259.626L602.906 259.589L602.826 259.56L602.743 259.538L602.659 259.525L602.574 259.52L602.489 259.524L579.288 261.628L579.196 261.641L579.107 261.664L579.02 261.696L535.902 280.445L500.915 279.082L478.311 274.432L476.823 272.167L524.897 236.885L591.385 225.659L591.468 225.64L591.549 225.614L591.627 225.58L591.701 225.538L591.771 225.489L591.836 225.434L591.895 225.373L591.947 225.306L591.993 225.234L592.032 225.158L592.063 225.079L592.086 224.997L592.101 224.913L592.108 224.828L592.106 224.743L592.096 224.658L592.077 224.575L592.051 224.494L592.017 224.416L591.975 224.342L591.927 224.272L591.871 224.207L591.81 224.148L591.743 224.096L591.671 224.05L591.595 224.011L591.516 223.98L591.434 223.957L591.35 223.942L591.265 223.935L591.18 223.937L591.096 223.947L524.405 235.208L524.326 235.225L524.249 235.249L524.174 235.281L524.103 235.319L524.036 235.364L475.132 271.255L475.064 271.311L475.002 271.373L474.946 271.441L474.898 271.514L474.857 271.592L474.825 271.674L474.801 271.758L474.785 271.845L474.778 271.932L474.78 272.02L474.791 272.107L474.811 272.193L474.839 272.276L474.876 272.356L474.92 272.431L476.56 274.928L426.872 304.485L377.203 329.232L377.128 329.274L377.058 329.324L376.992 329.38L376.933 329.442L376.88 329.51L376.834 329.583L376.796 329.66L376.765 329.741L376.742 329.824L376.728 329.909L376.723 329.995L376.725 330.081L376.737 330.166L376.757 330.25L376.785 330.331L379.301 336.621L350.537 347.133L350.469 347.161L348.525 348.064L348.455 348.1L348.388 348.143L348.326 348.192L348.268 348.247L348.215 348.306L347.225 349.536L344.404 348.625L344.326 348.604L344.246 348.59L344.165 348.584L341.239 348.49L341.16 348.491L341.082 348.499L341.005 348.514L340.93 348.536L340.857 348.564L339.202 349.303L339.183 349.312L339.164 349.321L339.145 349.332L339.126 349.341L339.108 349.353L339.09 349.363L339.072 349.375L339.054 349.387L339.037 349.4L339.02 349.412L339.004 349.426L338.987 349.44L338.972 349.454L338.956 349.468L338.941 349.484L338.925 349.499L338.912 349.514L338.897 349.529L338.884 349.547L338.87 349.563L338.858 349.58L338.845 349.597L338.833 349.615L338.821 349.633L338.811 349.651L338.8 349.669L338.79 349.688L338.779 349.707L338.771 349.726L338.761 349.745L338.754 349.765L338.745 349.785L338.738 349.805L338.731 349.824L337.597 353.27L336.173 356.113L334.61 358.146L333.563 356.544L332.137 353.206L331.074 349.59L331.066 349.564L331.058 349.538L331.052 349.524L331.046 349.51L331.035 349.485L331.025 349.46L331.017 349.446L331.011 349.432L330.997 349.409L330.984 349.385L330.975 349.372L330.968 349.359L330.952 349.337L330.936 349.314L330.927 349.303L330.917 349.29L330.899 349.27L330.882 349.249L330.871 349.238L330.861 349.226L330.841 349.208L330.822 349.189L330.81 349.179L330.798 349.169L330.777 349.152L330.756 349.135L330.743 349.127L330.73 349.117L330.707 349.103L330.684 349.088L330.671 349.081L330.658 349.073L330.633 349.061L330.609 349.048L330.595 349.043L330.581 349.036L330.555 349.027L330.53 349.016L330.516 349.012L330.501 349.006L330.475 349L330.449 348.992L330.434 348.989L330.419 348.985L330.392 348.981L330.365 348.976L330.35 348.974L330.334 348.972L330.307 348.97L330.28 348.968L302.128 347.718L298.235 345.123L298.167 345.082L298.166 345.082L298.165 345.081L298.152 345.075L298.096 345.048L298.092 345.046L298.089 345.045L298.064 345.036L298.022 345.02L298.015 345.018L298.008 345.016L297.982 345.009L297.945 344.999L297.935 344.997L297.926 344.995L297.9 344.991L297.867 344.985L297.854 344.984L297.842 344.982L297.818 344.981L297.788 344.978L286.168 344.518L286.166 344.518L286.163 344.518L286.123 344.518L286.083 344.519L286.08 344.519L286.078 344.519L286.038 344.524L285.999 344.528L285.996 344.528L285.993 344.529L285.954 344.537L285.915 344.545L285.913 344.546L285.91 344.547L285.872 344.559L285.834 344.571L285.831 344.572L285.829 344.573L285.792 344.588L285.756 344.604L285.753 344.605L285.751 344.607L285.716 344.626L285.681 344.645L285.679 344.646L285.676 344.648L285.643 344.67L285.611 344.693L285.608 344.695L285.606 344.696L285.576 344.722L285.545 344.747L285.543 344.75L285.541 344.751L285.513 344.78L285.486 344.808L285.484 344.81L285.482 344.813L285.457 344.844L285.432 344.875L285.431 344.877L285.429 344.879L285.407 344.913L285.386 344.946L285.384 344.948L285.383 344.951L285.365 344.986L285.346 345.021L285.345 345.024L285.344 345.027L285.329 345.063L285.314 345.1L285.313 345.103L285.312 345.106L285.302 345.144L285.29 345.182L285.29 345.185L285.289 345.188L285.282 345.227L285.274 345.266L285.274 345.269L285.274 345.271L270.63 456.212L270.545 456.275L270.45 456.36L270.363 456.454L270.287 456.556L270.22 456.665L270.165 456.78L270.121 456.9L261.031 486.141L247.526 474.184L251.615 462.235L264.604 443.463L264.652 443.384L264.692 443.3L264.723 443.212L269.784 425.88L269.805 425.789L269.817 425.697L270.646 413.906L270.647 413.814L270.009 396.298L270.002 396.215L269.987 396.133L269.964 396.053L269.934 395.976L269.896 395.901L269.852 395.831L269.801 395.765L269.744 395.705L269.681 395.65L269.614 395.601L269.542 395.559L269.466 395.525L261.775 392.428L265.727 382.136L265.767 382.014L265.795 381.89L265.811 381.763L265.814 381.635L265.804 381.508L265.782 381.382L265.748 381.259L265.701 381.14L265.644 381.026L265.575 380.918L265.497 380.817L265.408 380.725L265.312 380.642L265.207 380.568L265.096 380.505L264.979 380.454L264.858 380.414L264.733 380.386L264.606 380.371L264.478 380.368L264.351 380.377L264.225 380.399L264.102 380.434L263.983 380.48L263.869 380.537L263.761 380.606L263.66 380.685L263.568 380.773L263.485 380.87L263.411 380.974L263.349 381.085L263.297 381.202L259.342 391.501L251.942 391.93L251.819 391.943L251.699 391.968L251.581 392.004L251.466 392.051L251.357 392.108L251.254 392.176L251.158 392.253L251.069 392.338L250.989 392.432L242.229 403.727L242.163 403.821L242.105 403.92L242.056 404.024L242.017 404.132L236.805 420.605L215.251 445.692L210.056 441.546L187.531 423.577L187.428 423.502L187.317 423.438L187.201 423.385L187.08 423.344L186.956 423.314L186.829 423.297L186.701 423.293L186.574 423.301L186.448 423.321L186.324 423.354L186.205 423.399L186.09 423.455L185.981 423.522L185.88 423.6L185.786 423.687L185.702 423.783L185.627 423.886L185.563 423.997L185.51 424.113L185.469 424.234L185.439 424.358L185.434 424.398L173.376 432.279L173.307 432.329L173.243 432.385L173.185 432.448L173.134 432.516L143.852 475.398L143.809 475.468L143.773 475.542L143.744 475.618L143.722 475.697L143.708 475.778L143.702 475.86L143.51 481.83L143.511 481.918L143.522 482.005L143.541 482.09L143.568 482.174L143.604 482.254L143.648 482.329L143.7 482.401L143.758 482.466L160.895 499.924L160.958 499.981L161.025 500.032L180.99 513.69L181.006 513.701L186.952 517.57L186.954 517.582L186.96 517.611L186.965 517.641L186.973 517.674L186.98 517.707L186.99 517.735L186.997 517.764L187.009 517.796L187.019 517.829L187.031 517.856L187.042 517.884L187.057 517.915L187.07 517.946L187.085 517.972L187.098 517.999L187.115 518.028L187.132 518.058L187.149 518.082L187.165 518.108L187.185 518.135L187.205 518.163L187.224 518.186L187.242 518.209L187.265 518.234L187.287 518.26L187.308 518.281L187.329 518.303L187.354 518.326L187.379 518.349L187.402 518.368L187.425 518.388L187.452 518.408L187.479 518.429L187.504 518.445L187.528 518.463L187.557 518.48L187.586 518.498L243.398 550.813L243.511 550.872L243.63 550.919L243.753 550.954L243.878 550.977L244.006 550.988L244.133 550.986L244.26 550.971L244.385 550.945L244.507 550.906L244.624 550.855L244.736 550.793L244.841 550.721L244.939 550.638L245.028 550.546L245.107 550.446L245.176 550.339L245.235 550.226L245.282 550.107L245.317 549.984L245.34 549.858L245.351 549.731L245.349 549.603L245.335 549.476L245.308 549.351L245.269 549.23L245.218 549.113L245.156 549.001L245.084 548.896L245.001 548.798L244.909 548.709L244.809 548.63L244.702 548.56L189.46 516.575L188.872 511.259L192.003 503.589L192.045 503.471L192.075 503.349L192.094 503.225L192.1 503.1L192.094 502.974L192.077 502.85L192.047 502.729L192.006 502.61L191.953 502.496L191.89 502.388L191.817 502.286L191.734 502.192L191.643 502.106L191.544 502.03L158.758 479.128L167.99 466.876L183.509 463.752L183.641 463.718L183.768 463.671L199.893 456.707L200.012 456.648L200.125 456.577L200.23 456.495L200.326 456.403L200.412 456.301L209.472 444.411L214.582 448.489L245.502 475.87L260.27 488.945L258.89 496.998L258.886 497.025L257.789 504.367L252.462 539.958L252.453 540.029L250.555 560.225L151.075 507.975L150.959 507.921L150.839 507.879L150.715 507.849L150.588 507.831L150.461 507.826L150.333 507.833L150.207 507.853L150.083 507.884L149.963 507.928L149.848 507.984L149.739 508.05L149.637 508.127L149.543 508.214L149.458 508.309L149.382 508.412L149.318 508.522L149.264 508.638L149.222 508.759L149.192 508.883L149.174 509.009L149.168 509.137L149.176 509.264L149.195 509.391L149.227 509.514L149.271 509.634L149.327 509.749L149.393 509.858L149.47 509.96L149.556 510.054L149.652 510.14L149.755 510.215L149.865 510.28L250.467 563.12L252.062 575.166L218.561 640.011L200.07 626.513L199.96 626.441L199.842 626.38L199.719 626.332L199.592 626.296L173.715 620.399L169.416 614.593L175.922 588.319L175.947 588.192L175.959 588.062L175.958 587.932L175.944 587.802L175.917 587.675L175.878 587.551L175.826 587.431L175.763 587.317L175.688 587.211L175.604 587.112L175.51 587.022L175.407 586.942L175.297 586.872L126.619 559.468L126.505 559.411L126.385 559.366L126.262 559.332L126.136 559.31L126.009 559.301L125.881 559.305L125.754 559.321L125.63 559.349L125.509 559.39L125.392 559.442L125.281 559.505L125.177 559.579L125.08 559.662L124.993 559.755L124.914 559.856L124.846 559.964L124.789 560.078L124.743 560.198L124.71 560.321L124.688 560.447L124.679 560.574L124.683 560.702L124.698 560.829L124.727 560.953L124.767 561.075L124.819 561.191L124.883 561.302L124.956 561.406L125.04 561.503L125.133 561.591L125.234 561.669L125.342 561.737L173.157 588.655L166.742 614.562L166.717 614.687L166.705 614.814L166.705 614.941L166.718 615.068L166.743 615.192L166.78 615.314L166.828 615.432L166.888 615.544L166.959 615.65L171.909 622.336L171.993 622.438L172.087 622.531L172.189 622.614L172.3 622.686L172.417 622.746L172.539 622.795L172.666 622.831L198.752 628.774L217.475 642.442L211.102 660.879L211.065 661.007L211.042 661.139L211.031 661.272L211.035 661.405L211.052 661.538L211.083 661.668L215.208 675.83L215.251 675.953L215.305 676.071L215.372 676.183L215.449 676.287L215.535 676.384L215.632 676.471L215.736 676.549L215.848 676.615L249.637 694.55L249.751 694.604L249.87 694.646L249.992 694.677L250.117 694.696L250.243 694.702L290.761 694.855L294.418 708.079L331.55 842.315L306.327 851.368L269.811 843.232L228.681 831.858L196.795 815.727L179.944 801.312L179.943 801.312L161.829 785.821L161.765 785.77L111.222 747.773L111.093 747.687L45.317 709.536L19.002 683.94V687.572L43.617 711.514L43.6965 711.585L43.7815 711.65L43.8715 711.707L109.72 749.9L160.168 787.827L178.251 803.29L195.222 817.807L195.346 817.901L195.48 817.98L227.622 834.24L227.74 834.292L227.862 834.333L269.148 845.75L269.212 845.766L306.129 853.991L306.25 854.012L306.372 854.022L306.494 854.02L306.615 854.006L306.735 853.982L306.852 853.946L331.963 844.933L332.894 856.755L326.858 867.71L305.217 878.974L250.403 874.086L250.269 874.081L250.135 874.09L240.691 875.205L224.227 872.261L224.087 872.244L223.946 872.242L223.805 872.255L201.199 875.626L189.907 874.892L171.708 862.525L171.565 862.44L156.26 854.677L156.151 854.628L156.038 854.589L155.921 854.561L150.245 853.45L136.793 845.22L111.935 827.443L111.819 827.369L86.3589 812.946L86.2435 812.888L86.123 812.841L85.9986 812.807L85.8713 812.786L85.7425 812.777L85.6135 812.781L85.4855 812.797L85.3598 812.827L85.2376 812.868L85.1201 812.922L85.0085 812.986L63.5734 826.9L58.5737 822.201L58.4765 822.118L58.3715 822.045L58.26 821.983L58.1429 821.932L58.0213 821.893L57.8965 821.866L57.7696 821.851L57.6419 821.848L57.5146 821.859L57.3888 821.881L57.2659 821.916L57.1471 821.963L57.0333 822.021L56.9258 822.09L56.8256 822.169L56.7337 822.258L56.6508 822.355L56.578 822.46L56.5157 822.572L56.4647 822.689L56.4254 822.81L56.3982 822.935L56.3834 823.062L56.3811 823.19L56.3913 823.317L56.4139 823.443L56.4488 823.566L56.4955 823.685L56.5537 823.798L56.6227 823.906L56.7019 824.006L56.7906 824.098L62.5342 829.497L62.6282 829.577L62.7294 829.648L62.8369 829.709L62.9497 829.76L63.0668 829.799L63.1871 829.828L63.3096 829.845L63.4332 829.85L63.5566 829.843L63.6789 829.825L63.7989 829.795L63.9155 829.754L64.0278 829.702L64.1345 829.64L85.7632 815.6L110.476 829.601L135.316 847.365L135.394 847.416L147.825 855.022L142.445 861.728L142.416 861.768L142.374 861.825L133.667 875.024L133.604 875.129L133.552 875.24L133.51 875.356L133.479 875.475L133.46 875.596L131.484 893.288L131.476 893.412L131.48 893.537L131.495 893.66L131.523 893.781L131.562 893.899L141.136 918.847L141.187 918.964L141.25 919.075L141.323 919.18L141.407 919.277L141.499 919.365L141.6 919.444L141.707 919.512L141.821 919.57L141.94 919.616L142.064 919.651L142.189 919.673L142.317 919.682L142.444 919.679L142.571 919.664L142.696 919.636L142.817 919.596L142.934 919.545L143.045 919.482L143.15 919.409L143.247 919.325L143.335 919.233L143.414 919.132L143.482 919.025L143.54 918.911L143.586 918.791L143.621 918.668L143.643 918.543L143.652 918.415L143.649 918.287L143.634 918.161L143.606 918.036L143.566 917.915L134.106 893.262L136.013 876.196L143.707 864.531L145.405 866.083L184.156 907.114L184.251 907.204L184.354 907.284L184.464 907.354L184.581 907.412L184.703 907.459L184.83 907.493L184.958 907.514L185.089 907.521L185.219 907.516L185.349 907.498L185.476 907.467L185.599 907.423L185.717 907.368L185.829 907.3L185.934 907.222L186.03 907.134L191.27 901.818L191.355 901.723L191.431 901.62L191.496 901.51L191.549 901.394L191.592 901.273L191.622 901.149L191.64 901.023L191.645 900.895L191.638 900.767L191.618 900.641L191.586 900.518L191.542 900.397L191.487 900.282L191.42 900.173L191.344 900.071L191.257 899.977L191.162 899.892L191.059 899.817L190.949 899.752L190.833 899.698L190.712 899.656L190.588 899.626L190.462 899.608L190.334 899.603L190.206 899.61L190.08 899.629L189.956 899.661L189.836 899.705L189.721 899.761L189.612 899.827L189.51 899.904L189.416 899.99L185.123 904.345L147.265 864.26L147.197 864.193L145.239 862.405L150.288 856.112L155.244 857.081L170.314 864.725L188.737 877.245L188.855 877.317L188.981 877.375L189.112 877.42L189.247 877.451L189.384 877.467L201.169 878.233L201.307 878.234L201.445 878.221L223.978 874.862L238.906 877.531L234.903 888.67L234.865 888.796L234.84 888.925L234.828 889.056L234.829 889.187L234.843 889.318L234.871 889.446L234.911 889.571L238.813 899.892L238.852 899.984L238.898 900.073L251.6 922.521L254.088 936.008L253.997 937.851L239.645 947.14L227.916 943.57L221.154 936.587L204.296 919.168L204.203 919.081L204.101 919.003L203.993 918.935L203.878 918.879L203.759 918.834L203.635 918.801L203.509 918.78L203.382 918.772L203.254 918.776L203.128 918.793L203.003 918.822L202.882 918.863L202.766 918.915L202.655 918.979L202.551 919.054L202.455 919.138L202.368 919.231L202.29 919.332L202.223 919.441L202.166 919.555L202.121 919.675L202.088 919.798L202.067 919.925L202.059 920.052L202.063 920.18L202.08 920.306L202.109 920.431L202.15 920.552L202.203 920.668L202.267 920.779L202.341 920.883L202.425 920.979L218.569 937.66L198.483 952.978L198.418 953.033L198.359 953.094L198.306 953.161L198.259 953.232L198.22 953.308L198.189 953.387L198.165 953.469L198.15 953.553L198.142 953.638L198.144 953.723L198.153 953.807L198.171 953.891L198.197 953.972L198.23 954.05L198.271 954.125L198.32 954.195L198.375 954.26L198.436 954.319L198.502 954.372L198.574 954.419L198.649 954.458L198.728 954.489L198.81 954.513L198.894 954.529L198.979 954.536L199.064 954.535L199.149 954.525L199.232 954.507L199.313 954.482L199.391 954.448L199.466 954.407L199.536 954.359L219.784 938.915L226.28 945.623L226.376 945.713L226.481 945.793L226.593 945.861L226.712 945.918L226.836 945.963L239.012 949.668L263.881 987.889L263.956 987.992L264.04 988.088L264.134 988.175L264.236 988.252L264.345 988.319L264.459 988.375L264.579 988.42L264.703 988.452L264.829 988.472L264.956 988.48L265.084 988.476L265.21 988.458L265.335 988.429L265.456 988.387L265.572 988.334L265.682 988.27L265.786 988.195L265.881 988.11L265.968 988.017L266.046 987.915L266.113 987.806L266.169 987.691L266.213 987.572L266.246 987.448L266.266 987.322L266.274 987.195L266.269 987.067L266.252 986.94L266.222 986.816L266.181 986.695L266.128 986.579L266.063 986.469L241.648 948.945L253.837 941.056L253.804 941.706L253.804 941.748L253.803 941.79L253.804 941.812L253.804 941.834L253.808 941.876L253.811 941.918L253.815 941.94L253.817 941.961L253.825 942.003L253.832 942.044L253.837 942.065L253.841 942.087L253.854 942.127L253.864 942.168L253.872 942.188L253.878 942.209L253.894 942.248L253.909 942.287L262.095 961.272L262.153 961.391L273.38 981.506L273.447 981.612L287.393 1001.77L289.962 1006.51L290.841 1011.67L286.631 1032L275.044 1057.21L271.645 1061.67ZM343.987 350.314L346.708 351.193L347.015 354.99L347.016 354.995L347.016 355L347.254 357.585L347.257 357.614L347.789 361.86L347.802 361.937L348.642 365.778L348.648 365.8L348.653 365.822L348.659 365.841L348.665 365.86L348.673 365.882L348.68 365.903L348.688 365.921L348.695 365.94L348.705 365.96L348.714 365.981L348.724 365.999L348.733 366.016L348.745 366.036L348.756 366.055L350.29 368.49L350.352 368.576L350.425 368.654L354.32 372.381L354.379 372.432L354.443 372.478L354.51 372.518L354.581 372.552L354.655 372.58L356.225 373.084L356.324 373.109L356.425 373.123L359.315 373.341L359.382 373.344L359.448 373.341L376.096 372.054L395.163 371.451L395.181 371.45L401.278 371.132L405.958 373.068L406.903 373.963L396.073 401.515L394.866 404.42L381.844 435.805L381.835 435.83L381.825 435.855L379.776 441.428L376.305 450.875L376.304 450.878L376.303 450.882L376.265 451.004L376.264 451.013L376.261 451.021L376.256 451.052L376.24 451.13L376.238 451.152L376.235 451.17L374.527 465.511L374.522 465.576L374.52 465.597L374.52 465.603L374.519 465.61L374.031 477.2L374.031 477.302L374.039 477.403L381.514 542.468L381.519 542.505L381.519 542.509L381.52 542.511L381.521 542.518L386.04 571.822L386.076 571.985L396.951 609.651L397.016 609.827L417.035 654.006L417.08 654.094L417.13 654.179L439.17 688.031L431.727 693.658L366.251 690.578L362.533 687.791L362.488 647.246V647.245L362.446 629.961L362.441 629.873L362.428 629.786L351.782 578.61L351.774 578.581L351.768 578.552L333.578 513.645L333.554 513.571L333.523 513.499L304.792 454.483L293.866 415.359L293.938 414.282L293.941 414.154L293.93 414.026L293.908 413.901L293.873 413.778L293.826 413.659L293.768 413.545L293.699 413.438L293.62 413.338L293.531 413.246L293.49 413.211L293.008 385.432L299.002 371.509L299.017 371.471L299.031 371.432L299.032 371.431L299.032 371.43L299.043 371.389L299.054 371.349L299.054 371.348L299.054 371.347L299.061 371.306L299.067 371.265L299.067 371.264L299.068 371.263L299.07 371.222L299.073 371.18L299.361 353.637L299.357 353.54L298.79 347.579L301.367 349.296L301.387 349.308L301.406 349.321L301.423 349.33L301.44 349.34L301.461 349.35L301.481 349.361L301.499 349.368L301.517 349.377L301.539 349.384L301.56 349.393L301.579 349.398L301.597 349.405L301.619 349.411L301.641 349.417L301.661 349.421L301.68 349.426L301.703 349.429L301.725 349.433L301.745 349.435L301.764 349.438L301.787 349.439L301.81 349.441L329.584 350.674L330.486 353.744L330.521 353.841L331.997 357.296L332.03 357.365L332.068 357.43L333.287 359.294L333.349 359.378L333.42 359.453L333.795 359.803L333.863 359.861L333.936 359.911L334.015 359.953L334.097 359.987L334.182 360.013L334.27 360.029L334.358 360.037L334.447 360.035L334.924 360.002L335.006 359.993L335.086 359.975L335.165 359.95L335.241 359.918L335.313 359.879L335.382 359.833L335.446 359.78L335.704 359.547L335.759 359.492L335.81 359.432L337.6 357.105L337.647 357.037L337.688 356.965L339.178 353.99L339.226 353.873L340.26 350.732L341.382 350.231L343.987 350.314ZM432.518 695.236L432.521 695.234L432.523 695.232L440.155 689.462L446.763 698.591L435.257 698.449L365.846 695.187L365.259 695.15L348.9 693.184L351.949 690.737L361.442 689.142L365.423 692.127L365.426 692.129L365.428 692.131L365.461 692.153L365.494 692.175L365.497 692.176L365.499 692.178L365.534 692.197L365.569 692.215L365.572 692.217L365.575 692.218L365.611 692.233L365.647 692.248L365.65 692.249L365.653 692.251L365.691 692.262L365.729 692.274L365.732 692.274L365.735 692.275L365.774 692.283L365.812 692.291L365.815 692.291L365.818 692.292L365.858 692.295L365.897 692.299H365.9L365.903 692.3L431.959 695.407H431.962L431.965 695.407L432.005 695.407L432.044 695.406L432.047 695.406H432.051L432.09 695.402L432.129 695.398L432.132 695.397L432.135 695.397L432.174 695.389L432.213 695.381L432.216 695.38L432.219 695.38L432.256 695.368L432.294 695.356L432.297 695.355L432.3 695.354L432.336 695.339L432.373 695.324L432.375 695.322L432.378 695.321L432.413 695.302L432.448 695.283L432.45 695.282L432.453 695.28L432.486 695.258L432.518 695.236ZM435.157 701.051L435.18 701.051L435.202 701.052L448.951 701.221L487.688 725.683L487.792 725.742L487.901 725.792L551.358 751.059L551.474 751.099L551.593 751.128L551.715 751.145L612.122 756.926L612.258 756.932L612.394 756.924L670.926 750.218L711.745 745.641L713.389 747.025L672.534 752.507L612.376 759.415L551.997 752.936L486.473 729.574L438.838 704.205L438.819 704.196L438.8 704.186L438.78 704.178L438.761 704.169L438.741 704.162L438.721 704.153L438.701 704.147L438.681 704.14L438.66 704.135L438.639 704.129L438.619 704.125L438.598 704.12L438.577 704.117L438.556 704.112L438.535 704.11L438.514 704.107L438.492 704.106L438.471 704.104L365.628 700.683L364.377 700.623L364.304 700.623L357.701 700.862L357.422 700.678L357.31 700.613L347.888 695.685L364.985 697.739L365.059 697.746L365.694 697.786L365.704 697.786L365.714 697.787L435.157 701.051ZM296.962 346.683L297.625 353.656L297.34 370.98L291.34 384.918L291.308 385.004L291.286 385.093L291.273 385.184L291.27 385.276L291.755 413.241L291.691 413.303L291.608 413.4L291.535 413.505L291.473 413.616L291.422 413.733L291.383 413.855L291.356 413.98L291.341 414.107L288.804 451.779L281.846 476.779L270.271 493.525L262.22 501.368L260.75 502.167L261.459 497.424L262.944 488.755L272.607 457.673L272.639 457.549L272.658 457.423L272.666 457.296L272.66 457.168L272.642 457.041L272.612 456.917L272.57 456.797L272.516 456.681L272.451 456.571L272.376 456.468L272.351 456.44L286.891 346.283L296.962 346.683ZM291.377 452.219L291.393 452.087L293.516 420.558L303.142 455.025L303.166 455.1L303.197 455.172L331.928 514.189L350.089 578.992L360.71 630.053L360.752 647.249L360.797 687.491L351.438 689.063L351.352 689.082L351.268 689.11L351.187 689.146L351.11 689.19L351.039 689.242L346.488 692.895L346.428 692.888L346.288 692.878L342.126 692.831L293.418 692.274L299.933 666.367L299.959 666.233L299.971 666.097L299.969 665.96L296.878 621.215L296.862 621.082L296.832 620.952L296.789 620.825L296.733 620.703L296.665 620.587L270.596 581.157L270.537 581.076L270.473 580.999L270.321 580.832L268.615 550.442L272.075 495.403L272.178 495.301L272.264 495.209L272.341 495.109L284.112 478.079L284.188 477.956L284.249 477.825L284.295 477.688L291.348 452.348L291.377 452.219ZM305.365 706.721L296.671 706.459L293.469 694.879L340.765 695.42L340.342 707.752L305.365 706.721ZM268.48 582.677L294.304 621.737L297.357 665.933L290.739 692.252L250.574 692.1L217.554 674.574L213.698 661.338L220.22 642.472L254.563 575.998L254.617 575.877L254.659 575.752L254.688 575.624L254.704 575.493L254.707 575.361L254.697 575.229L253.505 566.231L268.48 582.677ZM266.879 550.385L266.879 550.488L268.468 578.797L253.019 561.83L255.042 540.308L260.268 505.393L263.621 503.57L263.723 503.508L263.819 503.437L263.908 503.358L270.222 497.207L266.879 550.385ZM162.075 498.647L145.256 481.515L145.428 476.168L174.47 433.637L186.286 425.914L207.437 442.787L198.548 454.452L182.861 461.227L166.991 464.421L166.86 464.455L166.734 464.502L166.612 464.561L166.498 464.633L166.392 464.717L166.295 464.811L166.208 464.914L155.866 478.639L155.793 478.748L155.731 478.863L155.681 478.983L155.643 479.108L155.618 479.236L155.606 479.367L155.606 479.497L155.62 479.627L155.647 479.755L155.687 479.879L155.739 479.999L155.803 480.113L155.878 480.221L155.963 480.32L156.057 480.41L156.161 480.49L189.2 503.568L186.336 510.581L186.293 510.703L186.263 510.829L186.245 510.958L186.24 511.087L186.248 511.216L186.703 515.337L181.961 512.252L162.075 498.647ZM244.429 405.139L252.684 394.495L260.332 394.051L260.455 394.038L260.577 394.013L260.696 393.977L260.811 393.929L260.831 393.918L268.295 396.924L268.911 413.831L268.092 425.483L263.096 442.591L250.119 461.346L250.077 461.414L250.041 461.485L250.011 461.559L246.118 472.937L217.243 447.368L238.953 422.099L239.033 421.996L239.103 421.884L239.161 421.767L239.207 421.644L244.429 405.139ZM391.805 540.586L383.962 540.961L376.637 477.208L377.06 467.169L389.288 469.023L389.415 469.036L389.542 469.036L389.669 469.024L389.795 468.999L389.917 468.963L390.035 468.914L390.148 468.854L390.255 468.784L390.354 468.703L390.444 468.613L390.526 468.515L390.597 468.409L390.657 468.296L390.707 468.178L390.744 468.056L390.77 467.931L392.884 454.006L399.646 452.06L399.682 452.047L399.718 452.035L399.722 452.034L399.726 452.032L399.761 452.016L399.796 452.001L399.8 451.999L399.804 451.997L399.837 451.978L399.87 451.959L399.873 451.956L399.877 451.954L399.908 451.932L399.939 451.91L399.943 451.907L399.947 451.904L399.975 451.879L400.004 451.854L400.007 451.851L400.01 451.848L400.036 451.82L400.063 451.793L405.146 445.902L411.108 440.986L411.163 440.936L411.214 440.881L411.261 440.822L414.872 435.792L414.908 435.738L414.94 435.681L425.036 415.934L439.015 393.212L439.056 393.137L439.09 393.058L439.115 392.977L440.896 386.16L457.009 373.249L464.934 367.247L468.034 365.563L469.149 365.389L470.192 365.641L472.639 366.434L475.128 368.926L466.508 375.294L466.423 375.366L451.847 389.332L451.766 389.422L439.369 405.167L439.322 405.232L426.452 425.094L426.413 425.162L414.85 447.123L414.8 447.238L407.218 468.65L407.193 468.736L404.216 481.008L404.199 481.098L404.192 481.189L404.194 481.28L405.289 495.402L405.302 495.499L405.326 495.594L405.36 495.686L410.984 508.408L411.037 508.509L419.056 521.657L419.111 521.735L419.173 521.808L419.243 521.873L419.32 521.93L421.079 523.087L421.821 528.021L421.838 528.105L421.863 528.188L421.897 528.268L421.938 528.343L421.987 528.415L422.042 528.481L422.104 528.541L422.171 528.595L422.244 528.642L432.181 534.409L433.441 541.63L429.532 546.242L419.968 542.304L419.854 542.263L419.736 542.233L419.616 542.214L412.465 541.424L412.382 541.417L403.716 541.013L403.709 541.013L403.702 541.013L391.914 540.586L391.86 540.587L391.805 540.586ZM390.52 451.971L379.299 450.275L382.22 442.326L384.259 436.778L396.76 406.649L403.293 409.546L390.004 439.357L389.994 439.384L389.982 439.411L389.971 439.444L389.958 439.476L389.95 439.504L389.941 439.532L389.933 439.566L389.924 439.599L389.919 439.628L389.912 439.657L389.908 439.691L389.902 439.725L389.899 439.754L389.896 439.783L389.895 439.818L389.892 439.853L389.893 439.882L389.892 439.911L389.894 439.946L389.895 439.98L389.898 440.009L389.9 440.038L390.915 448.723L390.52 451.971ZM398.482 402.502L398.487 402.491L398.492 402.479L408.835 376.162L411.693 379.741L411.712 379.763L411.729 379.784L411.739 379.793L411.748 379.803L411.77 379.824L411.79 379.844L411.799 379.851L411.808 379.86L411.833 379.879L411.856 379.898L411.865 379.904L411.874 379.911L411.902 379.928L411.927 379.945L411.935 379.949L411.944 379.955L411.975 379.97L412.002 379.985L412.01 379.988L412.018 379.992L412.052 380.005L412.081 380.017L412.088 380.019L412.095 380.022L412.131 380.033L412.162 380.042L412.168 380.043L412.175 380.045L439.064 386.305L437.469 392.413L423.539 415.054L423.506 415.114L413.424 434.833L409.916 439.718L403.985 444.609L403.93 444.658L403.88 444.712L398.917 450.463L393.123 452.131L393.518 448.883L393.528 448.729L393.519 448.575L393.466 448.119L395.629 443.47L395.629 443.47L410.136 412.238L410.137 412.237L410.137 412.237L410.613 411.21L410.646 411.128L410.67 411.044L410.686 410.958L410.693 410.87L410.691 410.783L410.681 410.695L410.661 410.61L410.633 410.527L410.597 410.447L410.553 410.371L410.501 410.3L410.443 410.235L410.378 410.175L410.308 410.123L410.232 410.078L410.153 410.041L406.237 408.446L406.228 408.417L406.176 408.3L406.113 408.189L406.039 408.084L405.956 407.987L405.863 407.899L405.763 407.82L405.654 407.752L405.54 407.694L397.759 404.244L398.482 402.502ZM392.528 440.091L405.865 410.169L408.656 411.305L408.562 411.507L394.055 442.738L393.082 444.83L392.528 440.091ZM388.391 466.254L377.262 464.567L378.661 452.812L390.168 454.55L388.391 466.254ZM379.972 338.224L393.824 369.757L376.021 370.32L375.982 370.322L359.38 371.606L356.658 371.4L355.375 370.988L351.702 367.474L350.305 365.259L349.506 361.605L348.981 357.412L348.745 354.845L348.419 350.82L349.44 349.553L351.167 348.75L379.972 338.224ZM395.689 369.686L381.239 336.794L378.693 330.429L427.024 306.348L438.994 322.47L438.385 336.391L428.783 355.524L412.345 377.775L409.547 374.273L409.562 374.161L409.566 374.033L409.557 373.905L409.536 373.779L409.503 373.656L409.458 373.537L409.401 373.422L409.333 373.314L409.255 373.213L409.168 373.12L409.072 373.035L408.968 372.961L408.857 372.898L408.741 372.845L408.62 372.804L408.495 372.775L408.368 372.759L408.241 372.755L408.158 372.761L407.034 371.697L406.974 371.645L406.91 371.599L406.841 371.559L406.769 371.526L401.761 369.453L401.688 369.427L401.614 369.407L401.538 369.394L401.461 369.388L401.384 369.388L395.689 369.686ZM644.486 596.283L644.464 596.275L538.249 561.166L437.738 520.866L422.537 509.106L415.223 495.646L412.465 481.314L417.039 461.055L421.325 450.004L433.885 425.838L453.747 397.491L480.734 375.515L502.534 363.718L502.651 364.095L502.663 364.128L502.674 364.16L505.01 370.028L505.019 370.046L505.026 370.065L505.036 370.085L505.046 370.106L505.056 370.123L505.065 370.141L505.33 370.601L485.128 383.51L484.979 383.611L476.039 390.102L475.804 390.291L457.835 406.292L457.577 406.552L457.351 406.841L441.493 429.939L441.367 430.137L441.258 430.345L426.13 461.895L426.012 462.177L425.923 462.469L425.863 462.769L423.459 479.221L423.429 479.541L423.434 479.861L423.472 480.18L425.613 492.52L425.691 492.854L425.805 493.178L425.956 493.486L431.826 503.957L431.983 504.208L432.163 504.442L432.365 504.657L432.588 504.852L444.792 514.532L445.051 514.717L445.329 514.873L459.159 521.738L459.418 521.852L676.138 605.314L688.747 611.036L676.64 607.475L644.509 596.29L644.486 596.283ZM536.076 566.84L536.253 566.904L642.535 602.035L674.713 613.236L674.854 613.282L728.509 629.063L768.981 644.085L769.168 644.148L772.637 645.185L776.045 648.109L707.983 625.334L707.965 625.328L653.313 608.323L557.856 576.345L557.855 576.345L502.646 557.917L449.961 536.136L432.531 528.559L422.357 521.85L420.437 520.587L412.548 507.654L407.008 495.12L405.935 481.283L408.869 469.188L409.161 468.363L406.399 480.595L406.346 480.903L406.325 481.216L406.336 481.528L406.379 481.838L409.347 497.256L409.421 497.558L409.526 497.851L409.661 498.132L417.504 512.568L417.668 512.836L417.86 513.086L418.076 513.315L418.314 513.52L434.356 525.93L434.585 526.092L434.829 526.231L435.084 526.347L536.076 566.84ZM477.348 370.455L477.12 370.624L455.542 388.196L467.584 376.657L476.969 369.723L477 369.699L480.761 366.654L500.109 355.846L500.709 357.798L477.592 370.308L477.348 370.455ZM653.205 283.827L502.285 357.017L501.678 355.042L532.276 341.251L532.299 341.24L600.218 308.188L600.249 308.173L650.898 280.953L679.2 268.047L679.261 268.016L689.66 262.248L689.721 262.211L707.168 250.556L702.865 255.032L691.158 263.763L678.355 270.777L653.205 283.827ZM504.095 362.891L653.986 290.2L645.741 296.793L506.831 369.73L506.6 369.328L504.299 363.55L504.095 362.891ZM504.963 378.044L504.774 378.825L498.858 381.945L504.963 378.044ZM711.205 246.357L708.966 248.686L717.327 238.525L723.187 231.575L718.529 237.373L711.205 246.357ZM726.013 145.354L709.848 152.095L719.764 138.08L726.013 145.354Z" fill="#A89474"/>
<path fill-rule="evenodd" clip-rule="evenodd" d="M19.002 217.067V219.08L47.2854 202.448L127.002 165.187L189.8 139.742L256.618 118.538L256.697 118.509L256.771 118.472L256.843 118.429L256.909 118.379L256.971 118.323L257.027 118.261L257.076 118.194L257.119 118.123L257.155 118.048L257.184 117.97L261.021 105.725L261.043 105.643L261.056 105.559L261.061 105.474L261.058 105.389L261.046 105.305L261.026 105.223L260.998 105.142L260.963 105.065L260.92 104.992L260.87 104.923L260.814 104.859L260.752 104.802L260.684 104.75L260.612 104.706L260.535 104.668L260.456 104.639L260.374 104.617L260.29 104.603L191.615 96.8906L191.521 96.8851L155.339 96.7539L155.267 96.7566L155.197 96.7651L155.127 96.7794L59.2733 120.535L59.186 120.562L59.1019 120.597L19.002 140.139V142.07L59.7798 122.198L155.44 98.4899L191.468 98.6206L259.05 106.211L255.663 117.02L189.243 138.098L189.18 138.121L126.329 163.587L126.288 163.605L46.5134 200.893L46.441 200.931L19.002 217.067Z" fill="#A89474"/>
<path fill-rule="evenodd" clip-rule="evenodd" d="M772.701 589.352L772.818 589.405L772.939 589.445L773.063 589.474L773.19 589.49L789.481 590.765L789.528 590.767V588.157L773.393 586.894L773.266 586.891L773.138 586.899L773.012 586.921L772.889 586.954L772.77 587L772.655 587.057L772.547 587.125L772.446 587.203L772.353 587.29L772.269 587.387L772.195 587.491L772.132 587.602L772.079 587.718L772.039 587.839L772.01 587.964L771.994 588.091L771.99 588.218L771.999 588.346L772.02 588.472L772.054 588.595L772.099 588.714L772.156 588.829L772.224 588.937L772.302 589.038L772.39 589.131L772.486 589.215L772.59 589.289L772.701 589.352Z" fill="#A89474"/>
</g>
</g>
</g>
<defs>
<radialGradient id="paint0_radial_502_19551" cx="0" cy="0" r="1" gradientUnits="userSpaceOnUse" gradientTransform="translate(404 524) rotate(90) scale(524 404)">
<stop offset="0.75" stop-color="white"/>
<stop offset="1" stop-color="white" stop-opacity="0"/>
</radialGradient>
<clipPath id="clip0_502_19551">
<rect width="770.527" height="973.665" fill="white" transform="translate(19 88)"/>
</clipPath>
</defs>
</svg>
