<svg width="1440" height="360" viewBox="0 0 1440 360" fill="none" xmlns="http://www.w3.org/2000/svg">
<path fill-rule="evenodd" clip-rule="evenodd" d="M1427.89 9.82453H1427.92V28.8874H1427.65V38.7119H1427.69V48.145H1427.42V57.7738H1427.35V67.4036H1427.17V86.6612H1427.07V96.29H1426.97V105.92H1426.8V115.549H1426.6V125.177H1426.46V134.806H1426.36V144.435H1426.12V154.065H1425.89V163.694H1425.55V173.322H1425.38V182.951H1425.18V192.581H1425.08V202.21H1424.6V211.839H1424.26V221.467H1423.99V231.096H1423.65V240.726H1423.31V250.355H1422.97V259.984H1422.6V269.612H1422.13V279.242H1420.49V269.612H1420.45V259.984H1420.05V250.355H1419.54V240.726H1419.2V231.096H1418.52V221.467H1417.91V211.839H1417.23V202.21H1416.83V192.581H1416.76V182.951H1416.39V173.322H1416.32V163.694H1416.18V154.065H1415.84V144.435H1415.81V134.806H1415.61V125.177H1415.37V115.549H1415.2V105.92H1415.03V96.29H1414.9V86.6612H1414.73V67.4036H1414.59V57.7738H1414.49V48.145H1414.25V28.8874H1413.94V19.4533H1414.01V9.62881H1413.81V19.4533H1413.88V28.8874H1413.57V48.145H1413.33V57.7738H1413.23V67.4036H1413.1V86.6612H1412.93V96.29H1412.79V105.92H1412.62V115.549H1412.45V125.177H1412.22V134.806H1412.01V144.435H1411.98V154.065H1411.64V163.694H1411.5V173.322H1411.44V182.951H1411.06V192.581H1410.99V202.21H1410.59V211.839H1409.91V221.467H1409.3V231.096H1408.62V240.726H1408.28V250.355H1407.78V259.984H1407.37V269.612H1407.34V279.242H1405.9V269.808H1406.41V259.984H1405.76V250.355H1405.32V240.726H1404.88V231.096H1403.9V221.467H1403.7V211.839H1403.12V202.21H1402.78V192.581H1402.65V182.951H1402.41V173.322H1402.04V163.694H1401.97V154.065H1401.66V144.435H1401.36V135.002H1401.39V125.177H1401.26V115.549H1401.09V105.92H1400.92V96.29H1400.85V86.6612H1400.61V77.2281H1400.65V67.4036H1400.41V57.7738H1400.27V48.145H1400.17V38.5162H1399.93V29.0831H1400.03V19.2586H1399.83V9.62881H1399.76V19.2586H1399.56V29.0831H1399.66V38.5162H1399.43V48.145H1399.32V57.7738H1399.19V67.4036H1398.95V77.2281H1398.98V86.6612H1398.74V96.29H1398.68V105.92H1398.51V115.549H1398.34V125.177H1398.2V135.002H1398.24V144.435H1397.93V154.065H1397.63V163.694H1397.56V173.322H1397.19V182.951H1396.95V192.581H1396.81V202.21H1396.48V211.839H1395.9V221.467H1395.7V231.096H1394.71V240.726H1394.27V250.355H1393.83V259.984H1393.19V269.808H1393.7V279.242H1392.54V288.871H1392.23V279.242H1392.12V269.612H1391.41V259.984H1390.97V250.355H1390.77V240.726H1390.19V231.096H1390.02V221.467H1389.55V211.839H1389.01V202.21H1388.74V192.581H1388.5V182.951H1388.26V173.322H1388.02V163.694H1387.96V154.065H1387.72V144.435H1387.55V134.806H1387.48V125.177H1387.21V115.549H1386.87V106.115H1386.97V96.29H1386.64V86.8569H1386.67V77.0324H1386.4V67.4036H1386.19V57.7738H1386.16V48.145H1385.95V38.5162H1385.92V28.8874H1385.82V19.2586H1385.79V9.62881H1385.72V0H1385.65V9.62881H1385.58V19.2586H1385.55V28.8874H1385.45V38.5162H1385.41V48.145H1385.21V57.7738H1385.18V67.4036H1384.97V77.0324H1384.7V86.8569H1384.73V96.29H1384.39V106.115H1384.5V115.549H1384.16V125.177H1383.89V134.806H1383.82V144.435H1383.65V154.065H1383.41V163.694H1383.34V173.322H1383.11V182.951H1382.87V192.581H1382.63V202.21H1382.36V211.839H1381.82V221.467H1381.35V231.096H1381.18V240.726H1380.6V250.355H1380.4V259.984H1379.96V269.612H1379.24V279.242H1378.62V269.612H1378.25V259.984H1377.13V250.355H1376.59V240.726H1376.25V231.096H1375.84V221.467H1375.37V211.839H1374.79V202.21H1374.62V192.581H1374.22V182.951H1374.08V173.322H1373.91V163.694H1373.71V154.065H1373.5V144.435H1373.44V134.806H1373.17V125.177H1372.89V115.549H1372.86V105.92H1372.66V96.29H1372.56V86.6612H1372.25V77.0324H1372.15V67.5983H1372.18V57.7738H1372.01V48.145H1371.91V38.5162H1371.77V28.8874H1371.67V19.2586H1371.47V28.8874H1371.37V38.5162H1371.23V48.145H1371.13V57.7738H1370.96V67.5983H1371V77.0324H1370.89V86.6612H1370.59V96.29H1370.48V105.92H1370.28V115.549H1370.25V125.177H1369.98V134.806H1369.71V144.435H1369.64V154.065H1369.43V163.694H1369.23V173.322H1369.06V182.951H1368.93V192.581H1368.52V202.21H1368.35V211.839H1367.77V221.467H1367.3V231.096H1366.89V240.726H1366.55V250.355H1366.01V259.984H1364.89V269.612H1364.52V279.242H1364.51V269.612H1363.9V259.984H1363.66V250.551H1363.8V240.726H1362.27V231.096H1361.9V221.467H1361.32V211.839H1360.88V202.21H1360.44V192.581H1360.3V182.951H1360.03V173.322H1359.97V163.694H1359.56V154.065H1359.36V144.435H1359.26V134.806H1359.05V125.177H1358.88V115.549H1358.78V105.92H1358.54V96.29H1358.34V77.0324H1358.27V67.4036H1357.93V57.7738H1357.83V48.145H1357.66V38.7119H1357.69V28.8874H1357.59V9.62881H1357.32V28.8874H1357.22V38.7119H1357.25V48.145H1357.08V57.7738H1356.98V67.4036H1356.64V77.0324H1356.57V96.29H1356.37V105.92H1356.13V115.549H1356.03V125.177H1355.86V134.806H1355.66V144.435H1355.56V154.065H1355.35V163.694H1354.95V173.322H1354.88V182.951H1354.61V192.581H1354.47V202.21H1354.03V211.839H1353.59V221.467H1353.02V231.096H1352.64V240.726H1351.12V250.551H1351.25V259.984H1351.02V269.612H1350.26V259.984H1350.02V250.355H1349.58V240.726H1349.44V231.096H1348.09V221.467H1347.48V211.839H1346.73V202.21H1346.4V192.581H1346.06V182.951H1345.99V173.322H1345.72V163.694H1345.48V154.065H1345.38V144.435H1345.04V134.806H1344.94V125.177H1344.67V115.549H1344.57V105.92H1344.53V96.29H1344.23V86.6612H1344.19V77.0324H1344.02V67.4036H1343.78V57.9695H1343.82V48.145H1343.62V38.5162H1343.48V28.8874H1343.45V19.2586H1343.24V28.8874H1343.21V38.5162H1343.07V48.145H1342.87V57.9695H1342.9V67.4036H1342.67V77.0324H1342.49V86.6612H1342.46V96.29H1342.16V105.92H1342.12V115.549H1342.02V125.177H1341.75V134.806H1341.65V144.435H1341.31V154.065H1341.21V163.694H1340.97V173.322H1340.7V182.951H1340.63V192.581H1340.29V202.21H1339.95V211.839H1339.21V221.467H1338.6V231.096H1337.24V240.726H1337.11V250.355H1336.67V259.984H1336.43V269.612H1336.18V259.984H1335.94V250.355H1335.77V240.726H1335.7V231.096H1335.03V221.467H1334.75V211.839H1334.31V202.21H1332.15V192.581H1331.94V182.951H1331.74V173.322H1331.5V163.694H1331.27V154.065H1331.13V144.435H1330.99V134.806H1330.89V125.177H1330.66V115.549H1330.45V105.92H1330.28V96.29H1330.22V86.6612H1329.94V77.0324H1329.91V67.4036H1329.7V48.145H1329.47V38.7119H1329.5V28.8874H1329.26V19.4533H1329.33V9.62881H1329.13V19.4533H1329.2V28.8874H1328.96V38.7119H1328.99V48.145H1328.76V67.4036H1328.55V77.0324H1328.52V86.6612H1328.25V96.29H1328.18V105.92H1328.01V115.549H1327.81V125.177H1327.57V134.806H1327.47V144.435H1327.33V154.065H1327.19V163.694H1326.96V173.322H1326.72V182.951H1326.52V192.581H1326.31V202.21H1324.15V211.839H1323.71V221.467H1323.43V231.096H1322.76V240.726H1322.69V250.355H1322.52V259.984H1322.28V269.612H1322.18V279.242H1321.69V269.808H1321.93V259.984H1321.59V240.726H1320.64V231.096H1319.8V221.467H1319.15V211.839H1318.54V202.21H1318.07V192.581H1317.76V182.951H1317.63V173.322H1317.49V163.694H1317.25V154.065H1316.98V144.435H1316.92V134.806H1316.71V125.177H1316.47V115.549H1316.34V105.92H1316.2V96.29H1315.93V86.6612H1315.83V77.0324H1315.63V67.5983H1315.79V57.7738H1315.49V48.145H1315.39V38.5162H1315.25V28.8874H1315.22V19.4533H1315.25V9.62881H1314.98V19.4533H1315.02V28.8874H1314.98V38.5162H1314.85V48.145H1314.74V57.7738H1314.44V67.5983H1314.61V77.0324H1314.4V86.6612H1314.3V96.29H1314.03V105.92H1313.9V115.549H1313.76V125.177H1313.52V134.806H1313.32V144.435H1313.25V154.065H1312.98V163.694H1312.74V173.322H1312.61V182.951H1312.47V192.581H1312.17V202.21H1311.69V211.839H1311.08V221.467H1310.44V231.096H1309.59V240.726H1308.64V259.984H1308.3V269.808H1308.54V279.242H1307.68V269.612H1307.34V260.179H1307.48V250.355H1306.19V240.921H1306.53V231.096H1305.21V221.467H1304.97V211.839H1304.46V202.21H1304.05V192.581H1303.51V173.322H1303.17V163.694H1303.11V154.065H1302.94V144.435H1302.56V134.806H1302.46V125.177H1302.36V115.549H1302.19V105.92H1302.09V96.29H1301.95V86.6612H1301.51V77.2281H1301.68V67.4036H1301.58V57.7738H1301.34V48.145H1301.27V38.5162H1301.21V28.8874H1300.8V38.5162H1300.73V48.145H1300.66V57.7738H1300.43V67.4036H1300.33V77.2281H1300.5V86.6612H1300.05V96.29H1299.92V105.92H1299.82V115.549H1299.65V125.177H1299.55V134.806H1299.44V144.435H1299.07V154.065H1298.9V163.694H1298.83V173.322H1298.49V192.581H1297.95V202.21H1297.55V211.839H1297.04V221.467H1296.8V231.096H1295.48V240.921H1295.82V250.355H1294.53V260.179H1294.67V269.612H1294.33V279.242H1293.09V269.612H1292.75V259.984H1292.52V250.355H1291.98V240.726H1291.57V231.096H1291.16V221.467H1290.89V211.839H1290.35V202.21H1289.94V192.581H1289.47V182.951H1289.26V173.518H1289.37V163.694H1288.89V154.065H1288.82V144.435H1288.59V134.806H1288.48V125.177H1288.25V115.549H1288.08V105.92H1287.94V86.6612H1287.74V77.0324H1287.47V67.4036H1287.36V57.7738H1287.23V48.145H1287.13V38.5162H1286.99V9.62881H1286.79V38.5162H1286.65V48.145H1286.55V57.7738H1286.42V67.4036H1286.31V77.0324H1286.04V86.6612H1285.84V105.92H1285.7V115.549H1285.53V125.177H1285.3V134.806H1285.19V144.435H1284.96V154.065H1284.89V163.694H1284.42V173.518H1284.52V182.951H1284.31V192.581H1283.84V202.21H1283.43V211.839H1282.89V221.467H1282.62V231.096H1282.21V240.726H1281.81V250.355H1281.26V259.984H1281.03V269.612H1280.69V279.242H1279.84V288.871H1279.39V279.242H1279.15V269.612H1278.74V259.984H1278.3V250.355H1277.93V240.726H1277.49V231.096H1276.98V221.467H1276.57V211.839H1276.1V202.21H1275.69V192.581H1275.39V182.951H1275.18V173.322H1275.01V163.694H1274.81V154.065H1274.71V144.435H1274.57V134.806H1274.34V125.177H1274.1V115.549H1274V105.92H1273.86V96.29H1273.63V86.6612H1273.35V77.2281H1273.39V67.4036H1273.22V48.145H1273.15V38.5162H1272.91V28.8874H1272.88V9.62881H1272.67V28.8874H1272.64V38.5162H1272.4V48.145H1272.34V67.4036H1272.17V77.2281H1272.2V86.6612H1271.93V96.29H1271.69V105.92H1271.56V115.549H1271.45V125.177H1271.22V134.806H1270.98V144.435H1270.84V154.065H1270.74V163.694H1270.54V173.322H1270.37V182.951H1270.17V192.581H1269.86V202.21H1269.45V211.839H1268.98V221.467H1268.57V231.096H1268.06V240.726H1267.62V250.355H1267.25V259.984H1266.81V269.612H1266.41V279.242H1266.17V288.871H1265.71V279.242H1265.34V269.612H1264.43V259.984H1263.99V250.355H1263.58V240.726H1263.24V231.096H1262.93V221.467H1262.43V211.839H1261.99V202.21H1261.48V192.581H1261.17V182.951H1261V173.322H1260.77V163.694H1260.67V154.065H1260.6V144.435H1260.36V134.806H1260.19V125.177H1260.09V115.549H1259.72V106.115H1259.85V96.29H1259.37V86.6612H1259.34V77.0324H1259.24V67.4036H1259.1V57.7738H1259.04V48.145H1259V38.5162H1258.8V28.8874H1258.7V19.2586H1258.63V28.8874H1258.53V38.5162H1258.33V48.145H1258.29V57.7738H1258.22V67.4036H1258.09V77.0324H1257.99V86.6612H1257.95V96.29H1257.48V106.115H1257.61V115.549H1257.24V125.177H1257.14V134.806H1256.97V144.435H1256.73V154.065H1256.66V163.694H1256.56V173.322H1256.32V182.951H1256.15V192.581H1255.85V202.21H1255.34V211.839H1254.9V221.467H1254.39V231.096H1254.09V240.726H1253.75V250.355H1253.34V259.984H1252.9V269.612H1251.99V279.242H1251.61V288.871H1251.38V298.5H1251.16V288.871H1250.65V279.242H1250.28V269.612H1250.07V259.984H1249.84V250.355H1249.4V240.726H1249.06V231.096H1248.79V221.467H1248.25V211.839H1247.77V202.21H1247.26V192.581H1247.03V182.951H1246.82V173.322H1246.69V163.694H1246.58V154.065H1246.42V144.435H1246.25V134.806H1245.98V125.373H1246.01V115.549H1245.64V105.92H1245.54V96.29H1245.4V86.6612H1245.16V77.0324H1245.02V57.7738H1244.99V48.145H1244.75V28.8874H1244.65V19.2586H1244.45V28.8874H1244.35V48.145H1244.11V57.7738H1244.08V77.0324H1243.94V86.6612H1243.7V96.29H1243.57V105.92H1243.46V115.549H1243.09V125.373H1243.12V134.806H1242.85V144.435H1242.68V154.065H1242.51V163.694H1242.41V173.322H1242.28V182.951H1242.07V192.581H1241.84V202.21H1241.33V211.839H1240.86V221.467H1240.31V231.096H1240.04V240.726H1239.7V250.355H1239.26V259.984H1239.02V269.612H1238.82V279.242H1238.45V288.871H1237.94V298.5H1237.53V308.129H1237.49V298.5H1237.21V288.871H1236.44V279.242H1236.16V269.612H1235.86V259.984H1235.52V250.355H1235.35V240.726H1234.91V231.096H1234.47V221.467H1233.86V211.839H1233.52V202.21H1233.18V192.581H1233.01V182.951H1232.71V173.322H1232.57V163.694H1232.47V154.065H1232.2V144.435H1232.1V134.806H1231.66V125.373H1231.73V115.549H1231.62V105.92H1231.39V96.29H1231.29V86.6612H1230.91V77.2281H1231.01V67.4036H1230.94V57.7738H1230.67V38.5162H1230.57V28.8874H1230.54V19.2586H1230.47V9.62881H1230.4V19.2586H1230.34V28.8874H1230.3V38.5162H1230.2V57.7738H1229.93V67.4036H1229.86V77.2281H1229.96V86.6612H1229.59V96.29H1229.49V105.92H1229.25V115.549H1229.15V125.373H1229.21V134.806H1228.77V144.435H1228.67V154.065H1228.4V163.694H1228.3V173.322H1228.16V182.951H1227.86V192.581H1227.69V202.21H1227.35V211.839H1227.01V221.467H1226.4V231.096H1225.96V240.726H1225.52V250.355H1225.35V259.984H1225.01V269.612H1224.71V279.242H1224.44V288.871H1224.05V279.242H1222.9V269.612H1221.88V259.984H1221.41V250.355H1221.14V240.726H1220.76V231.096H1220.22V221.467H1219.78V211.839H1219.31V202.21H1219.04V192.581H1218.83V182.951H1218.73V173.322H1218.36V163.694H1218.19V154.065H1218.02V144.435H1217.85V134.806H1217.68V125.177H1217.41V115.549H1217.21V105.92H1217.17V96.29H1217.14V86.6612H1217V77.0324H1216.83V67.4036H1216.7V57.7738H1216.53V38.5162H1216.42V28.8874H1216.22V38.5162H1216.12V57.7738H1215.95V67.4036H1215.81V77.0324H1215.65V86.6612H1215.51V96.29H1215.47V105.92H1215.44V115.549H1215.24V125.177H1214.97V134.806H1214.8V144.435H1214.63V154.065H1214.46V163.694H1214.29V173.322H1213.92V182.951H1213.81V192.581H1213.61V202.21H1213.34V211.839H1212.87V221.467H1212.43V231.096H1211.88V240.726H1211.51V250.355H1211.24V259.984H1210.76V269.612H1209.33V259.984H1208.82V250.355H1208.34V240.726H1206.72V231.096H1206.31V221.467H1205.9V211.839H1205.43V202.21H1204.96V192.581H1204.72V182.951H1204.62V173.322H1204.35V163.694H1204.11V154.065H1203.87V144.435H1203.67V134.806H1203.5V125.177H1203.43V115.549H1203.26V106.115H1203.33V96.29H1202.92V86.6612H1202.72V77.2281H1202.82V67.4036H1202.58V57.7738H1202.45V48.145H1202.41V38.5162H1202.24V29.0831H1202.31V19.2586H1202.11V29.0831H1202.18V38.5162H1202.01V48.145H1201.97V57.7738H1201.84V67.4036H1201.6V77.2281H1201.7V86.6612H1201.5V96.29H1201.09V106.115H1201.16V115.549H1200.99V125.177H1200.92V134.806H1200.75V144.435H1200.55V154.065H1200.31V163.694H1200.07V173.322H1199.8V182.951H1199.7V192.581H1199.46V202.21H1198.99V211.839H1198.51V221.467H1198.11V231.096H1197.7V240.726H1196.07V250.355H1195.6V259.984H1194.4V250.355H1193.15V240.921H1193.65V231.096H1192.2V221.467H1191.79V211.839H1191.25V202.21H1190.91V192.581H1190.57V182.951H1190.5V173.322H1189.96V154.065H1189.76V144.435H1189.62V134.806H1189.45V125.177H1189.39V115.549H1189.05V105.92H1188.98V96.29H1188.94V86.6612H1188.47V77.2281H1188.54V67.4036H1188.43V57.7738H1188.37V48.145H1188.2V38.5162H1188.13V28.8874H1188.06V38.5162H1187.99V48.145H1187.83V57.7738H1187.76V67.4036H1187.66V77.2281H1187.72V86.6612H1187.25V96.29H1187.21V105.92H1187.14V115.549H1186.81V125.177H1186.74V134.806H1186.57V144.435H1186.43V154.065H1186.23V173.322H1185.69V182.951H1185.62V192.581H1185.28V202.21H1184.94V211.839H1184.4V221.467H1183.99V231.096H1182.54V240.921H1183.05V250.355H1181.79V259.984H1180.94V269.612H1180.52V259.984H1179.85V250.355H1179.24V240.726H1178.56V231.096H1177.98V221.467H1177.61V211.839H1177.2V202.21H1176.7V192.581H1176.56V182.951H1176.36V173.322H1176.12V163.694H1175.85V154.065H1175.54V144.435H1175.51V134.806H1175.17V125.373H1175.2V115.549H1175.1V105.92H1174.97V96.29H1174.56V86.8569H1174.59V77.0324H1174.56V67.4036H1174.25V57.9695H1174.32V48.145H1174.08V38.5162H1174.02V19.2586H1173.95V38.5162H1173.88V48.145H1173.64V57.9695H1173.71V67.4036H1173.41V77.0324H1173.37V86.8569H1173.41V96.29H1173V105.92H1172.86V115.549H1172.76V125.373H1172.79V134.806H1172.46V144.435H1172.42V154.065H1172.12V163.694H1171.85V173.322H1171.61V182.951H1171.41V192.581H1171.27V202.21H1170.76V211.839H1170.36V221.467H1169.98V231.096H1169.41V240.726H1168.73V250.355H1168.12V259.984H1167.44V269.612H1167.37V279.242H1166.21V269.612H1165.97V259.984H1165.16V250.355H1164.78V240.726H1164.31V231.096H1163.77V221.467H1163.43V211.839H1163.09V202.21H1162.48V192.581H1162.45V182.951H1162.34V173.322H1162.01V163.694H1161.9V154.065H1161.57V144.435H1161.43V134.806H1161.23V125.177H1160.85V115.744H1160.99V105.92H1160.82V96.29H1160.55V86.6612H1160.38V77.2281H1160.45V67.4036H1160.21V57.7738H1160.14V48.145H1160.07V38.5162H1159.9V28.8874H1159.84V38.5162H1159.67V48.145H1159.6V57.7738H1159.53V67.4036H1159.29V77.2281H1159.36V86.6612H1159.19V96.29H1158.92V105.92H1158.75V115.744H1158.88V125.177H1158.51V134.806H1158.31V144.435H1158.17V154.065H1157.83V163.694H1157.73V173.322H1157.39V182.951H1157.29V192.581H1157.26V202.21H1156.65V211.839H1156.31V221.467H1155.97V231.096H1155.43V240.726H1154.95V250.355H1154.58V259.984H1153.77V269.612H1153.53V279.242H1153.35V269.612H1152.13V259.984H1151.38V250.355H1150.7V240.726H1150.13V231.096H1149.89V221.467H1149.18V211.839H1149.04V202.21H1148.57V192.581H1148.4V182.951H1147.89V173.322H1147.86V163.889H1147.89V154.065H1147.45V144.435H1147.42V134.806H1147.05V125.177H1146.88V115.549H1146.81V105.92H1146.37V96.4857H1146.43V86.8569H1146.47V77.0324H1146.2V67.4036H1146.13V57.7738H1145.86V48.145H1145.79V38.5162H1145.72V48.145H1145.65V57.7738H1145.38V67.4036H1145.32V77.0324H1145.04V86.8569H1145.08V96.4857H1145.15V105.92H1144.7V115.549H1144.64V125.177H1144.47V134.806H1144.09V144.435H1144.06V154.065H1143.62V163.889H1143.65V173.322H1143.62V182.951H1143.11V192.581H1142.94V202.21H1142.47V211.839H1142.33V221.467H1141.62V231.096H1141.38V240.726H1140.81V250.355H1140.13V259.984H1139.38V269.612H1137.51V259.984H1136.79V250.355H1136.49V240.726H1136.08V231.096H1135.78V221.467H1135.3V211.839H1134.86V202.21H1134.39V192.581H1134.05V182.951H1133.81V173.322H1133.58V163.694H1133.51V154.065H1133.41V144.435H1133.07V134.806H1132.76V125.177H1132.73V115.549H1132.69V105.92H1132.59V96.29H1132.32V86.6612H1132.12V77.0324H1132.08V67.4036H1131.98V57.7738H1131.85V48.145H1131.78V38.5162H1131.51V48.145H1131.44V57.7738H1131.3V67.4036H1131.2V77.0324H1131.17V86.6612H1130.97V96.29H1130.69V105.92H1130.59V115.549H1130.56V125.177H1130.52V134.806H1130.22V144.435H1129.88V154.065H1129.78V163.694H1129.71V173.322H1129.47V182.951H1129.23V192.581H1128.9V202.21H1128.42V211.839H1127.98V221.467H1127.51V231.096H1127.2V240.726H1126.8V250.355H1126.49V259.984H1125.78V269.612H1124.8V279.242H1124.39V288.871H1124.07V279.242H1123.63V269.612H1123.26V259.984H1122.78V250.355H1122.44V240.726H1121.97V231.096H1121.56V221.467H1121.09V211.839H1120.72V202.21H1120.17V192.581H1120.11V182.951H1119.8V173.322H1119.63V163.694H1119.33V154.065H1119.09V144.435H1118.89V134.806H1118.85V125.177H1118.58V115.744H1118.62V105.92H1118.24V96.29H1118.21V86.6612H1118.04V77.0324H1118V67.4036H1117.87V57.7738H1117.73V48.145H1117.66V38.5162H1117.39V48.145H1117.33V57.7738H1117.19V67.4036H1117.05V77.0324H1117.02V86.6612H1116.85V96.29H1116.82V105.92H1116.44V115.744H1116.48V125.177H1116.21V134.806H1116.17V144.435H1115.97V154.065H1115.73V163.694H1115.43V173.322H1115.26V182.951H1114.95V192.581H1114.88V202.21H1114.34V211.839H1113.97V221.467H1113.5V231.096H1113.09V240.726H1112.61V250.355H1112.27V259.984H1111.8V269.612H1111.43V279.242H1110.99V288.871H1110.68V298.5H1110.53V288.871H1109.89V279.242H1109.55V269.612H1108.97V259.984H1108.74V250.355H1108.09V240.726H1107.86V231.096H1107.31V221.467H1107.08V211.839H1106.4V202.21H1105.93V192.581H1105.76V182.951H1105.52V173.322H1105.42V163.694H1105.18V154.065H1104.94V144.435H1104.88V134.806H1104.7V125.177H1104.47V115.549H1104.4V105.92H1104.26V96.29H1104.03V86.6612H1103.89V77.0324H1103.79V67.4036H1103.69V57.7738H1103.65V48.145H1103.52V38.5162H1103.31V48.145H1103.18V57.7738H1103.14V67.4036H1103.04V77.0324H1102.94V86.6612H1102.81V96.29H1102.57V105.92H1102.43V115.549H1102.36V125.177H1102.13V134.806H1101.96V144.435H1101.89V154.065H1101.65V163.694H1101.41V173.322H1101.31V182.951H1101.08V192.581H1100.91V202.21H1100.43V211.839H1099.75V221.467H1099.52V231.096H1098.97V240.726H1098.74V250.355H1098.09V259.984H1097.86V269.612H1097.28V279.242H1096.94V288.871H1096.01V279.242H1095.84V269.612H1095.27V259.984H1094.72V250.355H1094.22V240.726H1093.78V231.096H1093.3V221.663H1093.34V211.839H1092.46V202.21H1091.91V192.581H1091.64V182.951H1091.4V173.322H1091.2V163.694H1091V154.065H1090.86V144.435H1090.63V125.177H1090.39V115.549H1090.19V105.92H1090.01V96.4857H1090.12V86.6612H1089.81V77.0324H1089.78V67.4036H1089.57V57.7738H1089.44V48.145H1089.4V38.5162H1089.34V28.8874H1089.27V38.5162H1089.2V48.145H1089.17V57.7738H1089.03V67.4036H1088.83V77.0324H1088.79V86.6612H1088.49V96.4857H1088.59V105.92H1088.42V115.549H1088.22V125.177H1087.98V144.435H1087.74V154.065H1087.61V163.694H1087.4V173.322H1087.2V182.951H1086.96V192.581H1086.69V202.21H1086.15V211.839H1085.27V221.663H1085.3V231.096H1084.83V240.726H1084.39V250.355H1083.88V259.984H1083.34V269.612H1082.76V279.242H1082.59V288.871H1082V279.242H1081.39V269.612H1081.19V259.984H1080.61V250.355H1080.21V240.726H1079.66V231.096H1079.32V221.467H1079.22V211.839H1078.82V202.21H1078.17V192.581H1077.53V182.951H1077.46V173.322H1077.12V163.694H1076.95V154.065H1076.78V144.435H1076.55V134.806H1076.41V125.177H1076.24V115.549H1076.17V105.92H1075.87V96.29H1075.8V86.6612H1075.7V77.0324H1075.53V67.4036H1075.46V57.7738H1075.39V48.145H1075.29V38.5162H1075.09V48.145H1074.99V57.7738H1074.92V67.4036H1074.85V77.0324H1074.68V86.6612H1074.58V96.29H1074.51V105.92H1074.2V115.549H1074.14V125.177H1073.97V134.806H1073.83V144.435H1073.59V154.065H1073.42V163.694H1073.26V173.322H1072.92V182.951H1072.85V192.581H1072.21V202.21H1071.56V211.839H1071.15V221.467H1071.05V231.096H1070.71V240.726H1070.17V250.355H1069.77V259.984H1069.19V269.612H1068.99V279.242H1067.45V269.612H1067.04V259.984H1066.57V250.355H1065.99V240.726H1065.65V231.096H1065.08V221.467H1064.87V211.839H1064.13V202.21H1063.79V192.581H1063.41V182.951H1063.21V173.322H1062.97V163.694H1062.94V154.065H1062.6V144.435H1062.43V134.806H1062.26V115.549H1062.03V105.92H1061.92V96.29H1061.65V86.6612H1061.58V77.0324H1061.41V57.7738H1061.18V48.145H1060.97V57.7738H1060.74V77.0324H1060.57V86.6612H1060.5V96.29H1060.23V105.92H1060.12V115.549H1059.89V134.806H1059.72V144.435H1059.55V154.065H1059.21V163.694H1059.18V173.322H1058.94V182.951H1058.73V192.581H1058.36V202.21H1058.02V211.839H1057.28V221.467H1057.08V231.096H1056.5V240.726H1056.16V250.355H1055.58V259.984H1055.11V269.612H1054.7V279.242H1053.4V269.612H1053.33V259.984H1053.2V250.355H1052.01V240.726H1051.54V231.096H1050.96V221.467H1050.59V211.839H1050.25V202.21H1049.57V192.581H1049.34V182.951H1049.1V173.322H1049.06V163.694H1048.73V154.065H1048.56V144.435H1048.42V134.806H1048.18V125.177H1047.95V115.549H1047.81V105.92H1047.57V96.29H1047.44V86.6612H1047.33V67.4036H1047.17V48.145H1047V38.5162H1046.93V48.145H1046.76V67.4036H1046.59V86.6612H1046.49V96.29H1046.35V105.92H1046.11V115.549H1045.98V125.177H1045.74V134.806H1045.5V144.435H1045.37V154.065H1045.2V163.694H1044.86V173.322H1044.83V182.951H1044.59V192.581H1044.35V202.21H1043.67V211.839H1043.33V221.467H1042.96V231.096H1042.39V240.726H1041.91V250.355H1040.72V259.984H1040.59V269.612H1040.52V279.242H1039.15V269.612H1038.71V259.984H1038.37V250.355H1037.9V240.726H1037.46V231.096H1036.95V221.467H1036.48V211.839H1035.93V202.21H1035.46V192.581H1035.19V182.951H1035.09V173.322H1034.65V154.065H1034.41V144.435H1034.31V134.806H1033.97V105.92H1033.53V96.29H1033.32V86.6612H1033.22V77.0324H1033.12V67.4036H1033.09V57.7738H1033.05V48.145H1032.64V57.7738H1032.61V67.4036H1032.58V77.0324H1032.48V86.6612H1032.37V96.29H1032.17V105.92H1031.73V134.806H1031.39V144.435H1031.29V154.065H1031.05V173.322H1030.61V182.951H1030.51V192.581H1030.24V202.21H1029.76V211.839H1029.22V221.467H1028.75V231.096H1028.24V240.726H1027.8V250.355H1027.32V259.984H1026.98V269.612H1026.54V279.242H1026.22V269.612H1025.45V259.984H1024.36V250.355H1023.89V240.726H1023.41V231.096H1022.77V221.467H1022.29V211.839H1021.72V202.21H1021.35V192.581H1021.01V182.951H1020.84V173.322H1020.6V163.889H1020.63V154.065H1020.3V144.435H1020.16V134.806H1019.96V125.177H1019.82V115.549H1019.58V105.92H1019.41V96.29H1019.34V86.6612H1019.18V77.0324H1019.11V67.4036H1019.01V57.7738H1018.77V48.145H1018.7V57.7738H1018.46V67.4036H1018.36V77.0324H1018.29V86.6612H1018.12V96.29H1018.06V105.92H1017.89V115.549H1017.65V125.177H1017.51V134.806H1017.31V144.435H1017.17V154.065H1016.84V163.889H1016.87V173.322H1016.63V182.951H1016.46V192.581H1016.12V202.21H1015.75V211.839H1015.17V221.467H1014.7V231.096H1014.06V240.726H1013.58V250.355H1013.11V259.984H1012.02V269.612H1011.47V259.984H1010.72V250.355H1010.42V240.726H1009.94V231.096H1008.99V221.467H1008.18V211.839H1007.67V202.21H1007.23V192.581H1007V182.951H1006.76V173.322H1006.66V163.694H1006.39V154.065H1006.18V144.435H1006.08V134.806H1005.81V125.177H1005.67V115.549H1005.47V105.92H1005.23V96.29H1005.13V86.6612H1005.1V77.0324H1004.89V67.5983H1004.96V57.7738H1004.66V48.3407H1004.82V38.5162H1004.42V48.3407H1004.59V57.7738H1004.28V67.5983H1004.35V77.0324H1004.15V86.6612H1004.11V96.29H1004.01V105.92H1003.77V115.549H1003.57V125.177H1003.43V134.806H1003.16V144.435H1003.06V154.065H1002.86V163.694H1002.59V173.322H1002.48V182.951H1002.25V192.581H1002.01V202.21H1001.57V211.839H1001.06V221.467H1000.25V231.096H999.3V240.726H998.826V250.355H998.52V259.984H997.775V269.612H996.948V259.984H996.134V250.355H995.66V240.726H995.186V231.096H994.711V221.467H994.068V211.839H993.729V202.21H993.018V192.776H993.085V182.951H992.645V173.322H992.374V163.694H992.272V154.065H992.069V144.435H991.967V134.806H991.797V125.177H991.73V115.549H991.219V105.92H991.185V96.29H990.983V86.6612H990.88V77.0324H990.745V67.4036H990.644V48.145H990.373V67.4036H990.271V77.0324H990.135V86.6612H990.034V96.29H989.83V105.92H989.796V115.549H989.286V125.177H989.218V134.806H989.049V144.435H988.947V154.065H988.744V163.694H988.643V173.322H988.372V182.951H987.931V192.776H987.999V202.21H987.287V211.839H986.948V221.467H986.304V231.096H985.83V240.726H985.355V250.355H984.881V259.984H984.068V269.612H983.391V279.242H983.153V288.871H983.071V279.242H982.766V269.612H982.461V259.984H981.716V250.355H981.446V240.726H980.903V231.096H980.429V221.467H980.056V211.839H979.446V202.21H979.006V192.581H978.87V182.951H978.531V173.322H978.396V163.694H978.158V154.065H977.718V144.631H977.752V134.806H977.583V125.177H977.345V115.549H977.278V105.92H977.005V96.29H976.971V86.6612H976.767V77.0324H976.666V67.4036H976.53V57.7738H976.496V48.3407H976.53V38.5162H976.428V28.8874H976.361V38.5162H976.26V48.3407H976.293V57.7738H976.26V67.4036H976.123V77.0324H976.022V86.6612H975.818V96.29H975.784V105.92H975.511V115.549H975.444V125.177H975.206V134.806H975.037V144.631H975.071V154.065H974.631V163.694H974.393V173.322H974.258V182.951H973.92V192.581H973.783V202.21H973.343V211.839H972.733V221.467H972.36V231.096H971.886V240.726H971.343V250.355H971.073V259.984H970.328V269.612H970.023V279.242H969.718V288.871H969.345V298.5H969.23V288.871H968.857V279.242H968.484V269.612H968.145V259.984H967.807V250.355H967.297V240.726H966.722V231.096H966.281V221.467H965.908V211.839H965.333V202.21H964.858V192.581H964.621V182.951H964.316V173.322H964.215V163.694H963.977V154.065H963.706V144.435H963.638V134.806H963.47V125.177H963.232V115.549H963.097V105.92H962.755V96.29H962.722V86.6612H962.553V77.0324H962.518V67.4036H962.484V57.7738H962.383V48.145H962.18V57.7738H962.077V67.4036H962.044V77.0324H962.01V86.6612H961.841V96.29H961.806V105.92H961.466V115.549H961.331V125.177H961.093V134.806H960.924V144.435H960.855V154.065H960.585V163.694H960.348V173.322H960.247V182.951H959.941V192.581H959.704V202.21H959.23V211.839H958.653V221.467H958.281V231.096H957.84V240.726H957.264V250.355H956.756V259.984H956.417V269.612H956.078V279.242H955.706V288.871H955.42V279.242H955.081V269.612H954.709V259.984H953.963V250.355H953.319V240.726H953.117V231.096H952.405V221.467H952.066V211.839H951.49V202.21H951.151V192.581H950.778V182.951H950.338V173.322H949.965V163.694H949.932V154.065H949.593V144.435H949.492V134.806H949.254V125.177H949.22V105.92H948.777V96.29H948.608V86.6612H948.541V77.0324H948.405V67.4036H948.371V57.7738H948.27V48.145H948.066V57.7738H947.964V67.4036H947.931V77.0324H947.796V86.6612H947.727V96.29H947.558V105.92H947.115V125.177H947.081V134.806H946.844V144.435H946.742V154.065H946.403V163.694H946.37V173.322H945.997V182.951H945.557V192.581H945.184V202.21H944.845V211.839H944.269V221.467H943.93V231.096H943.218V240.726H943.016V250.355H942.372V259.984H941.626V269.612H940.833V259.984H940.257V250.355H939.817V240.726H939.343V231.096H938.901V221.467H938.292V211.839H937.377V202.21H936.869V192.581H936.699V182.951H936.191V173.322H935.954V163.694H935.648V154.065H935.513V144.435H935.412V134.806H935.175V125.177H935.004V115.549H934.869V105.92H934.563V96.29H934.529V86.6612H934.325V77.0324H934.258V67.4036H934.19V57.7738H934.087V48.145H934.02V57.7738H933.919V67.4036H933.851V77.0324H933.784V86.6612H933.58V96.29H933.546V105.92H933.24V115.549H933.103V125.177H932.934V134.806H932.697V144.435H932.595V154.065H932.459V163.694H932.155V173.322H931.918V182.951H931.409V192.581H931.24V202.21H930.732V211.839H929.817V221.467H929.206V231.096H928.766V240.726H928.292V250.355H927.852V259.984H927.058V250.355H925.906V240.726H924.958V231.096H924.382V221.467H923.602V211.839H923.026V202.21H922.586V192.581H922.348V182.951H921.975V173.322H921.807V163.694H921.535V154.065H921.4V144.435H921.129V134.806H921.028V125.177H920.824V115.549H920.756V105.92H920.551V96.29H920.381V86.6612H920.178V77.0324H920.145V67.4036H919.974V48.145H919.907V67.4036H919.738V77.0324H919.703V86.6612H919.5V96.29H919.33V105.92H919.125V115.549H919.057V125.177H918.855V134.806H918.752V144.435H918.482V154.065H918.346V163.694H918.075V173.322H917.906V182.951H917.533V192.581H917.295V202.21H916.855V211.839H916.279V221.467H915.5V231.096H914.925V240.726H913.975V250.355H912.824V259.984H912.451V269.612H912.403V259.984H911.623V250.355H911.115V240.726H910.574V231.096H910.166V221.467H909.624V211.839H909.117V202.21H908.574V192.581H908.336V182.951H908.1V173.322H907.694V163.694H907.49V154.065H907.117V144.435H906.812V134.806H906.778V125.177H906.643V115.549H906.539V105.92H906.268V86.6612H906.166V77.0324H906.065V67.4036H906.03V57.7738H905.624V67.4036H905.59V77.0324H905.489V86.6612H905.387V105.92H905.116V115.549H905.012V125.177H904.877V134.806H904.843V144.435H904.538V154.065H904.165V163.694H903.961V173.322H903.555V182.951H903.317V192.581H903.081V202.21H902.538V211.839H902.031V221.467H901.488V231.096H901.081V240.726H900.54V250.355H900.031V259.984H899.252V269.808H899.286V279.242H899.117V288.871H898.73V279.242H898.391V269.612H898.187V259.984H897.781V250.355H897.273V240.726H896.562V231.096H895.985V221.467H895.68V211.839H894.901V202.21H894.528V192.581H894.291V182.951H893.985V173.322H893.613V163.694H893.275V154.065H893.038V144.435H892.766V134.806H892.597V125.177H892.529V115.549H892.323V105.92H892.155V96.29H892.087V86.6612H891.984V77.0324H891.917V67.4036H891.816V57.7738H891.612V67.4036H891.51V77.0324H891.443V86.6612H891.342V96.29H891.273V105.92H891.104V115.549H890.899V125.177H890.831V134.806H890.661V144.435H890.39V154.065H890.153V163.694H889.815V173.322H889.442V182.951H889.137V192.581H888.899V202.21H888.526V211.839H887.747V221.467H887.442V231.096H886.867V240.726H886.155V250.355H885.646V259.984H885.24V269.612H885.037V279.242H884.752V269.612H883.668V259.984H883.261V250.355H882.752V240.726H882.075V231.096H881.838V221.467H881.567V211.839H880.923V202.21H880.516V192.581H880.177V182.951H880.009V173.322H879.263V163.694H879.06V154.065H878.958V144.435H878.687V134.806H878.449V125.177H878.311V115.549H878.278V105.92H878.075V96.29H877.972V77.0324H877.837V67.4036H877.702V57.7738H877.499V67.4036H877.364V77.0324H877.227V96.29H877.126V105.92H876.923V115.549H876.888V125.177H876.752V134.806H876.514V144.435H876.243V154.065H876.142V163.694H875.938V173.322H875.192V182.951H875.024V192.581H874.685V202.21H874.278V211.839H873.634V221.467H873.363V231.096H873.127V240.726H872.449V250.355H871.94V259.984H871.533V269.612H870.774V259.984H870.401V250.355H869.927V240.726H869.046V231.096H867.928V221.467H867.521V211.839H866.911V202.21H866.572V192.581H866.233V182.951H865.759V173.322H865.488V163.694H864.946V154.065H864.709V144.435H864.54V134.806H864.37V125.177H864.336V115.549H863.996V105.92H863.927V86.6612H863.724V77.0324H863.691V67.4036H863.588V57.7738H863.52V48.145H863.453V57.7738H863.385V67.4036H863.284V77.0324H863.25V86.6612H863.047V105.92H862.979V115.549H862.637V125.177H862.604V134.806H862.435V144.435H862.265V154.065H862.028V163.694H861.486V173.322H861.214V182.951H860.74V192.581H860.401V202.21H860.062V211.839H859.452V221.467H859.046V231.096H857.928V240.726H857.047V250.355H856.572V259.984H856.185V250.355H855.712V240.726H854.865V231.096H853.95V221.467H853.611V211.839H852.663V202.21H852.29V192.581H851.882V182.951H851.51V173.322H851.171V163.694H850.968V154.065H850.731V144.435H850.358V134.806H850.257V125.177H849.984V115.549H849.95V105.92H849.746V96.4857H849.814V86.6612H849.611V77.0324H849.577V67.4036H849.407V57.7738H849.34V67.4036H849.17V77.0324H849.136V86.6612H848.933V96.4857H849.001V105.92H848.797V115.549H848.763V125.177H848.49V134.806H848.389V144.435H848.017V154.065H847.779V163.694H847.575V173.322H847.237V182.951H846.865V192.581H846.457V202.21H846.084V211.839H845.137V221.467H844.798V231.096H843.882V240.726H843.036V250.355H842.562V259.984H841.565V250.551H842.106V240.726H841.598V231.096H840.209V221.467H839.599V211.839H839.294V202.21H838.447V192.581H837.837V182.951H837.194V173.322H837.024V163.694H836.821V154.065H836.584V144.435H836.211V135.002H836.245V125.177H836.076V115.549H835.836V105.92H835.633V96.4857H835.836V86.6612H835.497V77.0324H835.395V67.4036H835.294V57.7738H835.227V67.4036H835.124V77.0324H835.023V86.6612H834.684V96.4857H834.888V105.92H834.684V115.549H834.445V125.177H834.276V135.002H834.31V144.435H833.937V154.065H833.7V163.694H833.496V173.322H833.327V182.951H832.683V192.581H832.072V202.21H831.226V211.839H830.921V221.467H830.312V231.096H828.922V240.726H828.413V250.355H827.959V240.726H827.281V231.096H825.825V221.467H824.909V211.839H824.233V202.21H823.86V192.776H823.995V182.951H823.182V173.322H823.08V163.694H823.012V154.065H822.606V144.435H822.233V134.806H822.199V125.177H821.824V115.549H821.621V105.92H821.587V96.29H821.35V67.4036H821.181V57.7738H821.112V67.4036H820.943V96.29H820.706V105.92H820.672V115.549H820.47V125.177H820.094V134.806H820.06V144.435H819.688V154.065H819.281V163.694H819.214V173.322H819.111V182.951H818.298V192.776H818.435V202.21H818.061V211.839H817.384V221.467H816.469V231.096H815.012V240.726H814.334V250.355H813.86V259.984H813.473V250.551H813.507V240.726H811.983V231.096H811.406V221.467H811.034V211.839H810.457V202.21H809.949V192.581H809.678V182.951H809.305V173.322H809.068V163.694H808.831V154.065H808.391V144.435H808.322V134.806H807.848V125.177H807.643V115.549H807.508V105.92H807.474V96.29H807.304V86.6612H807.237V77.0324H807.135V67.4036H807.067V57.7738H806.999V67.4036H806.932V77.0324H806.83V86.6612H806.763V96.29H806.593V105.92H806.559V115.549H806.424V125.177H806.219V134.806H805.743V144.435H805.676V154.065H805.236V163.694H804.998V173.322H804.762V182.951H804.388V192.581H804.118V202.21H803.609V211.839H803.033V221.467H802.661V231.096H802.084V240.726H800.56V250.551H800.594V259.984H799.848V269.612H799.63V259.984H799.055V250.355H798.58V240.726H797.835V231.096H797.496V221.467H797.055V211.839H796.344V202.21H795.769V192.581H795.632V182.951H795.158V173.322H794.82V163.694H794.514V154.065H794.04V144.435H794.007V134.806H793.597V125.177H793.53V115.549H793.394V105.92H793.259V96.29H793.191V86.6612H793.055V77.0324H793.021V67.4036H792.818V77.0324H792.785V86.6612H792.648V96.29H792.581V105.92H792.446V115.549H792.309V125.177H792.242V134.806H791.834V144.435H791.799V154.065H791.325V163.694H791.02V173.322H790.681V182.951H790.207V192.581H790.072V202.21H789.495V211.839H788.784V221.467H788.344V231.096H788.005V240.726H787.26V250.355H786.786V259.984H786.209V269.612H785.618V259.984H785.145V250.355H784.433V240.726H783.755V231.096H783.416V221.467H783.044V211.839H782.332V202.21H781.654V192.581H781.282V182.951H780.943V173.322H780.74V163.694H780.265V154.065H779.858V144.435H779.757V134.806H779.622V125.177H779.28V96.29H779.044V86.6612H778.908V67.4036H778.705V86.6612H778.569V96.29H778.333V125.177H777.991V134.806H777.856V144.435H777.753V154.065H777.347V163.694H776.873V173.322H776.669V182.951H776.33V192.581H775.957V202.21H775.281V211.839H774.57V221.467H774.197V231.096H773.858V240.726H773.18V250.355H772.469V259.984H771.993V269.612H771.791V279.242H771.505V269.612H771.37V259.984H770.998V250.355H770.183V240.726H769.947V231.096H769.642V221.467H769.202V211.839H768.727V202.21H767.846V192.581H767.101V182.951H766.796V173.322H766.491V163.694H766.152V154.065H765.779V134.806H765.371V115.549H765.134V105.92H765.032V96.29H764.963V86.6612H764.896V77.0324H764.795V67.4036H764.591V77.0324H764.49V86.6612H764.422V96.29H764.355V105.92H764.252V115.549H764.016V134.806H763.606V154.065H763.234V163.694H762.895V173.322H762.59V182.951H762.285V192.581H761.539V202.21H760.659V211.839H760.185V221.467H759.743V231.096H759.44V240.726H759.202V250.355H758.389V259.984H758.017V269.612H757.765V259.984H757.527V250.355H756.918V240.726H755.969V231.096H755.834V221.467H754.546V211.839H753.868V202.21H753.394V192.581H752.988V182.951H752.58V173.322H752.174V163.694H751.904V154.065H751.767V144.435H751.29V125.177H751.155V115.549H751.02V105.92H750.85V96.4857H750.918V86.6612H750.783V77.0324H750.614V67.4036H750.545V77.0324H750.376V86.6612H750.24V96.4857H750.309V105.92H750.139V115.549H750.004V125.177H749.867V144.435H749.392V154.065H749.256V163.694H748.984V173.322H748.578V182.951H748.171V192.581H747.765V202.21H747.291V211.839H746.613V221.467H745.325V231.096H745.19V240.726H744.241V250.355H743.632V259.984H742.94V250.355H742.33V240.726H741.753V231.096H741.279V221.467H740.602V211.839H739.991V202.21H739.212V192.581H738.976V182.951H738.501V173.322H738.128V163.694H737.823V154.065H737.553V144.435H737.349V134.806H737.042V115.549H736.805V105.92H736.737V96.29H736.67V86.6612H736.263V96.29H736.194V105.92H736.127V115.549H735.891V134.806H735.583V144.435H735.38V154.065H735.109V163.694H734.804V173.322H734.431V182.951H733.957V192.581H733.719V202.21H732.94V211.839H732.33V221.467H731.652V231.096H731.178V240.726H730.602V250.355H729.993V259.984H729.349V269.612H728.217V259.984H727.979V250.355H727.777V240.726H727.267V231.096H726.623V221.467H725.811V211.839H725.269V202.21H724.861V192.581H724.489V182.951H724.286V173.322H723.777V163.694H723.642V154.065H723.44V144.435H723.202V134.806H722.86V125.177H722.793V115.549H722.725V105.92H722.692V96.29H722.557V86.6612H722.488V77.0324H722.386V67.4036H722.319V77.0324H722.218V86.6612H722.149V96.29H722.014V105.92H721.98V115.549H721.912V125.177H721.845V134.806H721.503V144.435H721.266V154.065H721.063V163.694H720.928V173.322H720.419V182.951H720.217V192.581H719.844V202.21H719.436V211.839H718.895V221.467H718.082V231.096H717.438V240.726H716.929V250.355H716.726V259.984H716.489V269.612H715.575V279.242H714.476V269.612H714.205V259.984H713.628V250.355H713.289V240.726H712.578V231.096H711.935V221.467H711.664V211.839H710.986V202.21H710.851V192.581H710.342V182.951H710.139V173.322H709.8V163.694H709.529V154.065H709.224V144.435H709.055V134.806H708.917V125.177H708.747V115.549H708.612V105.92H708.511V96.29H708.341V77.0324H708.137V96.29H707.968V105.92H707.867V115.549H707.73V125.177H707.562V134.806H707.424V144.435H707.255V154.065H706.95V163.694H706.679V173.322H706.34V182.951H706.136V192.581H705.628V202.21H705.493V211.839H704.815V221.467H704.544V231.096H703.9V240.726H703.188V250.355H702.849V259.984H702.274V269.612H702.003V279.242H701.176V269.612H701.073V259.984H700.092V250.355H699.21V240.726H698.566V231.096H697.923V221.467H697.515V211.839H696.974V202.21H696.5V192.581H696.364V182.951H695.89V173.322H695.585V163.694H695.246V154.065H695.077V144.435H694.941V134.806H694.702V115.549H694.464V105.92H694.363V96.29H694.261V86.8569H694.329V77.0324H693.922V86.8569H693.99V96.29H693.889V105.92H693.787V115.549H693.55V134.806H693.311V144.435H693.174V154.065H693.006V163.694H692.667V173.322H692.362V182.951H691.888V192.581H691.751V202.21H691.277V211.839H690.736V221.467H690.328V231.096H689.685V240.726H689.041V250.355H688.16V259.984H687.178V269.612H687.075V279.242H686.825V269.612H686.486V259.984H686.011V250.355H685.638V240.726H684.927V231.096H684.046V221.467H683.572V211.839H682.827V202.21H682.284V192.581H682.013V182.951H681.573V173.322H681.301V163.694H681.099V154.065H680.895V144.435H680.69V134.806H680.622V125.177H680.453V105.92H680.216V86.6612H680.046V77.0324H679.978V86.6612H679.809V105.92H679.572V125.177H679.403V134.806H679.334V144.435H679.129V154.065H678.926V163.694H678.722V173.322H678.451V182.951H678.011V192.581H677.739V202.21H677.198V211.839H676.453V221.467H675.979V231.096H675.097V240.726H674.385V250.355H674.013V259.984H673.539V269.612H673.2V279.242H672.948V269.612H672.609V259.984H672.102V250.355H671.628V240.726H671.186V231.096H670.407V221.467H669.797V211.839H669.085V202.21H668.272V192.581H667.697V182.951H667.325V173.322H667.256V163.694H666.986V154.065H666.849V144.435H666.61V134.806H666.475V125.177H666.339V115.549H666.238V96.29H666.034V86.6612H666V77.0324H665.797V86.6612H665.764V96.29H665.56V115.549H665.459V125.177H665.322V134.806H665.187V144.435H664.948V154.065H664.813V163.694H664.542V173.322H664.474V182.951H664.102V192.581H663.525V202.21H662.712V211.839H662.001V221.467H661.39V231.096H660.611V240.726H660.171V250.355H659.696V259.984H659.188V269.612H658.849V279.242H658.597V269.612H658.09V259.984H657.581V250.355H657.073V240.726H656.599V231.096H656.124V221.467H655.447V211.839H654.633V202.21H653.955V192.581H653.685V182.951H653.313V173.322H652.974V163.694H652.669V154.065H652.497V134.806H652.361V125.177H652.259V115.549H652.124V105.92H652.023V96.29H651.988V86.6612H651.887V77.0324H651.819V67.4036H651.752V77.0324H651.684V86.6612H651.582V96.29H651.548V105.92H651.447V115.549H651.312V125.177H651.209V134.806H651.074V154.065H650.902V163.694H650.597V173.322H650.258V182.951H649.886V192.581H649.614V202.21H648.937V211.839H648.124V221.467H647.446V231.096H646.972V240.726H646.498V250.355H645.989V259.984H645.481V269.612H644.972V279.242H644.484V269.612H644.112V259.984H643.773V250.355H643.095V240.726H642.485V231.096H642.147V221.467H641.299V211.839H640.419V202.21H639.809V192.581H639.571V182.951H639.198V173.322H638.962V163.694H638.52V144.435H638.384V134.806H638.248V125.177H638.113V115.549H638.045V105.92H637.909V96.29H637.774V86.6612H637.57V96.29H637.435V105.92H637.3V115.549H637.231V125.177H637.096V134.806H636.961V144.435H636.823V163.694H636.383V173.322H636.145V182.951H635.773V192.581H635.535V202.21H634.925V211.839H634.044V221.467H633.198V231.096H632.859V240.726H632.249V250.355H631.571V259.984H631.232V269.612H630.859V279.242H630.337V269.612H630.032V259.984H629.287V250.355H628.881V240.726H628.304V231.096H627.763V221.467H627.017V211.839H626.136V202.21H625.662V192.581H625.424V182.951H625.018V173.322H624.746V163.694H624.544V154.065H624.407V144.435H624.134V125.177H624.067V115.549H623.897V105.92H623.829V96.29H623.694V77.0324H623.423V96.29H623.288V105.92H623.219V115.549H623.05V125.177H622.983V144.435H622.71V154.065H622.574V163.694H622.371V173.322H622.1V182.951H621.693V192.581H621.456V202.21H620.982V211.839H620.1V221.467H619.355V231.096H618.813V240.726H618.237V250.355H617.83V259.984H617.085V269.612H616.78V279.242H616.292V269.612H615.987V259.984H615.444V250.355H614.631V240.726H614.054V231.096H613.242V221.467H612.633V211.839H611.955V202.21H611.547V192.581H611.243V182.951H610.768V173.322H610.667V163.694H610.429V154.065H610.055V144.631H610.123V134.806H609.954V125.177H609.885V115.549H609.784V105.92H609.716V96.29H609.546V86.6612H609.344V96.29H609.173V105.92H609.106V115.549H609.005V125.177H608.937V134.806H608.767V144.631H608.834V154.065H608.46V163.694H608.223V173.322H608.122V182.951H607.648V192.581H607.342V202.21H606.936V211.839H606.258V221.467H605.648V231.096H604.835V240.726H604.259V250.355H603.446V259.984H602.903V269.612H602.599V279.242H602.144V269.612H601.874V259.984H601.535V250.355H600.823V240.726H600.145V231.096H599.535V221.467H598.655V211.839H598.146V202.21H597.367V192.581H597.028V182.951H596.52V163.694H596.147V144.435H596.043V134.806H595.772V125.177H595.704V115.549H595.671V105.92H595.536V96.29H595.433V86.6612H595.23V96.29H595.128V105.92H594.993V115.549H594.959V125.177H594.892V134.806H594.62V144.435H594.516V163.694H594.143V182.951H593.636V192.581H593.297V202.21H592.518V211.839H592.009V221.467H591.128V231.096H590.518V240.726H589.84V250.355H589.129V259.984H588.79V269.612H588.52V279.242H588.336V269.612H587.828V259.984H587.523V250.355H587.083V240.726H585.693V231.096H584.982V221.467H584.643V211.839H583.694V202.21H583.22V192.581H582.881V182.951H582.441V173.322H582.27V163.694H582.102V154.065H581.896V144.435H581.794V134.806H581.659V125.373H581.692V115.549H581.489V96.29H581.32V86.6612H581.116V96.29H580.947V115.549H580.743V125.373H580.777V134.806H580.642V144.435H580.541V154.065H580.335V163.694H580.165V173.322H579.997V182.951H579.556V192.581H579.217V202.21H578.742V211.839H577.794V221.467H577.455V231.096H576.744V240.726H575.354V250.355H574.914V259.984H574.609V269.612H574.1V279.242H573.917V269.612H573.002V259.984H572.359V250.355H571.85V240.726H571.071V231.096H570.528V221.467H570.088V211.839H569.614V202.21H569.004V192.581H568.631V182.951H568.429V173.322H568.056V163.694H567.987V154.065H567.953V144.435H567.782V134.806H567.579V115.549H567.375V105.92H567.308V96.29H566.902V105.92H566.834V115.549H566.63V134.806H566.428V144.435H566.256V154.065H566.222V163.694H566.153V173.322H565.781V182.951H565.578V192.581H565.206V202.21H564.595V211.839H564.121V221.467H563.68V231.096H563.138V240.726H562.359V250.355H561.85V259.984H561.208V269.612H560.292V279.242H559.702V269.612H559.533V259.984H559.194V250.355H558.278V240.726H556.857V231.096H556.28V221.467H555.84V211.839H555.398V202.21H554.857V192.581H554.653V182.951H554.349V173.322H553.977V163.694H553.84V154.065H553.669V144.435H553.567V134.806H553.364V125.373H553.5V115.549H553.229V105.92H553.127V96.4857H553.229V86.6612H552.755V96.4857H552.856V105.92H552.755V115.549H552.483V125.373H552.618V134.806H552.416V144.435H552.313V154.065H552.142V163.694H552.007V173.322H551.634V182.951H551.329V192.581H551.126V202.21H550.583V211.839H550.143V221.467H549.703V231.096H549.127V240.726H547.703V250.355H546.789V259.984H546.45V269.612H546.28V279.242H545.487V269.612H545.114V259.984H544.538V250.355H543.894V240.726H542.776V231.096H542.098V221.467H541.862V211.839H541.252V202.21H540.744V192.581H540.337V182.951H540.167V173.322H539.828V163.694H539.693V154.065H539.488V144.435H539.352V134.806H539.318V125.177H539.25V115.549H539.082V105.92H539.013V96.29H538.912V77.0324H538.844V96.29H538.743V105.92H538.674V115.549H538.505V125.177H538.438V134.806H538.404V144.435H538.267V154.065H538.062V163.694H537.927V173.322H537.588V182.951H537.418V192.581H537.012V202.21H536.504V211.839H535.894V221.467H535.657V231.096H534.98V240.726H533.862V250.355H533.218V259.984H532.641V269.612H532.268V279.242H531.949V269.612H531.679V259.984H530.492V250.355H529.273V240.726H528.663V231.096H528.088V221.467H527.68V211.839H527.105V202.21H526.631V192.581H526.326V182.951H526.054V173.322H525.953V163.694H525.476V154.26H525.58V144.435H525.272V134.806H525.137V125.177H525.104V115.549H525.002V105.92H524.9V96.29H524.866V86.6612H524.663V96.29H524.628V105.92H524.527V115.549H524.426V125.177H524.392V134.806H524.256V144.435H523.949V154.26H524.053V163.694H523.576V173.322H523.475V182.951H523.204V192.581H522.899V202.21H522.425V211.839H521.848V221.467H521.442V231.096H520.867V240.726H520.256V250.355H519.036V259.984H517.85V269.612H517.328V259.984H516.786V250.355H515.701V240.726H515.227V231.096H514.415V221.467H513.703V211.839H512.992V202.21H512.516V192.581H512.009V182.951H511.941V173.322H511.636V163.694H511.328V154.065H511.26V144.435H511.159V134.806H511.092V125.177H511.024V115.549H510.753V106.115H510.854V96.29H510.448V106.115H510.549V115.549H510.279V125.177H510.21V134.806H510.142V144.435H510.041V154.065H509.974V163.694H509.666V173.322H509.362V182.951H509.293V192.581H508.785V202.21H508.312V211.839H507.6V221.467H506.888V231.096H506.074V240.726H505.6V250.355H504.516V259.984H503.975V269.612H503.249V259.984H501.622V250.551H501.927V240.726H501.148V231.096H500.572V221.467H499.961V211.839H499.352V202.21H498.302V192.581H497.997V182.951H497.827V173.322H497.59V163.694H497.386V154.065H497.215V144.435H497.046V134.806H496.979V125.177H496.741V115.744H496.775V105.92H496.572V86.6612H496.503V105.92H496.301V115.744H496.334V125.177H496.097V134.806H496.029V144.435H495.861V154.065H495.689V163.694H495.485V173.322H495.247V182.951H495.079V192.581H494.774V202.21H493.723V211.839H493.113V221.467H492.504V231.096H491.927V240.726H491.148V250.551H491.453V259.984H489.826V269.612H489.759V279.242H489.101V269.808H489.372V259.984H488.898V250.355H488.084V240.726H487V231.096H486.187V221.467H485.374V211.839H485.002V202.21H484.29V192.581H483.985V182.951H483.545V173.322H483.239V163.889H483.307V154.065H483V134.806H482.864V125.177H482.763V115.549H482.628V105.92H482.525V96.29H482.458V86.6612H482.39V96.29H482.323V105.92H482.221V115.549H482.085V125.177H481.984V134.806H481.849V154.065H481.541V163.889H481.608V173.322H481.304V182.951H480.863V192.581H480.558V202.21H479.846V211.839H479.474V221.467H478.661V231.096H477.848V240.726H476.764V250.355H475.951V259.984H475.476V269.808H475.747V279.242H475.36V269.612H475.225V259.984H474.445V250.355H473.699V240.726H472.582V231.096H471.87V221.467H471.464V211.839H470.583V202.21H469.905V192.581H469.872V182.951H469.533V173.322H469.194V163.694H468.989V154.065H468.887V144.435H468.818V134.806H468.751V125.177H468.582V115.549H468.412V106.115H468.513V96.29H468.107V106.115H468.209V115.549H468.039V125.177H467.871V134.806H467.802V144.435H467.734V154.065H467.633V163.694H467.428V173.322H467.089V182.951H466.75V192.581H466.716V202.21H466.038V211.839H465.158V221.467H464.752V231.096H464.04V240.726H462.921V250.355H462.175V259.984H461.396V269.612H461.261V279.242H460.637V269.612H460.264V259.984H459.451V250.355H459.112V240.726H458.163V231.096H457.824V221.467H457.012V211.839H456.367V202.21H455.894V192.581H455.622V182.951H455.317V173.322H455.249V163.694H454.875V154.065H454.705V134.806H454.434V125.373H454.537V115.549H454.299V105.92H454.095V115.549H453.859V125.373H453.96V134.806H453.689V154.065H453.52V163.694H453.144V173.322H453.077V182.951H452.772V192.581H452.502V202.21H452.026V211.839H451.382V221.467H450.569V231.096H450.231V240.726H449.283V250.355H448.944V259.984H448.13V269.612H447.757V279.242H446.809V288.871H446.422V279.242H446.05V269.612H445.745V259.984H444.93V250.355H444.288V240.726H443.711V231.096H443.406V221.467H442.932V211.839H442.322V202.21H441.747V192.581H441.543V182.951H441.136V173.322H441.035V163.694H440.966V154.065H440.592V144.435H440.525V125.177H440.321V115.549H440.219V96.29H439.948V115.549H439.847V125.177H439.643V144.435H439.575V154.065H439.201V163.694H439.132V173.322H439.031V182.951H438.625V192.581H438.421V202.21H437.846V211.839H437.235V221.467H436.762V231.096H436.456V240.726H435.88V250.355H435.237V259.984H434.423V269.612H434.118V279.242H433.745V288.871H433.067V298.5H432.783V288.871H432.274V279.242H431.834V269.612H431.224V259.984H430.784V250.355H430.106V240.726H429.733V231.096H429.192V221.467H428.615V211.839H428.107V202.21H427.632V192.581H427.43V182.951H427.192V173.322H426.853V163.694H426.648V154.065H426.58V144.435H426.445V134.806H426.309V125.177H426.241V115.549H426.174V105.92H426.073V96.29H425.869V105.92H425.767V115.549H425.7V125.177H425.631V134.806H425.496V144.435H425.361V154.065H425.292V163.694H425.087V173.322H424.748V182.951H424.512V192.581H424.308V202.21H423.834V211.839H423.325V221.467H422.75V231.096H422.207V240.726H421.834V250.355H421.156V259.984H420.716V269.612H420.106V279.242H419.666V288.871H419.158V298.5H418.906V288.871H418.466V279.242H417.856V269.612H417.348V259.984H416.704V250.355H416.094V240.726H415.485V231.096H415.043V221.467H414.468V211.839H413.993V202.21H413.418V192.581H413.281V182.951H413.079V173.322H412.706V163.694H412.535V154.065H412.467V144.435H412.364V134.806H412.229V125.177H412.128V115.549H411.992V105.92H411.958V96.29H411.756V105.92H411.722V115.549H411.585V125.177H411.484V134.806H411.349V144.435H411.247V154.065H411.179V163.694H411.007V173.322H410.635V182.951H410.432V192.581H410.296V202.21H409.721V211.839H409.245V221.467H408.67V231.096H408.229V240.726H407.62V250.355H407.009V259.984H406.365V269.612H405.858V279.242H405.247V288.871H404.807V298.5H404.353V288.871H403.844V279.242H403.404V269.612H403.031V259.984H402.557V250.355H402.014V240.726H401.541V231.096H401.067V221.467H400.389V211.839H399.88V202.21H399.271V192.581H399.101V182.951H398.829V173.322H398.728V163.694H398.422V154.065H398.353V144.435H398.116V134.806H398.015V125.177H397.98V115.549H397.946V105.92H397.54V115.549H397.506V125.177H397.472V134.806H397.371V144.435H397.133V154.065H397.066V163.694H396.759V173.322H396.657V182.951H396.387V192.581H396.217V202.21H395.606V211.839H395.099V221.467H394.421V231.096H393.947V240.726H393.472V250.355H392.93V259.984H392.456V269.612H392.084V279.242H391.642V288.871H391.134V298.5H390.964V308.129H390.341V298.5H390.104V288.871H389.697V279.242H389.154V269.612H388.782V259.984H388.342V250.355H387.834V240.726H387.291V231.096H386.817V221.467H386.241V211.839H385.632V202.21H385.156V192.581H384.988V182.951H384.716V173.322H384.479V163.694H384.239V154.065H384.138V144.435H384.003V134.806H383.969V125.177H383.867V115.549H383.732V96.29H383.528V115.549H383.393V125.177H383.292V134.806H383.258V144.435H383.122V154.065H383.02V163.694H382.781V173.322H382.544V182.951H382.272V192.581H382.103V202.21H381.629V211.839H381.019V221.467H380.443V231.096H379.969V240.726H379.426V250.355H378.918V259.984H378.478V269.612H378.105V279.242H377.563V288.871H377.156V298.5H376.919V308.129H376.615V317.757H376.431V308.129H376.125V298.5H375.82V288.871H375.38V279.242H374.94V269.612H374.601V259.984H373.991V250.355H373.416V240.726H372.974V231.096H372.365V221.467H371.925V211.839H371.517V202.21H371.043V192.581H370.704V182.951H370.399V173.322H370.228V163.694H370.093V154.065H369.991V144.435H369.889V134.806H369.855V125.177H369.619V115.744H369.652V105.92H369.55V96.29H369.482V105.92H369.381V115.744H369.415V125.177H369.177V134.806H369.143V144.435H369.042V154.065H368.941V163.694H368.804V173.322H368.633V182.951H368.329V192.581H367.99V202.21H367.515V211.839H367.109V221.467H366.668V231.096H366.058V240.726H365.618V250.355H365.041V259.984H364.432V269.612H364.094V279.242H363.653V288.871H363.212V298.5H362.907V308.129H362.603V317.757H362.181V308.129H362.012V298.5H361.741V288.871H361.402V279.242H361.029V269.612H360.69V259.984H359.776V250.355H359.404V240.726H358.861V231.096H358.149V221.467H357.777V211.839H357.269V202.21H356.726V192.581H356.692V182.951H356.387V173.322H356.219V163.694H355.979V154.065H355.877V134.806H355.641V125.177H355.504V115.744H355.539V105.92H355.268V115.744H355.302V125.177H355.165V134.806H354.929V154.065H354.828V163.694H354.587V173.322H354.419V182.951H354.113V192.581H354.08V202.21H353.537V211.839H353.029V221.467H352.657V231.096H351.945V240.726H351.404V250.355H351.031V259.984H350.115V269.612H349.777V279.242H349.404V288.871H349.065V298.5H348.794V308.129H348.625V317.757H348.068V308.129H347.899V298.5H347.729V288.871H347.255V279.242H347.051V269.612H346.544V259.984H345.967V250.355H345.493V240.726H344.917V231.096H344.341V221.467H343.765V211.839H343.156V202.21H342.579V192.581H342.478V182.951H342.24V173.322H342.001V163.694H341.866V144.435H341.662V134.806H341.561V125.177H341.527V115.549H341.052V125.177H341.018V134.806H340.917V144.435H340.713V163.694H340.578V173.322H340.339V182.951H340.102V192.581H340V202.21H339.424V211.839H338.815V221.467H338.238V231.096H337.662V240.726H337.087V250.355H336.611V259.984H336.036V269.612H335.527V279.242H335.324V288.871H334.851V298.5H334.68V308.129H334.512V317.757H333.955V308.129H333.751V298.5H333.548V288.871H333.311V279.242H332.904V269.612H332.498V259.984H331.888V250.355H331.312V240.726H330.702V231.096H330.024V221.467H329.652V211.839H328.94V202.21H328.399V192.581H328.229V182.951H327.888V173.518H328.026V163.694H327.684V154.065H327.651V144.435H327.549V134.806H327.447V125.177H327.379V115.549H327.312V105.92H327.04V115.549H326.973V125.177H326.905V134.806H326.804V144.435H326.701V154.065H326.668V163.694H326.327V173.518H326.465V182.951H326.123V192.581H325.955V202.21H325.412V211.839H324.7V221.467H324.328V231.096H323.65V240.726H323.041V250.355H322.464V259.984H321.854V269.612H321.448V279.242H321.041V288.871H320.805V298.5H320.601V308.129H320.397V317.757H319.875V308.129H319.503V298.5H319.366V288.871H319.029V279.242H318.69V269.612H318.351V259.984H317.876V250.355H317.164V240.726H316.589V231.096H315.979V221.467H315.471V211.839H314.726V202.21H314.284V192.581H314.149V182.951H314.014V173.322H313.74V163.694H313.672V154.26H313.74V144.435H313.3V135.002H313.436V125.177H313.334V115.549H313.097V105.92H313.028V115.549H312.792V125.177H312.689V135.002H312.826V144.435H312.386V154.26H312.453V163.694H312.386V173.322H312.112V182.951H311.977V192.581H311.842V202.21H311.4V211.839H310.655V221.467H310.147V231.096H309.537V240.726H308.962V250.355H308.25V259.984H307.775V269.612H307.436V279.242H307.097V288.871H306.758V298.5H306.623V308.129H306.25V317.757H305.796V308.129H305.525V298.5H305.321V288.871H305.051V279.242H304.474V269.612H304.102V259.984H303.56V250.355H303.051V240.726H302.476V231.096H301.866V221.467H301.357V211.839H300.714V202.21H300.07V182.951H299.798V173.322H299.559V163.694H299.526V154.065H299.389V144.435H299.288V134.806H299.153V115.549H299.052V96.29H298.848V115.549H298.747V134.806H298.61V144.435H298.509V154.065H298.374V163.694H298.34V173.322H298.1V182.951H297.83V202.21H297.186V211.839H296.542V221.467H296.034V231.096H295.424V240.726H294.847V250.355H294.339V259.984H293.797V269.612H293.424V279.242H292.849V288.871H292.577V298.5H292.373V308.129H292.103V317.757H291.648V308.129H291.378V298.5H291.039V288.871H290.902V279.242H290.462V269.612H290.09V259.984H289.683V250.355H288.938V240.726H288.294V231.096H287.684V221.467H287.007V211.839H286.532V202.21H286.024V192.581H285.957V182.951H285.685V173.322H285.446V154.065H285.175V144.631H285.209V134.806H285.04V115.549H284.971V105.92H284.701V115.549H284.632V134.806H284.463V144.631H284.497V154.065H284.226V173.322H283.987V182.951H283.715V192.581H283.648V202.21H283.14V211.839H282.666V221.467H281.988V231.096H281.378V240.726H280.734V250.355H279.989V259.984H279.582V269.612H279.209V279.242H278.769V288.871H278.633V298.5H278.294V308.129H278.024V317.757H277.772V308.129H277.568V298.5H277.162V288.871H276.789V279.242H276.248V269.612H275.806V259.984H275.434V250.355H274.756V240.726H274.046V231.096H273.469V221.467H273.097V211.839H272.317V202.21H271.842V182.951H271.572V173.322H271.434V163.694H271.163V154.065H271.095V144.631H271.163V134.806H270.959V125.177H270.858V115.549H270.757V105.92H270.689V115.549H270.586V125.177H270.485V134.806H270.283V144.631H270.35V154.065H270.283V163.694H270.011V173.322H269.873V182.951H269.602V202.21H269.128V211.839H268.349V221.467H267.976V231.096H267.4V240.726H266.688V250.355H266.01V259.984H265.638V269.612H265.198V279.242H264.655V288.871H264.282V298.5H263.876V308.129H263.673V317.757H263.659V308.129H263.523V298.5H263.083V288.871H262.914V279.242H262.337V269.612H261.794V259.984H261.321V250.355H260.474V240.726H259.931V231.096H259.322V221.467H258.779V211.839H258.169V202.21H257.83V192.581H257.458V182.951H257.321V173.322H257.219V163.694H257.05V154.065H256.982V144.435H256.88V134.806H256.745V125.373H256.949V115.549H256.643V105.92H256.574V115.549H256.271V125.373H256.473V134.806H256.338V144.435H256.237V154.065H256.168V163.694H255.999V173.322H255.898V182.951H255.76V192.581H255.388V202.21H255.049V211.839H254.438V221.467H253.897V231.096H253.287V240.726H252.744V250.355H251.897V259.984H251.423V269.612H250.881V279.242H250.305V288.871H250.135V298.5H249.695V308.129H249.56V317.757H249.511V308.129H249.41V298.5H248.936V288.871H248.157V279.242H247.885V269.612H247.41V259.984H246.869V250.355H246.496V240.726H245.886V231.096H245.344V221.467H244.666V211.839H244.26V202.21H243.785V192.581H243.481V182.951H243.378V173.322H243.004V163.694H242.97V154.065H242.834V144.435H242.699V115.549H242.598V105.92H242.394V115.549H242.293V144.435H242.156V154.065H242.021V163.694H241.987V173.322H241.612V182.951H241.511V192.581H241.206V202.21H240.732V211.839H240.325V221.467H239.647V231.096H239.105V240.726H238.496V250.355H238.123V259.984H237.58V269.612H237.106V279.242H236.835V288.871H236.056V298.5H235.582V308.129H235.059V298.5H234.517V288.871H234.179V279.242H233.703V269.612H233.331V259.984H232.992V250.355H232.518V240.726H231.806V231.096H231.231V221.467H230.621V211.839H230.145V202.21H229.503V192.581H229.333V182.951H229.198V173.322H228.992V163.694H228.822V154.065H228.721V144.435H228.586V134.806H228.517V125.177H228.483V115.549H228.281V125.177H228.247V134.806H228.179V144.435H228.043V154.065H227.942V163.694H227.772V173.322H227.566V182.951H227.431V192.581H227.261V202.21H226.619V211.839H226.143V221.467H225.534V231.096H224.958V240.726H224.246V250.355H223.772V259.984H223.433V269.612H223.061V279.242H222.585V288.871H222.248V298.5H221.705V308.129H221.265V317.757H220.878V308.129H220.641V298.5H220.472V288.871H219.828V279.242H219.421V269.612H219.015V259.984H218.506V250.355H218.133V240.726H217.455V231.096H217.117V221.467H216.508V211.839H215.931V202.21H215.39V192.581H215.118V182.951H214.947V173.322H214.743V154.065H214.608V144.435H214.507V134.806H214.404V115.549H214.134V134.806H214.031V144.435H213.93V154.065H213.795V173.322H213.591V182.951H213.419V192.581H213.148V202.21H212.607V211.839H212.03V221.467H211.42V231.096H211.082V240.726H210.404V250.355H210.032V259.984H209.523V269.612H209.116V279.242H208.71V288.871H208.066V298.5H207.897V308.129H207.659V317.757H207.001V308.129H206.527V298.5H206.222V288.871H205.646V279.242H205.071V269.612H204.732V259.984H204.427V250.355H203.715V240.726H203.342V231.096H202.868V221.467H202.393V211.839H201.818V202.21H201.14V192.581H201.039V182.951H200.834V173.322H200.63V163.889H200.663V154.065H200.528V144.435H200.392V134.806H200.358V125.177H200.257V115.549H200.053V125.177H199.952V134.806H199.918V144.435H199.783V154.065H199.647V163.889H199.68V173.322H199.478V182.951H199.273V192.581H199.17V202.21H198.494V211.839H197.917V221.467H197.443V231.096H196.968V240.726H196.595V250.355H195.884V259.984H195.578V269.612H195.241V279.242H194.664V288.871H194.088V298.5H193.783V308.129H193.309V317.757H193.193V308.129H192.719V298.5H192.381V288.871H191.905V279.242H191.194V269.612H190.516V259.984H190.246V250.355H189.669V240.726H189.128V231.096H188.686V221.467H188.416V211.839H187.636V202.21H187.229V192.581H187.027V182.951H186.719V173.322H186.618V163.694H186.55V154.065H186.38V144.435H186.313V134.806H186.245V125.177H186.076V105.92H186.007V125.177H185.839V134.806H185.771V144.435H185.704V154.065H185.534V163.694H185.466V173.322H185.365V182.951H185.057V192.581H184.854V202.21H184.448V211.839H183.667V221.467H183.397V231.096H182.956V240.726H182.414V250.355H181.838V259.984H181.568V269.612H180.89V279.242H180.179V288.871H179.703V298.5H179.364V308.129H178.89V317.757H178.741V308.129H178.504V298.5H178.064V288.871H177.588V279.242H177.081V269.612H176.369V259.984H176.131V250.355H175.386V240.726H174.878V231.096H174.438V221.467H173.963V211.839H173.59V202.21H173.015V192.581H172.744V182.951H172.606V173.322H172.403V163.694H172.368V154.065H172.199V144.435H172.166V134.806H172.132V125.177H172.064V115.549H172.031V105.92H171.827V115.549H171.793V125.177H171.726V134.806H171.692V144.435H171.657V154.065H171.488V163.694H171.454V173.322H171.25V182.951H171.112V192.581H170.842V202.21H170.266V211.839H169.893V221.467H169.419V231.096H168.979V240.726H168.47V250.355H167.725V259.984H167.487V269.612H166.776V279.242H166.268V288.871H165.794V298.5H165.352V308.129H165.116V317.757H164.153V308.129H164.052V298.5H163.543V288.871H163.001V279.242H162.629V269.612H162.323V259.984H161.816V250.355H161.205V240.726H160.867V231.096H160.29V221.467H159.749V211.839H159.376V202.21H158.902V192.581H158.664V182.951H158.631V173.322H158.323V163.694H158.289V154.065H158.154V144.435H158.053V134.806H158.019V125.177H157.95V115.549H157.916V105.92H157.714V115.549H157.68V125.177H157.611V134.806H157.577V144.435H157.476V154.065H157.341V163.694H157.307V173.322H156.999V182.951H156.966V192.581H156.729V202.21H156.254V211.839H155.881V221.467H155.34V231.096H154.763V240.726H154.424V250.355H153.814V259.984H153.307V269.612H153.001V279.242H152.629V288.871H152.087V298.5H151.578V308.129H151.477V317.757H150.799V327.387H150.718V317.757H150.277V308.129H150.141V298.5H149.667V288.871H149.227V279.242H148.549V269.612H148.177V259.984H147.701V250.355H147.16V240.726H146.651V231.096H146.211V221.467H145.737V211.839H145.16V202.21H144.821V192.581H144.754V182.951H144.311V173.322H144.277V163.694H144.142V154.065H143.973V144.631H144.041V134.806H143.736V125.177H143.668V134.806H143.363V144.631H143.43V154.065H143.262V163.694H143.125V173.322H143.092V182.951H142.649V192.581H142.581V202.21H142.242V211.839H141.667V221.467H141.192V231.096H140.752V240.726H140.244V250.355H139.701V259.984H139.227V269.612H138.854V279.242H138.177V288.871H137.737V298.5H137.261V308.129H137.126V317.757H136.686V327.387H136.502V317.757H136.197V308.129H135.824V298.5H135.485V288.871H135.249V279.242H134.774V269.612H134.3V259.984H133.792V250.355H133.148V240.726H132.674V231.096H132.097V221.467H131.521V211.839H131.182V202.21H130.573V192.581H130.539V182.951H130.198V173.322H130.063V163.694H130.029V154.065H129.926V144.435H129.859V134.806H129.791V115.549H129.385V134.806H129.317V144.435H129.25V154.065H129.147V163.694H129.113V173.322H128.978V182.951H128.637V192.581H128.603V202.21H127.994V211.839H127.655V221.467H127.079V231.096H126.502V240.726H126.028V250.355H125.384V259.984H124.876V269.612H124.402V279.242H123.927V288.871H123.691V298.5H123.352V308.129H122.979V317.757H122.674V327.387H122.287V317.757H122.016V308.129H121.812V298.5H121.372V288.871H121.033V279.242H120.627V269.612H120.389V259.984H119.576V250.355H118.898V240.726H118.289V231.096H117.713V221.467H117.578V211.839H117.069V202.21H116.662V192.581H116.425V182.951H116.084V173.322H115.916V163.694H115.847V154.065H115.746V144.435H115.678V134.806H115.508V115.549H115.44V134.806H115.272V144.435H115.204V154.065H115.102V163.694H115.034V173.322H114.865V182.951H114.524V192.581H114.287V202.21H113.879V211.839H113.372V221.467H113.237V231.096H112.66V240.726H112.05V250.355H111.372V259.984H110.559V269.612H110.323V279.242H109.915V288.871H109.576V298.5H109.136V308.129H108.934V317.757H108.662V327.387H108.425V337.016H108.309V327.387H108.139V317.757H107.733V308.129H107.428V298.5H107.225V288.871H106.446V279.242H106.107V269.612H105.598V259.984H105.023V250.355H104.65V240.726H104.107V231.096H103.836V221.467H103.362V211.839H102.888V202.21H102.414V192.581H102.21V182.951H101.938V173.322H101.87V163.694H101.734V154.065H101.565V134.806H101.395V125.177H101.327V134.806H101.159V154.065H100.988V163.694H100.853V173.322H100.784V182.951H100.512V192.581H100.309V202.21H99.8339V211.839H99.3599V221.467H98.886V231.096H98.6146V240.726H98.0718V250.355H97.6992V259.984H97.124V269.612H96.6149V279.242H96.276V288.871H95.497V298.5H95.2945V308.129H94.9893V317.757H94.5829V327.387H94.4128V337.016H94.0598V327.387H93.8235V317.757H93.3482V308.129H93.0093V298.5H92.8068V288.871H92.264V279.242H91.8239V269.612H91.3837V259.984H90.8746V250.355H90.4682V240.726H89.9943V231.096H89.6217V221.467H89.249V211.839H88.6049V202.21H88.3687V192.581H88.1985V182.951H87.9595V173.322H87.7218V163.694H87.6881V154.065H87.5193V144.435H87.3829V134.806H87.2817V115.549H87.2142V134.806H87.1129V144.435H86.9765V154.065H86.8078V163.694H86.774V173.322H86.5364V182.951H86.2973V192.581H86.1271V202.21H85.8909V211.839H85.2468V221.467H84.8742V231.096H84.5015V240.726H84.0262V250.355H83.6198V259.984H83.1121V269.612H82.672V279.242H82.2304V288.871H81.689V298.5H81.4851V308.129H81.1462V317.757H80.6723V327.387H80.4346V337.016H79.9129V327.387H79.5065V317.757H79.1339V308.129H78.8962V298.5H78.6248V288.871H78.1509V279.242H77.6095V269.612H77.3381V259.984H76.7953V250.355H76.2201V240.726H75.8474V231.096H75.4059V221.467H75.0684V211.839H74.5931V202.21H74.1867V192.581H73.949V182.951H73.7099V173.322H73.5749V154.065H73.4048V144.435H73.371V134.806H73.236V125.177H73.1685V115.549H73.101V125.177H73.0321V134.806H72.8971V144.435H72.8634V154.065H72.6932V173.322H72.5582V182.951H72.3192V192.581H72.0815V202.21H71.6751V211.839H71.2012V221.467H70.8623V231.096H70.4221V240.726H70.0495V250.355H69.4729V259.984H68.9301V269.612H68.6601V279.242H68.1173V288.871H67.6434V298.5H67.372V308.129H67.1343V317.757H66.7617V327.387H66.3553V337.016H66.0853V346.645H65.9348V337.016H65.6296V327.387H65.3596V317.757H65.122V308.129H64.9181V298.5H64.5792V288.871H64.3092V279.242H63.6314V269.612H63.1223V259.984H62.6821V250.355H62.3095V240.726H61.6317V231.096H61.3603V221.467H60.8189V211.839H60.5474V202.21H60.0735V192.581H59.6981V182.951H59.6306V173.322H59.4956V163.694H59.2579V154.065H59.2242V134.806H58.8178V154.065H58.784V163.694H58.5464V173.322H58.4114V182.951H58.3439V192.581H57.9684V202.21H57.4945V211.839H57.2231V221.467H56.6803V231.096H56.4103V240.726H55.7324V250.355H55.3598V259.984H54.9196V269.612H54.4106V279.242H53.7328V288.871H53.4614V298.5H53.1239V308.129H52.9199V317.757H52.6823V327.387H52.4123V337.016H52.1071V346.645H51.8554V337.016H51.4828V327.387H51.2789V317.757H50.9751V308.129H50.7037V298.5H50.2973V288.871H49.9246V279.242H49.5857V269.612H49.0092V259.984H48.6703V250.355H48.0599V240.726H47.6198V231.096H47.1796V221.467H46.807V211.839H46.3331V202.21H45.8915V192.581H45.7565V182.951H45.4162V173.322H45.2798V163.694H45.246V154.065H45.111V144.435H44.9409V134.806H44.8734V144.435H44.7046V154.065H44.5682V163.694H44.5345V173.322H44.3995V182.951H44.0578V192.581H43.9228V202.21H43.4826V211.839H43.0073V221.467H42.6346V231.096H42.1945V240.726H41.7543V250.355H41.144V259.984H40.8051V269.612H40.2299V279.242H39.891V288.871H39.5184V298.5H39.112V308.129H38.8406V317.757H38.5354V327.387H38.3315V337.016H37.9589V346.645H37.7423V337.016H37.4709V327.387H37.0982V317.757H36.7931V308.129H36.5554V298.5H36.2179V288.871H35.8101V279.242H35.3024V269.612H34.8285V259.984H34.252V250.355H33.8793V240.726H33.5404V231.096H33.0328V221.467H32.6939V211.839H32.3212V202.21H31.7446V192.581H31.4043V173.322H31.3017V163.694H31.1329V154.065H30.9979V144.435H30.929V134.806H30.659V144.435H30.5901V154.065H30.4551V163.694H30.2864V173.322H30.1837V192.581H29.8434V202.21H29.2668V211.839H28.8942V221.467H28.5553V231.096H28.0476V240.726H27.7087V250.355H27.336V259.984H26.7595V269.612H26.2856V279.242H25.7779V288.871H25.3701V298.5H25.0312V308.129H24.7949V317.757H24.4898V327.387H24.1171V337.016H23.8457V346.645H23.7304V337.016H23.459V327.387H23.1201V317.757H22.9176V308.129H22.5787V298.5H22.1723V288.871H21.6295V279.242H21.2568V269.612H20.714V259.984H20.1388V250.355H19.7662V240.726H19.2923V231.096H18.8507V221.467H18.4781V211.839H18.0379V202.21H17.564V192.581H17.3924V182.951H17.1548V173.322H17.121V163.694H16.9523V154.065H16.8159V144.631H16.8834V134.806H16.8159V125.177H16.5445V134.806H16.477V144.631H16.5445V154.065H16.4095V163.694H16.2407V173.322H16.2056V182.951H15.9693V192.581H15.7978V202.21H15.3238V211.839H14.8823V221.467H14.5096V231.096H14.0695V240.726H13.5956V250.355H13.2229V259.984H12.6463V269.612H12.1049V279.242H11.7323V288.871H11.1895V298.5H10.7831V308.129H10.4442V317.757H10.2403V327.387H9.90135V337.016H9.63135V346.645H9.61729V337.016H9.34588V327.387H8.87197V317.757H8.70182V308.129H8.29541V298.5H7.85526V288.871H7.37994V279.242H6.83854V269.612H6.53338V259.984H6.02572V250.355H5.65307V240.726H5.21151V231.096H4.70385V221.467H4.36494V211.839H3.85729V202.21H3.51838V192.581H3.24416V182.951H3.07541V173.322H3.00791V163.694H2.90526V154.065H2.77026V144.435H2.60151V125.177H2.5326V144.435H2.36385V154.065H2.22885V163.694H2.12619V173.322H2.05869V182.951H1.88994V192.581H1.61572V202.21H1.27682V211.839H0.769162V221.467H0.430255V231.096H-5.72205e-05V360H1440V154.065H1439.97V163.694H1439.66V173.322H1439.56V182.951H1439.32V192.776H1439.39V202.21H1438.71V211.839H1438.27V221.467H1437.93V231.096H1437.8V240.726H1437.53V250.355H1436.88V259.984H1436.38V269.612H1435.9V279.242H1435.09V288.871H1434.87V279.242H1433.92V269.612H1433.45V259.984H1433.08V250.355H1432.74V240.726H1432.4V231.096H1432.06V221.467H1431.79V211.839H1431.45V202.21H1430.97V192.581H1430.87V182.951H1430.67V173.322H1430.5V163.694H1430.16V154.065H1429.92V144.435H1429.69V134.806H1429.59V125.177H1429.45V115.549H1429.25V105.92H1429.08V96.29H1428.97V86.6612H1428.87V67.4036H1428.7V57.7738H1428.63V48.145H1428.36V38.7119H1428.4V28.8874H1428.13V9.82453H1428.16V0H1427.89V9.82453ZM1223.66 298.5H1223.51V289.067H1223.66V298.5ZM828.956 259.984H828.433V250.551H828.956V259.984Z" fill="#A89474"/>
<path d="M58.919 125.373H59.1229V115.549H58.919V125.373Z" fill="#A89474"/>
<path d="M44.7721 125.373H45.0435V115.549H44.7721V125.373Z" fill="#A89474"/>
<path d="M30.6928 125.373H30.8953V115.549H30.6928V125.373Z" fill="#A89474"/>
<path d="M143.668 115.744H143.736V96.29H143.668V115.744Z" fill="#A89474"/>
<path d="M101.327 115.744H101.395V105.92H101.327V115.744Z" fill="#A89474"/>
<path d="M341.189 106.115H341.391V96.29H341.189V106.115Z" fill="#A89474"/>
<path d="M454.164 96.4857H454.231V86.6612H454.164V96.4857Z" fill="#A89474"/>
<path d="M397.71 96.4857H397.777V86.6612H397.71V96.4857Z" fill="#A89474"/>
<path d="M355.369 96.4857H355.437V86.6612H355.369V96.4857Z" fill="#A89474"/>
<path d="M468.209 86.8569H468.412V77.0324H468.209V86.8569Z" fill="#A89474"/>
<path d="M440.049 86.8569H440.118V77.0324H440.049V86.8569Z" fill="#A89474"/>
<path d="M736.432 77.2281H736.5V67.4036H736.432V77.2281Z" fill="#A89474"/>
<path d="M962.248 38.7119H962.315V28.8874H962.248V38.7119Z" fill="#A89474"/>
<path d="M1131.54 29.0831H1131.74V19.2586H1131.54V29.0831Z" fill="#A89474"/>
</svg>
